<?xml version="1.0" encoding="utf-8"?>
<!-- Generator: Adobe Illustrator 24.1.0, SVG Export Plug-In . SVG Version: 6.00 Build 0)  -->
<svg version="1.1" id="UAL_1_" xmlns="http://www.w3.org/2000/svg" xmlns:xlink="http://www.w3.org/1999/xlink" x="0px" y="0px"
	 viewBox="0 0 400 400" style="enable-background:new 0 0 400 400;" xml:space="preserve">
<style type="text/css">
	.st0{fill:#000100;}
</style>
<g>
	<path class="st0" d="M134.7,271h-27.4v-14.6h-0.6c-7.3,11.8-19.9,17.4-32,17.4c-30.6,0-38.3-17.2-38.3-43.2v-64.5h28.8v59.2
		c0,17.2,5.1,25.7,18.5,25.7c15.6,0,22.3-8.7,22.3-30v-55h28.8L134.7,271z"/>
	<path class="st0" d="M153.8,198.4c1.6-27,25.8-35.1,49.3-35.1c20.9,0,46,4.7,46,29.8v54.6c0,9.5,1,19,3.7,23.3h-29.2
		c-1-3.3-1.8-6.7-2-10.1c-9.1,9.5-22.5,13-35.3,13c-19.9,0-35.7-9.9-35.7-31.4c0-23.7,17.9-29.4,35.7-31.8
		c17.6-2.6,34.1-2,34.1-13.8c0-12.4-8.5-14.2-18.7-14.2c-11,0-18.1,4.5-19.1,15.8L153.8,198.4L153.8,198.4z M220.3,219.7
		c-4.9,4.3-15,4.5-23.9,6.1c-8.9,1.8-17,4.9-17,15.4c0,10.8,8.3,13.4,17.6,13.4c22.5,0,23.3-17.9,23.3-24.2L220.3,219.7z"/>
	<path class="st0" d="M271.2,126.2H300V271h-28.8V126.2z"/>
	<path class="st0" d="M363.7,199.2h-31.8V168h31.8V199.2z M331.8,239.7h31.8v31.2h-31.8V239.7z"/>
</g>
</svg>
