<?xml version="1.0" encoding="utf-8"?>
<!-- Generator: Adobe Illustrator 24.1.0, SVG Export Plug-In . SVG Version: 6.00 Build 0)  -->
<svg version="1.1" id="Camden" xmlns="http://www.w3.org/2000/svg" xmlns:xlink="http://www.w3.org/1999/xlink" x="0px" y="0px"
	 viewBox="0 0 400 400" style="enable-background:new 0 0 400 400;" xml:space="preserve">
<style type="text/css">
	.st0{fill:#008752;}
	.st1{fill:#010101;}
</style>
<g>
	<path class="st0" d="M56.7,156.8v15.6l13.8,6.6h11.3c0,0,2.1-2.5-1.7-4.5c0,0-4.4-0.7-6.6-0.4c-2.2,0.4-2.3-1.9,0.1-1.9h22.9
		c0,0-1.2-14.9-13.7-15.3C68.7,156.4,56.7,156.8,56.7,156.8"/>
	<path class="st0" d="M109.2,196.7v-15.6l-13.8-6.6H84.1c0,0-2.1,2.5,1.7,4.5c0,0,4.4,0.7,6.6,0.4c2.2-0.4,2.3,1.9-0.1,1.9H69.4
		c0,0,1.2,14.9,13.7,15.3C97.2,197.1,109.2,196.7,109.2,196.7"/>
	<path class="st0" d="M56.7,243.2v-15.6l13.8-6.6h11.3c0,0,2.1,2.5-1.7,4.5c0,0-4.4,0.7-6.6,0.4c-2.2-0.4-2.3,1.9,0.1,1.9h22.9
		c0,0-1.2,14.9-13.7,15.3C68.7,243.6,56.7,243.2,56.7,243.2"/>
	<path class="st0" d="M109.2,203.3v15.6l-13.8,6.6H84.1c0,0-2.1-2.5,1.7-4.5c0,0,4.4-0.7,6.6-0.4c2.2,0.4,2.3-1.9-0.1-1.9H69.4
		c0,0,1.2-14.9,13.7-15.3C97.2,202.9,109.2,203.3,109.2,203.3"/>
	<path class="st0" d="M52.5,156.8v15.6L38.7,179H27.4c0,0-2.1-2.5,1.7-4.5c0,0,4.4-0.7,6.6-0.4c2.2,0.4,2.3-1.9-0.1-1.9H12.7
		c0,0,1.2-14.9,13.7-15.3C40.5,156.4,52.5,156.8,52.5,156.8"/>
	<path class="st0" d="M0,196.7v-15.6l13.8-6.6h11.3c0,0,2.1,2.5-1.7,4.5c0,0-4.4,0.7-6.6,0.4c-2.2-0.4-2.3,1.9,0.1,1.9h22.9
		c0,0-1.2,14.9-13.7,15.3C12,197.1,0,196.7,0,196.7"/>
	<path class="st0" d="M52.5,243.2v-15.6L38.7,221H27.4c0,0-2.1,2.5,1.7,4.5c0,0,4.4,0.7,6.6,0.4c2.2-0.4,2.3,1.9-0.1,1.9H12.7
		c0,0,1.2,14.9,13.7,15.3C40.5,243.6,52.5,243.2,52.5,243.2"/>
	<path class="st0" d="M0,203.3v15.6l13.8,6.6h11.3c0,0,2.1-2.5-1.7-4.5c0,0-4.4-0.7-6.6-0.4c-2.2,0.4-2.3-1.9,0.1-1.9h22.9
		c0,0-1.2-14.9-13.7-15.3C12,202.9,0,203.3,0,203.3"/>
	<path class="st1" d="M160.1,220.2c-0.8,0-1.6,0.1-3.4,0.4l-3.6,0.5c-2.8,0.5-6.2,0.8-9,0.8c-14.6,0-23.4-7.8-23.4-20.9
		c0-13.8,9.5-22.8,23.9-22.8c2.6,0,6.7,0.4,10.4,0.9l3.8,0.6c0.6,0.1,1.2,0.1,1.8,0.1c1.2,0,1.7-0.1,2.7-0.5l-3.6,10.4
		c-2.4-2.8-8.1-4.8-13.7-4.8c-10.1,0-16.3,6-16.3,15.8c0,9.3,5.8,14.6,16,14.6c3.7,0,7.3-0.8,11.7-2.5c1.7-0.7,2.3-1,4-2v10
		C161.1,220.3,160.9,220.2,160.1,220.2"/>
	<path class="st1" d="M200.7,221.1c-2.6,0-3.7-0.6-4.7-2.9l-0.3,0.3c-2.2,1.6-3.3,2.1-5.5,2.7c-2.5,0.6-5.2,0.9-8.5,0.9
		c-9.5,0-15-3.2-15-8.8c0-3.7,3-6.9,8-8.4c3.7-1.1,6.8-1.5,14-1.8c1.8-0.1,3.8-0.2,5.9-0.2l0.6-0.1c-0.4-4.7-2.7-6.5-7.9-6.5
		c-4.7,0-12.6,1.8-18.2,4.2l3-9c0.7,0.4,1.2,0.5,2.3,0.5c0.7,0,3-0.2,4.7-0.4l3.2-0.4c1.8-0.2,4-0.4,5.9-0.4c5.5,0,9.2,1.2,11.7,4
		c1.8,2,2.5,4.3,2.5,8.4v0.7l-0.1,2.1v4l-0.1,2.8c0,4.3,1.1,6.8,3.8,8.3L200.7,221.1L200.7,221.1z M194.8,207.7
		c-1.6,0-3.3,0.1-5.7,0.1c-5.4,0.3-8.3,0.6-10.8,1.6c-2.2,0.9-3.3,2.1-3.3,3.8c0,2.2,2.5,3.4,7.5,3.4c5.9,0,10.7-1.8,12.1-4.3
		c0.4-0.9,0.8-2.5,0.8-3.8v-0.9L194.8,207.7L194.8,207.7z"/>
	<path class="st1" d="M219.9,195.1l0.6-0.3c3.9-2.8,8-4.1,12.6-4.1c5.2,0,8.8,1.6,11.2,4.9c2.5-2,3.2-2.4,4.9-3.2
		c2.7-1.1,5.4-1.7,8.5-1.7c4.6,0,8.5,1.5,10.9,4.3c1.8,2,2.3,4.5,2.3,9.6v9.4c0,3.8,0.7,5.4,3,7.1H261c2.2-1.7,2.9-3.3,2.9-7.1v-9
		c0-6.6-2-8.8-8.1-8.8c-3.2,0-6.4,1.2-8,3c-1.5,1.6-1.8,2.8-1.8,7.4v7.4c0,3.8,0.6,5.4,2.9,7.1h-13c2.3-1.7,2.9-3.3,2.9-7.1v-8.1
		c0-4.4-0.2-5.6-1-6.9c-1.1-1.9-3-2.8-6.2-2.8c-3.7,0-6.7,1-8.6,2.8c-1.6,1.6-2.3,3.4-2.3,6.5v1.6v6.8c0,3.8,0.7,5.5,3,7.2h-13.1
		c2.2-1.4,3-3.3,3-7.1v-15.1c0-3.8-0.8-5.7-3-7.1h5.9c1.8,0,2.5-0.2,3.3-0.9L219.9,195.1L219.9,195.1z"/>
	<path class="st1" d="M294.1,222c-10.4,0-16.3-5.4-16.3-15.1c0-10.4,6.6-16.2,18.2-16.2c4.5,0,7.6,0.9,11.1,3.2v-7.6
		c0-3.8-0.7-5.6-2.9-7.1H315c-0.8,0.8-0.9,1-0.9,2.8v32c0,3.8,0.6,5.4,2.9,7.1h-6.4c-2,0-2.8-0.6-3.6-2.5
		C303.8,220.8,299.1,222,294.1,222 M285.6,206.6c0,6.6,3.5,10,10.4,10c6.8,0,11.1-4,11.1-10.5c0-6.4-4-10-11-10
		C289.4,196.1,285.6,200,285.6,206.6"/>
	<path class="st1" d="M354.8,221.9c-0.6-0.4-0.9-0.4-1.6-0.4c-1.5,0-3.4,0.1-5.8,0.3c-0.3,0.1-0.9,0.1-1.8,0.1
		c-2.7,0.1-4.1,0.2-5.6,0.2c-12.2,0-18.5-4.9-18.5-14.7c0-10.4,6.9-16.6,18.5-16.6c6.1,0,11.1,2.1,13.9,5.8c1.9,2.5,2.5,4.9,2.5,10
		c0,1.3-0.1,1.8-0.1,3.2c-0.6-0.4-1.1-0.5-2.1-0.5H354h-0.8h-24.5c0.4,4.9,4.6,7.4,12.2,7.4c5.7,0,10.7-1.1,13.8-3.2L354.8,221.9
		L354.8,221.9z M340,196.1c-6.1,0-10,2.8-11.1,8h20.4C349,198.9,345.8,196.1,340,196.1"/>
	<path class="st1" d="M369.3,195.1l1.2-0.6l2.1-1.4c2.3-1.5,6.7-2.4,10.7-2.4c5.7,0,10.4,2.1,12.4,5.6c1.1,2,1.3,3.1,1.3,8.6v9
		c0,3.8,0.6,5.4,2.9,7.1H387c2.3-1.7,2.9-3.3,2.9-7.1v-7.6v-1.2c0-6.9-2-9-8.5-9c-5.2,0-8.8,1.9-10.3,5.4c-0.7,1.6-0.9,3.3-0.9,6.8
		v5.6c0,3.8,0.7,5.5,2.9,7.2h-12.9c2.3-2,2.8-3.3,2.8-7.1v-15.1c0-3.8-0.6-5.2-2.8-7.1h6.3c1.6,0,2-0.1,2.7-0.9L369.3,195.1
		L369.3,195.1z"/>
</g>
</svg>
