<?xml version="1.0" encoding="utf-8"?>
<!-- Generator: Adobe Illustrator 24.1.0, SVG Export Plug-In . SVG Version: 6.00 Build 0)  -->
<svg version="1.1" id="Polimi" xmlns="http://www.w3.org/2000/svg" xmlns:xlink="http://www.w3.org/1999/xlink" x="0px" y="0px"
	 viewBox="0 0 400 400" style="enable-background:new 0 0 400 400;" xml:space="preserve">
<style type="text/css">
	.st0{fill:#62859F;}
	.st1{fill:#231F20;}
	.st2{fill:#B4C5D5;}
	.st3{fill:#FFFFFF;}
	.st4{fill:#85B4D6;}
	.st5{fill:none;}
</style>
<g>
	<g>
		<path class="st0" d="M186.4,205.9c-3,50.1-46.1,88.3-96.2,85.3c-50.1-3-88.3-46.1-85.3-96.2c3-50.1,46.1-88.3,96.2-85.3
			c49.5,3,87.4,45,85.4,94.4"/>
		<polygon class="st1" points="95.3,286.7 95.4,295.1 96.9,295.1 96.9,286.7 		"/>
		
			<rect x="87.7" y="290.1" transform="matrix(4.481230e-02 -0.999 0.999 4.481230e-02 -202.8011 369.5843)" class="st1" width="8.4" height="1.6"/>
		<polygon class="st1" points="99.3,286.6 99.8,295 101.4,294.9 100.9,286.5 		"/>
		
			<rect x="83.4" y="289.8" transform="matrix(7.888824e-02 -0.9969 0.9969 7.888824e-02 -208.9622 355.0319)" class="st1" width="8.4" height="1.6"/>
		
			<rect x="103.8" y="286.2" transform="matrix(0.9955 -9.489183e-02 9.489183e-02 0.9955 -27.0872 11.233)" class="st1" width="1.6" height="8.4"/>
		<polygon class="st1" points="82.1,294.2 83.2,285.9 84.7,286.1 83.7,294.4 		"/>
		<polygon class="st1" points="107.4,285.8 108.9,285.6 110.2,293.9 108.6,294.2 		"/>
		<polygon class="st1" points="77.7,293.5 79.2,285.2 80.8,285.5 79.3,293.8 		"/>
		
			<rect x="112.2" y="284.9" transform="matrix(0.9806 -0.1962 0.1962 0.9806 -54.5507 27.7873)" class="st1" width="1.6" height="8.4"/>
		
			<rect x="70.9" y="287.9" transform="matrix(0.2158 -0.9764 0.9764 0.2158 -222.9999 299.6955)" class="st1" width="8.4" height="1.6"/>
		
			<rect x="116.3" y="284" transform="matrix(0.9689 -0.2475 0.2475 0.9689 -67.7006 37.9479)" class="st1" width="1.6" height="8.4"/>
		<polygon class="st1" points="69.1,291.5 71.3,283.4 72.8,283.8 70.6,291.9 		"/>
		
			<rect x="120.4" y="282.9" transform="matrix(0.9598 -0.2808 0.2808 0.9598 -75.7435 45.5709)" class="st1" width="1.6" height="8.4"/>
		
			<rect x="62.7" y="285.6" transform="matrix(0.3127 -0.9499 0.9499 0.3127 -226.0867 260.4216)" class="st1" width="8.4" height="1.6"/>
		
			<rect x="124.4" y="281.6" transform="matrix(0.9448 -0.3277 0.3277 0.9448 -86.7455 56.8081)" class="st1" width="1.6" height="8.4"/>
		
			<rect x="58.7" y="284.2" transform="matrix(0.3597 -0.9331 0.9331 0.3597 -225.6705 241.2131)" class="st1" width="8.4" height="1.6"/>
		<polygon class="st1" points="126.9,280.7 128.3,280.1 131.5,287.9 130,288.5 		"/>
		<polygon class="st1" points="56.6,287 59.9,279.3 61.4,279.9 58,287.6 		"/>
		
			<rect x="132.3" y="278.4" transform="matrix(0.9067 -0.4218 0.4218 0.9067 -106.8027 82.4977)" class="st1" width="1.6" height="8.4"/>
		<polygon class="st1" points="52.6,285.1 56.3,277.5 57.7,278.2 54,285.8 		"/>
		<polygon class="st1" points="134.2,277.4 135.6,276.7 139.5,284.2 138.1,284.9 		"/>
		
			<rect x="47.2" y="278.9" transform="matrix(0.4818 -0.8763 0.8763 0.4818 -218.4697 189.9488)" class="st1" width="8.4" height="1.6"/>
		<polygon class="st1" points="137.8,275.5 139.1,274.7 143.4,282 142,282.8 		"/>
		
			<rect x="43.5" y="276.8" transform="matrix(0.5236 -0.852 0.852 0.5236 -213.7573 172.8905)" class="st1" width="8.4" height="1.6"/>
		
			<rect x="143.4" y="272.3" transform="matrix(0.8371 -0.5471 0.5471 0.8371 -127.8007 123.9504)" class="st1" width="1.6" height="8.4"/>
		
			<rect x="39.9" y="274.5" transform="matrix(0.5639 -0.8258 0.8258 0.5639 -208.0798 156.4995)" class="st1" width="8.4" height="1.6"/>
		
			<rect x="146.9" y="270" transform="matrix(0.8205 -0.5717 0.5717 0.8205 -130.2161 133.6577)" class="st1" width="1.6" height="8.4"/>
		
			<rect x="36.5" y="272" transform="matrix(0.6034 -0.7975 0.7975 0.6034 -201.4211 140.6668)" class="st1" width="8.4" height="1.6"/>
		<polygon class="st1" points="147.9,268.8 149.2,267.8 154.3,274.5 153.1,275.4 		"/>
		
			<rect x="33.2" y="269.4" transform="matrix(0.6316 -0.7753 0.7753 0.6316 -195.7147 128.5058)" class="st1" width="8.4" height="1.6"/>
		
			<rect x="153.6" y="264.7" transform="matrix(0.7599 -0.65 0.65 0.7599 -137.7537 164.9226)" class="st1" width="1.6" height="8.4"/>
		<polygon class="st1" points="30.8,270 36.4,263.8 37.6,264.8 31.9,271.1 		"/>
		
			<rect x="156.8" y="261.9" transform="matrix(0.7311 -0.6822 0.6822 0.7311 -139.1938 179.0274)" class="st1" width="1.6" height="8.4"/>
		
			<rect x="26.9" y="263.7" transform="matrix(0.7029 -0.7113 0.7113 0.7029 -178.911 100.697)" class="st1" width="8.4" height="1.6"/>
		<polygon class="st1" points="157,260.8 158.1,259.6 164.1,265.5 163,266.6 		"/>
		<polygon class="st1" points="24.5,263.7 30.7,258 31.8,259.2 25.6,264.9 		"/>
		
			<rect x="162.6" y="255.8" transform="matrix(0.6577 -0.7533 0.7533 0.6577 -139.9238 212.1023)" class="st1" width="1.6" height="8.4"/>
		
			<rect x="21.1" y="257.5" transform="matrix(0.7676 -0.6409 0.6409 0.7676 -159.6272 76.2618)" class="st1" width="8.4" height="1.6"/>
		<polygon class="st1" points="162.4,254.8 163.3,253.5 169.9,258.8 169,260 		"/>
		
			<rect x="18.5" y="254.2" transform="matrix(0.7975 -0.6034 0.6034 0.7975 -149.2264 65.3385)" class="st1" width="8.4" height="1.6"/>
		<polygon class="st1" points="164.8,251.6 165.8,250.3 172.6,255.2 171.7,256.5 		"/>
		<polygon class="st1" points="16.3,253.2 23.3,248.5 24.1,249.8 17.2,254.5 		"/>
		
			<rect x="170.3" y="245.7" transform="matrix(0.5551 -0.8318 0.8318 0.5551 -131.7393 253.5481)" class="st1" width="1.6" height="8.4"/>
		<polygon class="st1" points="13.9,249.5 21.1,245.1 21.9,246.4 14.7,250.9 		"/>
		
			<rect x="172.6" y="242.1" transform="matrix(0.5149 -0.8572 0.8572 0.5149 -127.0538 268.1221)" class="st1" width="1.6" height="8.4"/>
		<polygon class="st1" points="11.7,245.7 19,241.6 19.8,242.9 12.5,247.1 		"/>
		<polygon class="st1" points="171.4,241.3 172.1,240 179.5,243.9 178.8,245.3 		"/>
		
			<rect x="9.6" y="239.8" transform="matrix(0.892 -0.4521 0.4521 0.892 -107.2689 32.2071)" class="st1" width="8.4" height="1.6"/>
		
			<rect x="176.6" y="234.6" transform="matrix(0.4276 -0.904 0.904 0.4276 -114.3863 297.0436)" class="st1" width="1.6" height="8.4"/>
		<polygon class="st1" points="7.8,237.7 15.5,234.3 16.1,235.8 8.4,239.2 		"/>
		
			<rect x="178.3" y="230.8" transform="matrix(0.3831 -0.9237 0.9237 0.3831 -106.5708 310.3755)" class="st1" width="1.6" height="8.4"/>
		<rect x="6.1" y="232" transform="matrix(0.932 -0.3625 0.3625 0.932 -83.6904 19.5802)" class="st1" width="8.4" height="1.6"/>
		<polygon class="st1" points="176.4,230.3 176.9,228.9 184.9,231.7 184.3,233.2 		"/>
		<rect x="4.7" y="228.1" transform="matrix(0.9484 -0.317 0.317 0.9484 -72.0784 14.6191)" class="st1" width="8.4" height="1.6"/>
		
			<rect x="181.2" y="222.8" transform="matrix(0.2992 -0.9542 0.9542 0.2992 -89.0807 332.7166)" class="st1" width="1.6" height="8.4"/>
		<polygon class="st1" points="3.4,225.2 11.5,222.9 11.9,224.4 3.8,226.7 		"/>
		<polygon class="st1" points="178.9,222.6 179.3,221.1 187.4,223.2 187,224.8 		"/>
		
			<rect x="2.4" y="219.9" transform="matrix(0.9754 -0.2205 0.2205 0.9754 -48.4933 6.8812)" class="st1" width="8.4" height="1.6"/>
		<polygon class="st1" points="179.8,218.7 180.1,217.2 188.4,218.9 188.1,220.4 		"/>
		
			<rect x="1.5" y="215.8" transform="matrix(0.9828 -0.1846 0.1846 0.9828 -39.8779 4.7774)" class="st1" width="8.4" height="1.6"/>
		
			<rect x="184.1" y="210.4" transform="matrix(0.1546 -0.988 0.988 0.1546 -55.7567 364.122)" class="st1" width="1.6" height="8.4"/>
		<polygon class="st1" points="0.8,212.1 9.1,211 9.3,212.6 1,213.7 		"/>
		<polygon class="st1" points="181.2,210.9 181.4,209.3 189.7,210.3 189.5,211.9 		"/>
		<polygon class="st1" points="0.3,207.7 8.7,207 8.8,208.6 0.4,209.3 		"/>
		
			<rect x="185.1" y="202.5" transform="matrix(6.448803e-02 -0.9979 0.9979 6.448803e-02 -32.3787 378.796)" class="st1" width="1.6" height="8.4"/>
		
			<rect x="0.1" y="203.1" transform="matrix(0.9989 -4.671833e-02 4.671833e-02 0.9989 -9.5222 0.4233)" class="st1" width="8.4" height="1.6"/>
		
			<rect x="185.2" y="198.5" transform="matrix(3.465191e-02 -0.9994 0.9994 3.465191e-02 -23.0375 381.6009)" class="st1" width="1.6" height="8.4"/>
		<polygon class="st1" points="0,200.5 8.4,200.5 8.4,198.9 0,198.9 		"/>
		<polygon class="st1" points="181.8,197.9 181.8,199.5 190.3,199.3 190.3,197.8 		"/>
		<polygon class="st1" points="0.1,196 8.5,196.5 8.6,194.9 0.2,194.4 		"/>
		
			<rect x="181.7" y="193.6" transform="matrix(0.9978 -6.587344e-02 6.587344e-02 0.9978 -12.4018 12.6675)" class="st1" width="8.4" height="1.6"/>
		
			<rect x="3.9" y="187" transform="matrix(9.141215e-02 -0.9958 0.9958 9.141215e-02 -186.2007 178.3604)" class="st1" width="1.6" height="8.4"/>
		<polygon class="st1" points="181.3,189.8 189.6,189 189.8,190.5 181.4,191.4 		"/>
		<polygon class="st1" points="0.9,187.2 1.1,185.6 9.4,186.8 9.2,188.4 		"/>
		<polygon class="st1" points="180.7,185.8 189,184.6 189.3,186.1 180.9,187.4 		"/>
		<polygon class="st1" points="1.6,182.8 1.9,181.3 10.1,182.9 9.8,184.4 		"/>
		<polygon class="st1" points="180,181.9 188.2,180.2 188.5,181.7 180.3,183.4 		"/>
		
			<rect x="5.9" y="174.5" transform="matrix(0.2295 -0.9733 0.9733 0.2295 -168.7285 144.2318)" class="st1" width="1.6" height="8.4"/>
		<polygon class="st1" points="179,177.9 187.2,175.9 187.6,177.4 179.4,179.5 		"/>
		
			<rect x="7" y="170.4" transform="matrix(0.2783 -0.9605 0.9605 0.2783 -162.0487 133.5172)" class="st1" width="1.6" height="8.4"/>
		
			<rect x="177.9" y="172.8" transform="matrix(0.9556 -0.2947 0.2947 0.9556 -43.0641 61.3897)" class="st1" width="8.4" height="1.6"/>
		
			<rect x="8.3" y="166.3" transform="matrix(0.3247 -0.9458 0.9458 0.3247 -155.1651 123.7753)" class="st1" width="1.6" height="8.4"/>
		
			<rect x="176.6" y="168.8" transform="matrix(0.9442 -0.3294 0.3294 0.9442 -45.7652 69.0414)" class="st1" width="8.4" height="1.6"/>
		<polygon class="st1" points="6.4,165.7 6.9,164.3 14.8,167.4 14.2,168.9 		"/>
		<polygon class="st1" points="175.1,166.4 182.9,163.3 183.5,164.7 175.7,167.9 		"/>
		<polygon class="st1" points="8,161.6 8.7,160.2 16.4,163.7 15.7,165.1 		"/>
		<polygon class="st1" points="173.5,162.8 181.1,159.2 181.8,160.7 174.1,164.2 		"/>
		<polygon class="st1" points="9.9,157.7 10.6,156.2 18.2,160 17.4,161.4 		"/>
		
			<rect x="171.5" y="157.1" transform="matrix(0.8868 -0.4621 0.4621 0.8868 -53.081 99.0735)" class="st1" width="8.4" height="1.6"/>
		
			<rect x="15.3" y="150.9" transform="matrix(0.4917 -0.8708 0.8708 0.4917 -126.9081 92.816)" class="st1" width="1.6" height="8.4"/>
		<polygon class="st1" points="169.7,155.6 176.9,151.4 177.7,152.8 170.5,157 		"/>
		
			<rect x="17.4" y="147.3" transform="matrix(0.5336 -0.8457 0.8457 0.5336 -119.6086 86.0632)" class="st1" width="1.6" height="8.4"/>
		<polygon class="st1" points="167.5,152.2 174.6,147.6 175.4,149 168.4,153.6 		"/>
		<polygon class="st1" points="16.7,146.2 17.6,144.9 24.5,149.7 23.6,151 		"/>
		
			<rect x="164.9" y="146.3" transform="matrix(0.8124 -0.5831 0.5831 0.8124 -54.0532 126.2006)" class="st1" width="8.4" height="1.6"/>
		<polygon class="st1" points="19.3,142.6 20.2,141.3 26.9,146.5 25.9,147.7 		"/>
		
			<rect x="162.3" y="142.9" transform="matrix(0.7838 -0.621 0.621 0.7838 -53.2402 134.4906)" class="st1" width="8.4" height="1.6"/>
		<polygon class="st1" points="22,139.1 23.1,137.9 29.5,143.4 28.4,144.6 		"/>
		
			<rect x="159.6" y="139.7" transform="matrix(0.7539 -0.6569 0.6569 0.7539 -51.9519 142.1882)" class="st1" width="8.4" height="1.6"/>
		
			<rect x="27.8" y="133.9" transform="matrix(0.687 -0.7266 0.7266 0.687 -91.3862 63.9667)" class="st1" width="1.6" height="8.4"/>
		
			<rect x="156.8" y="136.5" transform="matrix(0.7223 -0.6916 0.6916 0.7223 -50.2546 149.4651)" class="st1" width="8.4" height="1.6"/>
		
			<rect x="30.7" y="130.8" transform="matrix(0.7117 -0.7025 0.7025 0.7117 -85.7768 61.0842)" class="st1" width="1.6" height="8.4"/>
		<polygon class="st1" points="154.5,136.8 160.3,130.7 161.5,131.8 155.7,137.9 		"/>
		
			<rect x="33.8" y="127.9" transform="matrix(0.7459 -0.6661 0.6661 0.7459 -79.2199 56.6412)" class="st1" width="1.6" height="8.4"/>
		<polygon class="st1" points="151.5,134.1 157,127.7 158.2,128.8 152.7,135.2 		"/>
		<polygon class="st1" points="34.6,126.6 35.8,125.6 41.1,132.2 39.9,133.2 		"/>
		<rect x="147.4" y="128" transform="matrix(0.6258 -0.78 0.78 0.6258 -43.6807 166.4232)" class="st1" width="8.4" height="1.6"/>
		<polygon class="st1" points="38.1,123.9 39.3,123 44.3,129.7 43.1,130.7 		"/>
		
			<rect x="144" y="125.4" transform="matrix(0.5887 -0.8084 0.8084 0.5887 -41.0312 171.7257)" class="st1" width="8.4" height="1.6"/>
		
			<rect x="43.9" y="120.2" transform="matrix(0.8323 -0.5544 0.5544 0.8323 -61.4575 45.6264)" class="st1" width="1.6" height="8.4"/>
		
			<rect x="140.5" y="123" transform="matrix(0.5491 -0.8358 0.8358 0.5491 -38.1953 176.7829)" class="st1" width="8.4" height="1.6"/>
		
			<rect x="47.5" y="117.9" transform="matrix(0.8577 -0.5141 0.5141 0.8577 -55.9043 42.1751)" class="st1" width="1.6" height="8.4"/>
		<polygon class="st1" points="138.3,124.8 142.6,117.5 143.9,118.3 139.7,125.6 		"/>
		
			<rect x="51.1" y="115.8" transform="matrix(0.8816 -0.4721 0.4721 0.8816 -50.4977 38.7274)" class="st1" width="1.6" height="8.4"/>
		<polygon class="st1" points="134.8,122.9 138.7,115.4 140.1,116.1 136.2,123.6 		"/>
		<polygon class="st1" points="53.2,114.6 54.6,113.9 58.2,121.5 56.8,122.2 		"/>
		<polygon class="st1" points="131.1,121.1 134.7,113.5 136.1,114.1 132.6,121.8 		"/>
		
			<rect x="58.8" y="112.1" transform="matrix(0.9179 -0.3968 0.3968 0.9179 -41.2672 33.1878)" class="st1" width="1.6" height="8.4"/>
		
			<rect x="125.5" y="115.1" transform="matrix(0.3788 -0.9255 0.9255 0.3788 -26.6671 192.0876)" class="st1" width="8.4" height="1.6"/>
		<polygon class="st1" points="61.3,111.1 62.8,110.5 65.7,118.4 64.2,119 		"/>
		<polygon class="st1" points="123.6,118.1 126.5,110.2 127.9,110.7 125.1,118.6 		"/>
		<polygon class="st1" points="65.5,109.6 67,109.1 69.5,117.1 68,117.6 		"/>
		
			<rect x="117.6" y="112.3" transform="matrix(0.2856 -0.9584 0.9584 0.2856 -21.3492 197.4686)" class="st1" width="8.4" height="1.6"/>
		<polygon class="st1" points="69.7,108.3 71.2,107.9 73.4,116 71.9,116.4 		"/>
		
			<rect x="113.5" y="111.1" transform="matrix(0.2507 -0.9681 0.9681 0.2507 -20.155 197.7811)" class="st1" width="8.4" height="1.6"/>
		
			<rect x="74.9" y="107" transform="matrix(0.9776 -0.2103 0.2103 0.9776 -21.6881 18.4056)" class="st1" width="1.6" height="8.4"/>
		<polygon class="st1" points="111.9,114.9 113.6,106.7 115.2,107 113.5,115.2 		"/>
		
			<rect x="79.1" y="106.2" transform="matrix(0.9852 -0.1712 0.1712 0.9852 -17.7122 15.2971)" class="st1" width="1.6" height="8.4"/>
		
			<rect x="105.2" y="109.4" transform="matrix(0.1536 -0.9881 0.9881 0.1536 -16.3052 201.3719)" class="st1" width="8.4" height="1.6"/>
		
			<rect x="83.3" y="105.5" transform="matrix(0.9925 -0.1223 0.1223 0.9925 -12.7928 11.1033)" class="st1" width="1.6" height="8.4"/>
		<polygon class="st1" points="103.9,113.7 104.9,105.4 106.5,105.6 105.5,113.9 		"/>
		<polygon class="st1" points="87.2,105.2 88.7,105.1 89.4,113.5 87.8,113.6 		"/>
		<polygon class="st1" points="99.9,113.4 100.5,105 102,105.1 101.5,113.5 		"/>
		
			<rect x="91.7" y="104.9" transform="matrix(0.9998 -2.220271e-02 2.220271e-02 0.9998 -2.4 2.0805)" class="st1" width="1.6" height="8.4"/>
		<polygon class="st1" points="95.9,113.3 97.5,113.3 97.6,104.9 96,104.9 		"/>
		<path class="st2" d="M80.4,203.1c0-0.2,0.9,0.5,1,0.3l2.2,3c0,0,3.5,1.9,4,1.6c0.6-0.3,1.1-1.2,1.4-1.3c0.4-0.1,0.9-0.6,1.3-0.7
			c0.5-0.1,1-1.1,1-1.1s1.5,0.4,1.6-0.6c0.1-0.9,0.1-3.2,0.1-3.2s1.2-0.7,1.5-2.5c0.4,0,2.4-0.2,2.4-0.2c1.7-0.5,1.4-2.4,1.1-3.3
			c-0.3-0.9-2.3-2.1-2.3-2.1c0.9-1.3-0.1-2.1-0.1-2.1c-0.3-1-1.2-1.3-1.9-1.5l-0.9-0.1l-4.1-2.3l-7.2-0.3l-6.6,8.7l-2.2-1v-5.9
			l2.8-7.7l3-2.9l3.1,2.5l9.9,0.3c0,0,3.6,0.3,4.1-0.5c0.9-1.5,2.2-3.4,2.2-3.4l0.1,0.2c0.3,0.2,0.5,0.4,0.5,0.4s0.9,0.1,1.2,0.2
			c-0.1-0.2,0.3-0.6,1.3-1.4c1.2-0.9,0.2-1.8,0.5-2.7c0.3-0.9-0.6-1.8-0.6-1.8l7.9,2.4l0.1,0.1c-0.5,0.8-0.5,2-1,2.2
			c-0.6,0.3,0.2,1.8,0,2.6c-0.2,0.8,0.5,1.3,0.5,1.3l0.4,0c0,0.9,0,1.9,0.2,3c0,0,0.2,1.8,1.3,3.1h0l-0.2,0.1c0,0-0.4,1.3-0.9,1.7
			c-0.5,0.3-2.8,3.3-2.3,5.3c0.4,2,1.4,5.3,1.4,5.3l0.9-0.1l0,0.3c0,0-0.7,2.2-1.2,2.7c-0.3,0.3-1.8,1.2-3.1,5.1l-0.1,0
			c0,0-1.5-1.2-3.4,0.5c-1.3,1.2-1.6,1.5-1.6,1.5c0,0,0,0,0,0l0,0l0,0c0,0,0,0,0,0c-1.3,1.8-1.2,1.6-1.4,2.1c-0.1,0.4-0.8,3-0.7,3.3
			c0,0.4-0.1,1.2-0.3,1.3c-0.2,0.1-1.3,0.9-1.4,0.7c-0.1-0.2-1.1-1.5-1.5-1.6c-0.4-0.1-1.1-0.2-0.8,0.4c0.3,0.6-1.7,0.3-0.3,1.5
			l1.3,1.2c0,0,1.2,1.1,2,1.2c0.8,0.2,2,0.1,2.7-0.9l0.2,0c-0.1,0.7-0.3,1.5-0.4,1.7c-0.3,0.5-0.8,2.2-0.6,2.4c0,0,0.5,1.6,1.4,0.5
			l0.9-1.2l0.9-1.5l0.1,0c-0.7,2.3-1.5,4.7-1.9,5.6c-0.9,2-2.1,3.5-2.1,4.9c0,1.1-0.2,2.4,0.4,3.5h0l-0.1,0
			c-2.7-1.5-4.4,0.6-7.2,1.6c-2.8,0.9-5.8,1-5.8,1l0-0.3c-2.5-0.3-5.5-3.8-5.5-3.8l-4.8-4.7c1.4-6.6,4.3-7,4.3-7l-0.1,0
			c1.4-3.6,2.4-9.5,2.8-11.2c0,0-0.3-1.7-0.2-2.3"/>
		<path class="st3" d="M82.6,186.4c0,0-1.1,0.4-1.6,0.8c-0.5,0.4-2.3,1.8-2.7,2c-0.4,0.2-3.3,2.9-3.5,3.2c-0.2,0.3-0.4,1.5-0.2,1.9
			c0.2,0.4,1.5,3.9,1.6,4.2c0.1,0.3,1.3,0.6,1.4,1.1c0.2,0.5,0.3,1.4,2.1,2.3l-0.4,2.9l1-0.8c0,0,4.3,0.2,4.7-0.6
			c0.5-0.8,1.9-2.3,3.1-2.8c1.1-0.5,3.7-2.3,4.5-2.6c0.8-0.3,2.4,0.8,2.9,0.8c0.5,0,4.3-0.8,2.7-3c-1.6-2.2-2.4-3.3-2.3-3.8
			c0.2-0.5-0.7-2.4-3-2.6c-2.3-0.2-3.4-2-3.4-2L82.6,186.4z"/>
		<path class="st3" d="M125.8,170.7c0,0-4-1.6-5-1.8c-1.1-0.2-5.8,0.8-7.2,1.6c-1.5,0.8-2.3,1.4-2.5,2.1c-0.2,0.6-2.3,1.2-2.3,1.8
			c0,0.5-0.8,2.2-0.9,2.7c-0.1,0.5-0.1,2.6,0.3,3c0.4,0.4,0.2,2.5,0.6,3c0.3,0.5,1.1,3.3,2.5,4.3c1.5,1,3.5,1.5,3.8,2.1
			c0.3,0.5,1.7,3.7,2.4,3.3c0.7-0.4,1.2-1.3,2.1-0.9c0.9,0.5,3.1,1,4.5-0.3c1.4-1.3,2.8-4.3,4.4-5c1.6-0.8,3.4-2.1,4.3-4.3
			c0.8-2.1,1.9-5.7,1.3-7.8c-0.6-2.1-2.6-3-3.5-3C129.7,171.3,125.8,170.7,125.8,170.7"/>
		<path class="st2" d="M128.7,227.9c0,0,1.5-24.1,17.3-42.9l0-0.1c1.9,0.4,3.9,0.2,5.8-1.1l-0.1-0.1c-21.2-5.7-7.4-19.6-5.2-21.7
			l0.1-0.3c1.5,0.7,3.2-0.7,8.8,2.3c0.4,0.2,3-1.5,4-1.5c1.7,0,5.6,3.9,6.2,4.7c0.3,0.5,0.5,2.4-0.1,3.7c-0.6,1.4-1.9,2.2-1.6,2.8
			c1.6,3.4,2.5,6.8,3.3,12.7c0,0,0.9,5.1,1.2,10.9c0.2,4.3-0.2,8.9-0.1,12.3c0.2,5.7-4.3,16-4.3,22.1c0,1.9,1,9.8,3.7,10.5
			c0,0-9.2,1-13.2,0.9c-1.7-0.1-1.9,0-3.7-0.1c-6.4-0.3-13-0.6-13.4-0.9l-0.3,0.1c-0.3-1.3-0.7-3.7,0-5c0.9-1.9,11.2-16.2,10.5-26.3
			l-0.1-0.1h0c-0.5,0.4-1,0.8-1.4,1.4c-1.6,2.2-8.1,7.6-12.4,11.1c-1.4,1.2-2.6,2.1-3.3,2.6C130,226,128.7,227.9,128.7,227.9"/>
		<path class="st3" d="M128.3,245.7c0.2-0.8,0.6-1.5,0.8-2c0.3-0.7,1-3.2,1-4.2c0-1,0.7-2.9,1.8-5.4c1-2.5,1.9-10.9,1.9-10.9
			l-0.2-0.2c4.3-3.5,10.8-8.8,12.4-11.1c0.4-0.6,0.9-1,1.4-1.4h0l0.1,0.1c0.7,10.1-9.6,24.4-10.5,26.3c-0.7,1.3-0.3,3.7,0,5
			c0.1,0.5,0.2,0.9,0.2,0.9s2,2.9,2,3.7c0,0.8-1.2,1.9-1.6,2.2c-0.4,0.3-1.4,0.7-1.9,1c-0.5,0.3-1.3,0.2-2,0.2c-0.7,0-2-0.5-2-0.5
			s-1.5,0.3-2.4,0.2c-1-0.1-1-1.2-1.2-2.5C128.1,246.7,128.2,246.2,128.3,245.7"/>
		<path class="st2" d="M119,168.3c0,0,1.5-1.9,3.7-2.9c0.5-0.2,1.1-0.4,1.7-0.5c2.5-1.5,7.2-3.6,11.6-3.5c1.8-0.3,4.8-0.4,6.4-0.1
			l0,0.5l0,0c-5.5,2.3-8.4,11.2-8.4,11.5l-0.1,0c-0.4-1.5-1-1.7-2.3-2.1c-3.1-0.8-6.2-0.6-9.1-1.8l0,0.1c-0.8-0.3-1.6-0.7-1.8-0.8
			c-0.2-0.1-0.9-0.1-1.6,0L119,168.3L119,168.3z"/>
		<path class="st2" d="M133.9,173.4c0-0.3,2.9-9.2,8.4-11.5c1.1-0.5,2.3-0.7,3.6-0.5c0,0,0.3,0.1,0.8,0.3l-0.1,0.3
			c-2.2,2-16,16,5.2,21.7l0.1,0.1c-1.9,1.3-3.8,1.5-5.8,1.1c-6.1-1.3-11.7-8.7-11.7-8.7l-0.1,0C134.2,175.4,134.1,174.4,133.9,173.4
			L133.9,173.4z"/>
		<path class="st2" d="M115,210.8c1.3-2.7,2.1-5.3,1.9-7.4l2.8-6l-0.5-0.2c0.8-0.3,1.9-0.8,2.4-1.5c1.1-1.2,4.1-6.3,4.1-6.3l0,0
			c0.3-0.4,0.6-0.9,0.9-1.4c0,0-0.3-0.6,1.2-1.9l0.3-0.3l0.5-0.4l0.3-0.3c0,0,2.6,0.6,2.5,1.4c-0.1,0.8-1.4,5.4-1.5,6.4
			c-0.1,1-0.2,1.9,0.2,3.1c0.5,1.2,1.1,4.2,1,5.5c-0.1,1.3-0.7,4.8-1.2,6.7c-0.1,0.4-0.2,0.7-0.2,0.9l-0.1,0.1c0,0-1.8,0-4.8,0.2v0
			c-2.5,0.2-5.9,0.7-9.8,1.5L115,210.8z"/>
		<path class="st2" d="M123.7,230.4c-2.4-6.1,2-11.4,2.5-12.7c0.5-1.3,1.9-3.3,1.9-3.3l1.6-4.3l0.2-1.1c0.1-0.2,0.1-0.5,0.2-0.9
			c0.5-2,1.1-5.4,1.2-6.7c0.1-1.3-0.6-4.3-1-5.5c-0.5-1.2-0.3-2.1-0.2-3.1c0.1-1,1.4-5.6,1.5-6.4c0.1-0.8-3.4-0.4-3.4-0.4l-0.2-0.4
			l0.3-0.6l0.5-1.5c0.2-0.1,1.6-1,1.9-1.1c3-1.1,3.6-4.9,3.6-4.9s0-0.6,0-1.4l0.1,0c0,0,5.6,7.4,11.7,8.7l0,0.1
			c-15.8,18.8-17.3,42.9-17.3,42.9s1.3-1.9,1.6-2.2c0.7-0.5,1.9-1.5,3.3-2.6l0.2,0.2c0,0-0.8,8.4-1.9,10.9c-1,2.5-1.8,4.4-1.8,5.4
			c0,1-0.7,3.5-1,4.2c-0.2,0.4-0.6,1.2-0.8,2l1.5-4.4c0,0-2.7,1.1-3.6-2.5L123.7,230.4z"/>
		<polygon class="st3" points="124,252.5 98.5,259.9 98.4,257.8 98.4,257.8 98.5,256.1 124.1,248.9 		"/>
		<path class="st2" d="M106.8,193.4c-0.4-1.9,1.9-4.9,2.3-5.3c0.5-0.3,0.9-1.7,0.9-1.7l0.2-0.1h0c0.3,0.4,0.7,0.7,1.1,1l1.5,1.2
			c0,0,0.9,0.2,1.2,0.2c0.2,0,0.9,0.3,1.2,0.9c0.3,0.6,1,3.1,2.4,2.7l1-0.9c0,0,1.5,0.6,1.8,0.7c0.2,0.1,2.6,1.3,5.4-2.7l0,0
			c0,0-3.1,5-4.1,6.2c-0.6,0.6-1.6,1.1-2.4,1.5c-0.7,0.3-1.3,0.4-1.3,0.4l-8.7,1l-0.9,0.1C108.2,198.7,107.3,195.4,106.8,193.4"/>
		<path class="st2" d="M117.9,157L117.9,157c0.2-0.1,0.4-0.4,0.6-0.7c0.7-0.8,0.2-2.8,0.2-3.1c0-0.3,0.2-0.8,0.7-1.2
			c0.5-0.4,0.5-1.9,0.5-2.2c0-0.3,0.5-0.7,0.8-1c0.3-0.3-0.2-2-0.3-2.5c-0.1-0.4,0.1-0.8,0.2-1.3l0.3,0.1c0,0,6.1,2.1,9.9,8.5
			c0,0,1.4,2.5,1.4,3.7c0,0.4,0,0.6,0,0.6v0l-0.1,0.1c2.2,1.6,3.4,3,3.4,3l-1,0.3c-4.5,0.7-7.8,2-10.3,3.5c-0.6,0.1-1.2,0.3-1.7,0.5
			l-0.1-0.2C116.9,161.2,117.9,157.1,117.9,157L117.9,157L117.9,157z"/>
		<path class="st3" d="M113.3,237.2c-2-0.3-1.7-2.4-1.7-2.4s0.9-2.6,1-3.1c0.2-0.4,0.1-1.9,0-2.7c-0.1-0.8,0.8-2.8,1.6-4
			c0.8-1.1,0.6-4,0.6-4.6c0-0.7-0.1-7.8-0.1-7.8l-0.1-0.1h0c0.3-0.6,0.6-1.2,0.9-1.7l0.2,0.1c3.7-0.8,6.9-1.2,9.3-1.5l0,0.4
			c-0.6,7.1-2.2,9.6-2.2,9.6s-3.4,5.3-3.9,5.9c-0.5,0.7-0.4,2.6-0.4,3.1c0,0.5-0.3,1.6-0.3,1.6c-0.2,0.8,0.4,2.1,1,2.8
			c0.5,0.7,1.3,1.2,1.6,1.9c0.3,0.7-0.5,1.8-1.6,2.3C118.1,237.5,115.4,237.5,113.3,237.2"/>
		<path class="st3" d="M102.5,144.5c0-1,1-3.7,1.1-4.2c0.1-0.5,0.8-2.6,1.3-3.5c0.2-0.3,0.5-0.7,0.9-1.2c0.8-0.9,1.7-1.8,2-2.1
			c0.5-0.4,3.5-1.1,3.5-1.1s3.6-0.4,5.6,1.7c0,0,2.2,0.1,2.9,1.5c0.6,1.4,1.9,3.7,1.8,4.4c-0.1,0.7-0.5,1.4-0.5,1.8
			c0.1,0.4-0.1,2.5-0.4,3.1c0,0.1-0.1,0.1-0.1,0.2c-0.2,0.5-0.3,0.9-0.2,1.3c0.1,0.5,0.6,2.2,0.3,2.5c-0.3,0.3-0.8,0.7-0.8,1
			c0,0.3,0,1.8-0.5,2.2c-0.5,0.4-0.7,1-0.7,1.2c0,0.3,0.4,2.2-0.2,3.1c-0.2,0.3-0.4,0.5-0.6,0.7c-0.4,0.3-0.6,0.3-0.8,0.2
			c-0.2-0.2-0.6,0.6-0.6,0.6l-0.2,0.6c0,0-0.2,1.4-0.5,1.3c-0.3-0.1-0.8-1.6-0.8-1.6l0.6-3.3l0.4-4.1l0-0.2l3.2-5.2
			c0.1-0.4-0.3-2.3-0.7-2.6c-0.4-0.3-1.5-1.6-1.6-2.1c-0.1-0.5-0.4-2-0.4-2s-2.4,1.9-2.9,2.2c-0.5,0.3-2.2,0-2.7-0.1
			c-0.5,0-1.5,0.3-1.8,0.8c-0.3,0.5-1.2,2.2-1.4,2.5c-0.2,0.4-0.5,2.1-0.5,2.9c0,0.4-0.2,0.8-0.4,1.1c-0.2,0.3-0.4,0.6-0.5,0.9
			c-0.2,0.6,0.1,1.1,0.2,2.1c0.1,0.9-0.1,2.5-0.2,2.9c-0.1,0.5-0.9,0.5-1.1,0.4c-0.2,0-1.2,0.6-1.2,0.6s0.2-1.3,0.3-1.6
			c0.1-0.3-0.8-2.1-1-2.8C103.1,149.9,102.5,145.5,102.5,144.5"/>
		<path class="st3" d="M100.2,248.1l-0.9,0.2l0.9-6.4l0,0c0-0.1,0.6-0.9,0.8-1.9c0.2-1.1,1-3.8,1.8-5.1c0.8-1.3,2.4-1.4,2.4-1.4
			l0.2,1.7l1.6,11.6l-0.3,0.8l-3.1-7.9L100.2,248.1z"/>
		<path class="st3" d="M107.1,146.9c0-0.8,0.3-2.5,0.5-2.9c0.2-0.4,1.2-2,1.4-2.5c0.3-0.5,1.3-0.8,1.8-0.8c0.5,0,2.2,0.4,2.7,0.1
			c0.5-0.3,2.9-2.2,2.9-2.2s0.4,1.5,0.4,2c0.1,0.5,1.2,1.7,1.6,2.1c0.4,0.3,0.8,2.2,0.7,2.6l-3.2,5.2l0,0.2l-0.2,0
			c-2.6,2-5.7,1.9-5.7,1.9c-2-0.5-3.1-4.4-3.1-4.4l-0.2,0h0C106.9,147.7,107.1,147.3,107.1,146.9"/>
		<polygon class="st3" points="84.8,251.7 99.2,248.3 100.2,248.1 105.4,246.8 106.3,246.6 109.5,245.9 124.1,248.9 98.5,256.1 		
			"/>
		<path class="st3" d="M97.7,230.2c0-1.4,1.2-2.9,2.1-4.9c0.4-0.9,1.2-3.3,1.9-5.6c0.8-2.8,1.6-5.5,1.6-5.5c0.4-3.4,1-5.8,1.6-7.7
			c1.3-3.9,2.8-4.8,3.1-5.1c0.5-0.4,1.2-2.7,1.2-2.7l0-0.3l8.7-1c0,0,0.6-0.1,1.3-0.4l0.5,0.2l-2.8,6c0.2,2.1-0.6,4.7-1.9,7.4
			c-0.3,0.6-0.6,1.2-0.9,1.8c-3.2,5.8-7.8,11.3-8,12c-0.3,1.1-0.5,1.9,0.4,5.6c0.5,2.2-0.3,3.9-1,4.9l-0.2,0l-0.2-1.7
			c0,0-1.6,0.1-2.4,1.4c-0.8,1.3-1.6,4-1.8,5.1c-0.2,0.9-0.7,1.8-0.8,1.9l0,0c-1,0-0.9-1.4-0.9-1.4l-0.4-5.9
			c-0.3-0.2-0.6-0.5-0.7-0.8C97.5,232.7,97.7,231.3,97.7,230.2"/>
		<path class="st4" d="M99.8,208.6L99.8,208.6L99.8,208.6C99.8,208.6,99.8,208.6,99.8,208.6"/>
		<path class="st4" d="M99.8,208.6C99.8,208.6,99.8,208.6,99.8,208.6L99.8,208.6z"/>
		<path class="st3" d="M93.4,216.3c-1.4-1.2,0.6-0.9,0.3-1.5c-0.3-0.6,0.4-0.5,0.8-0.4c0.4,0.1,1.4,1.4,1.5,1.6
			c0.1,0.2,1.2-0.6,1.4-0.7c0.2-0.1,0.3-0.9,0.3-1.3c0-0.4,0.6-2.9,0.7-3.3c0.2-0.5,0.1-0.3,1.4-2.1c0,0,0,0,0,0h0
			c0,0,0.3-0.3,1.6-1.5c1.9-1.7,3.4-0.5,3.4-0.5l0.1,0c-0.6,1.8-1.2,4.3-1.6,7.7c0,0-0.8,2.7-1.6,5.5l-0.1,0l-0.9,1.5l-0.9,1.2
			c-0.9,1.2-1.4-0.5-1.4-0.5c-0.2-0.3,0.3-2,0.6-2.4c0.1-0.2,0.3-1,0.4-1.7l-0.2,0c-0.6,1-1.9,1.1-2.7,0.9c-0.8-0.2-2-1.2-2-1.2
			L93.4,216.3z"/>
		<path class="st4" d="M99.8,208.6C99.8,208.6,99.8,208.6,99.8,208.6L99.8,208.6z"/>
		<path class="st2" d="M100.9,171.7c0,0,0.1-0.7,0.2-1.1c0-0.3-0.9-1.1-1.1-1.2c-0.1-0.1,0.1-0.5-0.1-1c-0.2-0.5-0.5-1.7-0.5-1.7
			c0-0.1,0-0.3-0.1-0.4l0,0c0,0,2-3.3,2.2-3.5c0,0,2.8-4.2,0-11.3c-0.4-1.1-2.1,1-2.2,1.1l0,0c0.4-0.6,0.6-1.5,0-2.8
			c-1-2.2-4.8-3.9-6.1-4.5c-0.4-0.2-0.8-0.2-1.1-0.1l-0.1-0.4c0,0-1.4-2.5,0.9-5.3c2.3-2.7,3.1-3.1,4-3.2c1-0.1,2.7-0.3,2.7-0.3
			s3.2-2.3,6.3-0.3v0c-0.4,0.5-0.7,0.9-0.9,1.2c-0.5,0.9-1.2,3-1.3,3.5c-0.1,0.5-1.1,3.3-1.1,4.2c0,1,0.6,5.4,0.8,6
			c0.2,0.6,1,2.4,1,2.8c-0.1,0.3-0.3,1.6-0.3,1.6s1-0.6,1.2-0.6c0.2,0,1,0,1.1-0.4c0.1-0.5,0.3-2,0.2-2.9c-0.1-0.9-0.4-1.5-0.2-2.1
			c0.1-0.3,0.3-0.6,0.5-0.9l0.2,0c0,0,1.1,3.9,3.1,4.4c0,0,3.2,0.1,5.7-1.9l0.2,0l-0.4,4.1L115,158c0,0,0.5,1.5,0.8,1.6
			c0.3,0.1,0.6-1.4,0.6-1.4l0.2-0.6c0,0.1,0.4-0.6,0.5-0.3c0.1,0.2,0.4,0.1,0.8-0.2l0,0c0,0-1,4.2,4.7,8.2l0.1,0.2
			c-2.2,1-3.7,2.9-3.7,2.9l0,0.4c-0.6,0.1-1.1,0.1-1.3,0.2c-0.5,0.1-2.1,0.8-2.5,0.8c-0.4,0-1.6,0.9-2.8,1.3c-1.2,0.4-0.6,2-2.3,2.3
			c-0.6,0.1-0.9,0.5-1.2,0.9"/>
		<path class="st3" d="M86.4,164.7c0.2-1.3,1.2-3.1,1.8-3.3c0.6-0.2,2-1.2,4.7-0.5c0,0,1,0.9,1.2,1.1c0.2,0.1,1.1,0.4,1.7,0.9
			c0.6,0.5,0.6,1,0.7,1.1c0,0.2,0.7,1.2,0.8,1.3c0.1,0.1,0.7,1.9,0.7,2.2c0,0.3,0.3,1.7,0.3,1.9c0,0.2,0.5,2,0,2.4
			c-0.6,0.5,0.1,4.8-0.5,5.1c-0.8,1.1-1.4,2.9-2.5,3.3c-2.8,0.8-6.3,0-6.3,0l0.6-5.9c-0.1-0.4-0.3-0.9-0.4-1.2
			c-0.6-1.3-0.8-2.7-0.8-3.4c0-0.7-0.4-1.8-0.9-2.5C86.9,166.7,86.2,166,86.4,164.7"/>
		<path class="st3" d="M82.3,205.4l-1.3,0.4l-0.9-2.5c0.4-0.7,3.5-0.2,3.8-0.5c0.4-0.3,1.3,0.1,1.4-0.3c0.1-0.5,0.7-0.3,1.2-0.8
			c0.6-0.4,0.7-0.9,1.1-0.9c0.4-0.1,1-0.6,1.1-0.9c0.1-0.3,0.9-0.4,1.4-0.6c0.5-0.2,2.1-1.2,2.6-1.5c0.5-0.3,0.9-0.3,1.4-0.2
			c0.5,0.1,0.6,1,0.6,1c-0.3,1.7-1.5,2.5-1.5,2.5s0,2.3-0.1,3.2c-0.1,0.9-1.6,0.6-1.6,0.6s-0.5,1.1-1,1.1c-0.5,0.1-1,0.6-1.3,0.6
			c-0.4,0.1-1,0.6-1.6,0.9c-0.6,0.3-3.2-0.7-3.2-0.7L82.3,205.4z"/>
		<path class="st3" d="M85,153.1c-1.1,0-1.6-0.6-1.7-0.9c-0.1-0.3,1.4-0.9,1.4-0.9s1.7-1,3.3-1.1c0.3,0,0.5,0,0.8-0.1
			c1.2-0.1,2-0.2,3.1,0.5l1.3,0.8l0.3,0h0c-0.2-0.3-0.3-0.6-0.4-0.6c-0.1-0.2-0.2-0.5,0.1-0.9c0.3-0.4,0.9-0.1,1,0
			c0.1,0.1,0.5,0.6,1,1c0.5,0.4,0.5,0,0.9,2.1c0.1,0.4,0.1,0.8,0.1,1c-0.1,1-1.3,1-2.7,1.7c-1.8,0.9-3.6-0.1-3.6-0.1
			s-2.8-2.6-2.9-2.9c-0.2-0.3-0.5-0.2-0.7,0C85.9,153,86,153,85,153.1"/>
		<path class="st2" d="M88.7,149.9c0,0,0-2.7,0.8-3.3c0.5-0.5,1.5-1.2,2.5-1.4c0.4-0.1,0.8-0.1,1.2,0.1c1.3,0.5,5.1,2.3,6.1,4.5
			c0.6,1.4,0.4,2.3,0,2.8c-0.2,0.3-0.5,0.6-0.8,0.7c-0.7,0.4-2.3,0.7-2.3,0.7l0,0c0-0.3,0-0.6-0.1-1c-0.5-2-0.4-1.6-0.9-2.1
			c-0.5-0.4-0.9-0.9-1-1c-0.1-0.1-0.8-0.4-1,0c-0.3,0.4-0.1,0.7-0.1,0.9c0,0.1,0.2,0.3,0.4,0.6h0l-0.3,0l-1.3-0.8
			c-1.1-0.7-1.9-0.6-3.1-0.5L88.7,149.9L88.7,149.9z"/>
		<polygon class="st3" points="84.8,251.7 98.5,256.1 98.4,257.8 98.4,258.3 98.5,258.7 98.4,259.8 84.7,255.3 84.8,251.7 		"/>
		<path class="st3" d="M85.1,180.9c-0.7-0.5-3.4,0.2-3.7-0.7c-0.3-0.8-0.8-1-2.6-2.3c-1.8-1.3,0.2-2.9,0.6-3
			c0.5-0.1,0.3-0.4,0.3-0.4c0-0.2,0.4-0.7,1.1-1.4c0.7-0.6,0.4-0.5,0.5-2.4c0.1-1.9,1-2.3,1-2.3c-0.4-2.1,0.7-3.8,0.7-3.8
			c0-1.3,2-2.5,2-2.5c1.1-2.3,3.2-1.4,3.2-1.4c1.1-0.5,1.8-0.8,1.8-0.8s1,0.1,1.4-0.1c0.4-0.2,1.3-0.3,1.8-0.2c0,0,0.8,0,1.3,0.8
			c0,0,1.2,0.1,1.3,0.7c0.2,0.6,1.6,0.3,1.4,1.8c0,0,0.8,1.2,0.9,1.8c0,0.6,1,0.4,1.3,1.5c0,0.1,0.1,0.3,0.1,0.4
			c0,0,0.2,1.2,0.5,1.7c0.2,0.5,0,0.9,0.1,1c0.1,0.1,1.1,0.8,1.1,1.2c0,0.3-0.2,1.1-0.2,1.1s0.9,0.9,0.6,1.8
			c-0.3,0.9,0.7,1.8-0.5,2.7c-1.1,0.8-1.4,1.2-1.3,1.4c-0.3-0.2-1.3-0.5-1.3-0.5s-0.4-0.1-0.7-0.3c-0.3-0.2-0.6-0.5-0.6-0.6
			c-0.1-0.2-0.5-0.3-0.4-2.6l-0.2-0.3c0.6-0.3,1.3-0.7,1.9-1.2c0.5-0.5,0-2.2,0-2.4c0-0.2-0.3-1.6-0.3-1.9c0-0.2-0.3-1.2-0.5-1.8
			c-0.1-0.2-0.2-0.4-0.2-0.5c-0.1-0.1-0.8-1.1-0.8-1.3s-0.1-0.7-0.7-1.1c-0.6-0.5-1.5-0.8-1.7-0.9c-0.2-0.2-1.2-1.1-1.2-1.1
			c-2.7-0.6-4.1,0.3-4.7,0.5c-0.6,0.2-1.6,2-1.8,3.3c-0.2,1.3,0.5,1.9,1,2.6c0.5,0.6,0.9,1.7,0.9,2.5c0,0.7,0.2,2.1,0.8,3.4
			c0.2,0.4,0.3,0.8,0.4,1.2c0.3,1.1,0.4,2.3,0.2,2.7c-0.3,0.6-0.4,1.9-0.4,2.6c0,0.7-1.2,1.3-1.3,1.4
			C87.9,181.1,85.8,181.4,85.1,180.9"/>
		<path class="st3" d="M61.1,144.2c-0.5-1.2,1.9-2.6,1.9-2.7c-0.1-1.5,1.9-1.4,1.9-1.4c0.1-1.2,2.6-0.9,2.6-0.9
			c1.2-1.4,1.2-1.5,1.2-1.5c1.3-0.7,5.9-0.2,5.9-0.2c3.3-0.5,3.5,0.8,3.5,0.8c2.3,0.2,3.1,1.1,3.1,1.1c0.7-0.6,1.6,0.4,1.6,0.4
			c2.1,0.5,2.3,2.2,2.3,2.2c2.5,0.7,1.3,2.3,1.3,2.3c1.4,1.3,0.1,2,0,2.3c-0.1,0.3-0.1,0.9-1.3,1.1c-0.4,0.1-0.9-0.1-1.4-0.3
			c-1-0.5-2.1-1.3-2.7-1.5c-0.9-0.2-0.7-0.6-0.7-0.6c-0.6-0.1-0.5,0.4-0.8-0.4l-0.4-0.1c0,0,0.1,1.5-0.5,2.1
			c-0.6,0.6-0.9,0.6-1.3,0.6c-0.4,0-1.3,0.9-1.9,1.2c-0.6,0.3-0.9,0.4-1.2,0.5c-0.3,0-1,1.5-1.7,0.9c0,0-0.6-0.7-1-0.2
			c-0.5,0.5-1.6,0.8-2.4,0.4c-0.8-0.4-1.9-0.6-2.2-1.2c-0.2-0.4-1.3-0.8-2.1-1.3l-0.2,0.1c-0.5-1-1.2-1.9-2.3-2.7
			c-0.5-0.4-1-0.7-1.5-0.9L61.1,144.2L61.1,144.2z"/>
		<path class="st3" d="M67.7,169.7c0-1.3,0.6-2.5,0.9-3c0.5-0.9,2.1-1.1,2.1-1.1l1.5,0.4l1.5,0.4l0.9-0.1c0,0,2.2,0.3,2.5,0.4
			c0.3,0,2.3,0.4,2.3,0.4c0.2,0.6-1,1-1,1l-2.2,0.4l0.7,1.1c0.7,1.1-0.8,2-0.8,2c0.4,2.1-0.9,2.7-0.9,2.7c-2,1.4-4,0.2-5.4-0.6
			c-0.4-0.2-0.7-0.4-1-0.5C67.4,172.3,67.8,171,67.7,169.7"/>
		<path class="st2" d="M68.6,221.1L68.6,221.1c1.3-0.1,2.9-0.5,4.8-1.7c0,0,1.3-0.9,2.4-2.6h0l0.1,0.1c4.6-0.6,5.5-6.2,5.7-8
			l-0.4,2.6c0,0-1,3.9-0.9,3.7c-0.5,1.7-0.2,1.8-1.6,5.4c-0.4,1-1.9,4.6-2.2,5.1l-4.4,4.6l-0.4-0.4c-0.9-2.7-0.8-2.3-0.9-3.2
			c-0.2-1.4-2.1-5.3-2.1-5.3L68.6,221.1z"/>
		<path class="st2" d="M59.8,169.1c-0.5-0.8-0.1-2.4-0.1-2.4l-0.2-0.3l2.7-1.4c0,0,4.1-1.4,6.3-2.4h0l0.7,0.2c0,0,2.7,1.9,3,2.9v0
			l-0.1,0.2l-1.5-0.4c0,0-1.8,0.6-2.1,1.1c-0.4,0.5-0.9,1.7-0.9,3c0,1.3-0.4,2.7,1.1,3.2c0.3,0.1,0.6,0.3,1,0.5l-0.1,0.1
			c0,0-3.9-0.1-4.3-0.2C61.2,173.1,59.8,169.1,59.8,169.1"/>
		<path class="st3" d="M63.7,156.5c0.6-0.9,1.1-1.9,1.5-3c0.5-1.7,0.5-3.7-0.4-5.5l0.2-0.1c0.8,0.5,1.9,0.9,2.1,1.3
			c0.2,0.7,1.4,0.8,2.2,1.2c0.8,0.4,1.9,0.1,2.4-0.4c0.5-0.5,1,0.2,1,0.2c0.7,0.6,1.4-0.9,1.8-0.9c0.3,0,0.6-0.1,1.2-0.5
			c0.6-0.3,1.5-1.2,1.9-1.2c0.4,0,0.6,0,1.3-0.6c0.6-0.6,0.5-2.1,0.5-2.1l0.5-0.3c0,0,0.3,0.7,0.9,0.8c0,0-0.3,0.4,0.5,0.6
			c0.6,0.2,1.6,1,2.7,1.5l-0.1,0.1c0,0-0.3,0.3-0.5,0.9c-0.2,0.7-1.6,3.8-1.9,5.3c-0.3,1.5-1.3,0.3-1.3,0.3c0,0-0.5,0.5-0.7,0.7
			c-0.3,0.2-1.1,0.2-1.1,0.2s-0.4,0.6-0.7,0.6c-0.2,0-0.7,0.5-0.7,0.8c0,0.3,0,0.6-0.7,0.7c-0.6,0.1-2.4-0.8-2.4-0.8l-2.6-1.4
			l-0.4-0.2l-6.7,1.7L63.7,156.5z"/>
		<path class="st2" d="M40.7,208.2c-0.9-0.7-0.5-1.6-0.6-4.1c-0.1-2.5,4.1-3.4,5.2-3.5c1.1-0.1,5.6-1.2,5.6-1.2l4.3-1.8l0.1,0
			c0.1,0.1,0.2,0.2,0.3,0.3c0.5,0.4,1,1,1.4,1.4c0.5,0.4,1.3,0.3,1.8,0.2c0.5,0,1.3-0.7,1.3-0.7c0.4-0.2,0.3-0.8,0.4-1.3
			c0-0.5,0.2-1.6,0.3-2c0.1-0.3,0.4-1.2,0.5-1.4v0c0.3-0.4,1.1-0.6,1.3-0.7c0.2-0.1,0.5-0.4,0.8-0.5c0.2,0,1,0.4,1,0.4
			s1.2,0.4,2.6-0.1c0.6-0.2,0.7-0.4,0.6-0.6l0,0c0,0,4.9,1.3,7.1,2.8c0,0,0.1,0,0.1,0.1v0l-0.1,0.1c0,0,1.5,0.6,2,2.8
			c0.1,0.4,0.4,0.5,0.7,0.9c0.4,0.4,0,0.4,0.4,0.8c0.6,0.7,1.3,1.2,1.7,1.8c0.4,0.6,0.7,1.6,0.8,1.8l0.1,0c0.4,1.5,0.8,3.5,0.8,3.5
			l0.4,1.8v0c-0.2,1.8-1,7.4-5.7,8l-0.1-0.1h0c-1.1,1.7-2.4,2.6-2.4,2.6c-1.9,1.2-3.5,1.6-4.8,1.7v0c-2.9,0.1-4.3-1.6-4.3-1.6
			l-0.5-0.1c0.6-1.3,1.6-3.4,1.6-4.2c0,0,3.2-0.4,3.3-2c0.1-1.5,1.2-3.9-8.1-7.3c0,0-2.8,1.9-4.1,4.7c-0.7,1.4-1.4,3.1-1.9,5.1
			l-0.3-0.1c-2.1-1.2-6.6-5.9-8.6-8v0l-0.1,0.1c0,0-1.7,0.8-3.2,1.8l-0.1-0.1C42.4,209.4,41.6,208.9,40.7,208.2"/>
		<path class="st3" d="M54,222.2c-0.1-2.5,0.2-4.6,0.7-6.6c0.5-2,1.2-3.6,1.9-5.1c1.4-2.8,4.1-4.7,4.1-4.7c9.3,3.4,8.2,5.7,8.1,7.3
			c-0.1,1.6-3.3,2-3.3,2c-0.1,0.9-1,3-1.6,4.2c-0.3,0.6-0.5,1.1-0.5,1.1l-1.3,2.7c0,0-1.8,4.4-2,5.2c-0.1,0.9,1.4,1.1,2,1.2
			c0.6,0.1,2.3,1.2,2.5,1.4c0.2,0.2,1.3,1.2,1.4,1.4c0.1,0.3,0.5,0.6,0.5,0.6c0.4,0.2,1.3,0.8,1.3,0.8s2,2.4,2.1,2.6
			c0.2,0.2,0.4,0.6,0.2,0.8c-0.1,0.2-0.6,0.2-0.6,0.2l-2.6-1.7l-1.9-0.7c0.9,0.7,1.8,2.5,1.8,2.5s0.6,1.5,0.9,2.2
			c0.3,0.7-0.1,0.9-0.5,1.1c-0.4,0.2-0.9-0.5-0.9-0.5l-1.1-1.8l-2.1-2.8l0.4,1.3l0.4,1.1l0.5,1.9c0,0,0.4,1.3,0.5,1.6
			c0.1,0.3-0.1,0.5-0.3,0.7c-0.2,0.2-0.8-0.1-0.8-0.1l-2.1-4.4c0,0,0,0.5-0.1,1c0,0.6-1.3,1.1-1.5,1.1c-0.2,0-0.6,0.2-0.9,0.5
			c-0.3,0.3-0.5,0.1-0.5,0.1c-0.5-0.3-0.2-1-0.2-1.1c0.1-0.1,0.8-0.5,1-0.7c0.2-0.2-0.2-1.1-0.3-1.4c-0.1-0.3-1.4-1.1-1.5-1.2
			c-0.2-0.1-1.6-1.3-1.6-1.3c-1.2-1-1.7-3.5-1.9-6.5C54.1,226.2,54,224.2,54,222.2"/>
		<path class="st2" d="M55.9,168.2c-0.2-0.7,0.1-0.8,0.1-0.8c1.6-1.4,2.3-4.8,2.9-6.3c0.5-1.5,1.5-1.7,2.5-2.2
			c0.6-0.3,1.6-1.2,2.4-2.4l0.4,0.2l6.7-1.7l0.4,0.2l-0.1,0.1c0,0,0.3,2.5-1.1,4.1h0l0.2,0.1c0,0,0,1.7-0.1,2.3
			c0,0.2-0.6,0.5-1.4,0.8c-2.2,1-6.3,2.4-6.3,2.4l-2.7,1.4l-3.5,1.8L55.9,168.2z"/>
		<path class="st3" d="M41,155.8c-2.2-2.7-0.5-5.1,2.6-8.5c2.7-3,11.1-3.9,12.9-4l0-0.1c0.8,0,2.7,0.2,4.5,1.1
			c0.5,0.2,1,0.6,1.5,0.9c1,0.8,1.8,1.7,2.3,2.7c0.9,1.8,0.9,3.8,0.4,5.5c-0.3,1.1-0.9,2.1-1.5,3c-0.9,1.2-1.8,2.1-2.4,2.4
			c-1,0.5-2,0.7-2.5,2.2c-0.5,1.5-1.3,4.9-2.8,6.3c0,0-0.3,0.1-0.1,0.8c0,0.2,0.1,0.4,0.3,0.8c0.6,1.4,2.6,5.2,2.5,8.1
			c0,2.9,0.5,5.7,1.2,7.9c0.7,2.2,2,4.9,2.6,5c0.5,0,1.6,0.4,2,0.8c0.4,0.4,1.9,1.1,2.3,1.2c0.2,0.1,0.8,0.4,0.9,0.7
			c0.1,0.2,0,0.4-0.6,0.6c-1.4,0.5-2.6,0.1-2.6,0.1s-0.7-0.4-1-0.4c-0.2,0-0.6,0.3-0.8,0.5c-0.2,0.1-1,0.3-1.3,0.7v0
			c-0.1,0.2-0.4,1.1-0.5,1.4c-0.1,0.3-0.3,1.5-0.3,2c0,0.5,0,1.1-0.4,1.3c0,0-0.9,0.6-1.3,0.7c-0.5,0-1.3,0.1-1.8-0.2
			c-0.5-0.4-1-1-1.4-1.4c-0.1-0.1-0.2-0.2-0.3-0.3c-0.4-0.5-0.7-1.4-0.6-2.6c0.2-1.5,1.1-2.7,1.1-3c0-0.3-1.6-4.7-1.6-4.7
			s-2.5-3.4-3-4.3c-0.3-0.6-1.8-2.2-2.7-5.9c-0.3-1.3-0.6-2.8-0.8-4.6c0,0-0.4-1-0.3-3c0-0.4,0.1-0.9,0.1-1.4
			c0.4-2.8,0.2-6.4,0.3-7.1c0-0.2,0-0.5,0.1-0.9l-0.3,0C45.5,160.9,43.1,158.6,41,155.8"/>
		<path class="st2" d="M31.2,207.6c-0.1-0.3,0.2-1.5,0.5-2.9c0.5-2.3,1.2-5.4,1.2-6.3c0-1.6-1.3-8.4-1.3-13c0-4.6,2.8-7.5,2.8-7.5
			l0-0.1c7.2,0.4,14-0.6,14-0.6l0.1,0c1,3.7,2.4,5.3,2.7,5.9c0.4,0.9,3,4.3,3,4.3s1.7,4.4,1.6,4.7c0,0.4-0.9,1.5-1.1,3
			c-0.2,1.2,0.2,2.1,0.6,2.6l0,0l-4.3,1.8c0,0-4.5,1.1-5.6,1.2c-1.1,0.1-5.4,1-5.2,3.5c0.1,2.5-0.3,3.4,0.6,4.1
			c0.9,0.7,1.7,1.1,1.7,1.1l0.1,0.1c-0.8,0.5-1.5,1-1.9,1.5c-1.1,1.3-2,2.7-2.3,4l-0.2,0c0,0-3-2-3.5-2c-0.2,0-1-0.1-1.9-0.3l0-0.3
			v0C31.4,210.5,31.4,208.2,31.2,207.6"/>
		<path class="st2" d="M24.4,175.8c-2.5-3.9-0.9-5.4-0.7-5.6c1,1,2.4,2,4,1.7c2.8-0.4,5.9-1.4,7.3-0.4c1.4,1.1,3.9,3.7,6.8,1.8
			c2.1-1.4,4-2.7,4.9-3.4c0.4-0.3,0.6-0.4,0.6-0.4l0.2,0c-0.1,1.9,0.3,3,0.3,3c0.2,1.8,0.4,3.3,0.8,4.6l-0.1,0c0,0-6.8,1.1-14,0.6
			c-1.9-0.1-3.8-0.3-5.6-0.7c-1-0.2-2-0.4-3-0.7v0C25.4,176.2,24.9,176,24.4,175.8"/>
		<path class="st2" d="M22.2,168.6c-0.7-0.6-1.2-3.2-0.5-3.9c0.7-0.6,2.8-3.1,2.8-3.1c3.2-5.9,6.6-6.6,6.6-6.6l0.2,0
			c-0.4,2.3-0.7,5.4-0.7,6c0,0.7,1.8,3.5,2.8,4.2c0.9,0.6,2.9,1.4,3.8,1.5c0.8,0,4.7,1.7,5.4,1.8l4,1.3l0.1,0.2
			c-0.9,0.7-2.8,2-4.9,3.4c-2.9,1.9-5.3-0.7-6.8-1.8c-1.5-1-4.5,0-7.3,0.4c-1.6,0.2-3-0.8-4-1.7C23,169.5,22.5,168.8,22.2,168.6"/>
		<path class="st2" d="M28.8,223.3c-4.8,0.1-3.3-5-3.1-7c0.2-1.9,3.4-3.7,4.4-3.9c0.5-0.1,1.5,0.1,2.5,0.2c0.9,0.1,1.7,0.3,1.9,0.3
			c0.5,0,3.5,2,3.5,2l0.2,0c0,0.2-0.1,0.4-0.1,0.5c-0.1,1.4,1.1,2.5,1.7,2.9l0,0.1c-1.3-0.1-2.9-0.1-3.3-0.1c-0.6,0-4.2,2-4.7,2.7
			c-0.1,0.1-0.2,0.2-0.3,0.3C30.6,222.3,28.8,223.3,28.8,223.3"/>
		<path class="st3" d="M34,250.7c0-0.2-2-3.6-2.1-4.4c-0.1-0.8,1.4-4.5,2.1-6.1c0.7-1.6,0.7-3.3,0.8-4.3c0.1-0.9,0.8-1.6,0.8-1.6
			l0.1-0.2c0.1,0.1,0.1,0.1,0.2,0.2c3.6,3.1,6.7,6.5,10.8,8.5c4.2,2,13.4,5.7,14.4,6c0.2,0.1,0.6,0.2,1.1,0.4l0,0l2,0.2
			c8.1,0.3,8.5-3.2,10.1-6.5c0.2-0.4,0.3-0.8,0.5-1.2l0.3,0.1c0,0,0.9,1.2,1.9,2.8c1,1.6,0.4,5,0.3,6.1c-0.1,1.2-0.8,1.3-2.5,3.2
			c-1.6,1.9-5.4,1.2-7.1,0.7c-1.7-0.5-5.8-1.3-8-1.6c-2.3-0.2-6.9-3-8-3.5c-1.1-0.5-6.4-5-7-5.5c-0.6-0.6-2.1-0.9-2.7-1
			c-0.6-0.1-4.5,2.6-4.8,2.8c-0.3,0.2-0.8,0.6-1,1.1c-0.2,0.4,0,0.7,0.2,1.1c0.2,0.4,0.6,0.4,1,0.5c0.3,0.1,1,0.3,1.3,0.5
			c0.4,0.1-0.7,1.4-0.9,1.5c-0.2,0.1-0.2,0.5-0.2,0.7c0,0.3-0.6,0.4-0.8,0.5c-0.2,0.1-0.8,0-1,0c-0.2,0-1-0.1-1.1-0.1
			C34.6,251.5,34,250.9,34,250.7"/>
		<path class="st2" d="M30.6,161c0-0.6,0.3-3.7,0.7-6c0.1-0.5,0.2-1,0.3-1.4c0.5-2.2,2.4-2.9,3.6-3.6c1.3-0.8,2.7-3.6,4.1-4.4
			c1.4-0.9,5.2-1.6,8.1-2.3c2.9-0.6,8.5,0,8.5,0s0.2,0,0.5,0l0,0.1c-1.8,0.1-10.2,1-12.9,4c-3.1,3.4-4.7,5.8-2.6,8.5
			c2.2,2.7,4.5,5.1,6.8,4.2l0.3,0c-0.1,0.4-0.1,0.8-0.1,0.9c0,0.7,0.1,4.3-0.3,7.1c-0.1,0.5-0.1,1-0.1,1.4l-0.2,0
			c0,0-0.2,0.2-0.6,0.4l-0.1-0.2l-4-1.3c-0.7-0.2-4.6-1.8-5.4-1.8c-0.8,0-2.8-0.8-3.8-1.4C32.5,164.5,30.6,161.7,30.6,161"/>
		<path class="st2" d="M33.7,226c1.3,1.3,4.7,3.5,8.8,3.7c4.5,0.3,9.2,0.9,11.8-1.6c0.2,3,0.7,5.5,1.9,6.5c0,0,1.4,1.2,1.6,1.3
			c0.2,0.2,1.4,0.9,1.5,1.2c0.1,0.3,0.5,1.2,0.3,1.4c-0.2,0.2-0.9,0.6-1,0.7c-0.1,0.1-0.3,0.9,0.2,1.1c0,0,0.2,0.2,0.5-0.2
			c0.3-0.3,0.6-0.4,0.9-0.5c0.2-0.1,1.5-0.6,1.5-1.1c0-0.5,0.1-0.9,0.1-1l2.1,4.4c0,0,0.6,0.3,0.8,0.1c0.2-0.2,0.4-0.3,0.3-0.7
			c-0.1-0.3-0.5-1.6-0.5-1.6l-0.5-1.9l-0.4-1.1l-0.4-1.3l2.1,2.8l1.1,1.8c0,0,0.5,0.6,0.9,0.5c0.4-0.1,0.8-0.3,0.5-1.1
			c-0.3-0.7-0.9-2.2-0.9-2.2s-0.9-1.8-1.8-2.5l1.9,0.7l2.6,1.7c0,0,0.4,0,0.6-0.2c0.1-0.2,0-0.6-0.2-0.8c-0.2-0.2-2.1-2.6-2.1-2.6
			s-0.9-0.6-1.3-0.8c0,0-0.4-0.3-0.5-0.6c-0.1-0.2-1.2-1.2-1.4-1.4c-0.2-0.2-1.9-1.2-2.5-1.4c-0.6-0.1-2.1-0.3-2-1.2
			c0.1-0.9,2-5.2,2-5.2l1.3-2.7c0,0,0.2-0.4,0.5-1.1l0.5,0.1c0,0,1.4,1.7,4.3,1.6l0,0.2c0,0,1.9,4,2.1,5.3c0.1,0.8,1.2,4.3,2.1,7.1
			c0.6,1.8,1.1,3.2,1.1,3.5c0.2,0.5,1.4,1.9,0.9,4.2c0,0.1-0.1,0.3-0.1,0.4c-0.1,0.4-0.2,0.8-0.4,1.2c-1.6,3.2-2,6.8-10.1,6.5
			l-2-0.2l0,0c-0.5-0.2-0.9-0.3-1.1-0.4c-1-0.3-10.2-4-14.4-6c-4.2-2-7.3-5.5-10.8-8.5c-0.1-0.1-0.1-0.1-0.2-0.2
			C32.4,231.1,33.6,226,33.7,226L33.7,226L33.7,226z"/>
		<path class="st2" d="M22.6,210.2c-1.7-0.1-1.1-0.9-1.1-0.9c0.2-0.3,0.6-1.3,0.8-1.6c3.5-4.9,2.7-13.3,2.6-19.7
			c-0.1-6.9,4.1-10.7,4.1-10.7l0-0.2c1.8,0.4,3.7,0.6,5.6,0.7l0,0.1c0,0-2.8,2.9-2.8,7.5c0,4.6,1.3,11.4,1.3,13c0,1-0.7,4-1.2,6.3
			l-0.6,2.7l0.7,3.9c0,0,0.6,1.5-1.9,1.2c-1.4,0.7-3.4,0-4.3-0.9C24.8,210.6,24.3,210.3,22.6,210.2"/>
		<path class="st2" d="M33.4,225.6c-1-1.2-1.3-4-1.3-4l-0.5-0.1h0c0.1-0.1,0.2-0.2,0.3-0.3c0.6-0.8,4.1-2.8,4.7-2.7
			c0.4,0,1.9,0,3.3,0.1l0-0.1c-0.5-0.4-1.7-1.6-1.7-2.9c0-0.2,0-0.3,0.1-0.5c0.3-1.3,1.2-2.7,2.3-4c0.4-0.5,1.1-1,1.9-1.5
			c1.5-1,3.2-1.8,3.2-1.8l0.1-0.1v0c2,2.1,6.5,6.8,8.6,8l0.3,0.1c-0.5,1.9-0.8,4.1-0.7,6.6c0.1,1.9,0.1,4,0.3,5.9l0,0
			c-2.6,2.5-7.3,1.8-11.8,1.6c-4.1-0.2-7.4-2.4-8.8-3.7C33.6,225.8,33.4,225.7,33.4,225.6"/>
		<path class="st2" d="M17.4,208.9c0,0-1-0.1-0.8-0.3c0.2-0.2,1.5-2.2,1.7-2.7c0.1-0.2,0.6-1.6,1.1-2.5c0.6-1.4,1-3,1-3
			c0.9-2.4,1.1-3.4,1.1-3.4l0.7-10.2c0.1-5.9,3.6-10.2,3.6-10.2l0.1-0.2c1,0.3,2,0.5,3,0.7l0,0.2c0,0-4.1,3.8-4.1,10.7
			c0.1,6.4,1.7,12.2-0.9,17l-1,2c0,0-1.3,3.3-1.3,3.3c-0.1,0.1-1.1-0.7-1.9-0.5C18.8,209.9,17.6,209.5,17.4,208.9"/>
		<path class="st2" d="M13.1,205.9c-1.9-0.9,1.2-3.8,1.2-3.8l2.5-3.5c0,0,1.8-2.5,2.5-5.1c0.7-0.9,1.1-7.8,1.1-7.8
			c0.9-7.7,4-9.8,4-9.8c0.5,0.2,1,0.3,1.5,0.5v0l-0.1,0.2c0,0-3.5,4.3-3.6,10.2l-0.7,10.2c0,0-0.2,1.1-1.1,3.4c0,0-0.5,1.7-1.1,3.1
			l-2.6,5c0,0-1.2-0.9-1.9-1.4C13.8,207.3,13.1,205.9,13.1,205.9"/>
		<path class="st1" d="M63.4,141.4C63.4,141.4,63.4,141.5,63.4,141.4L63.4,141.4C63.4,141.4,63.4,141.4,63.4,141.4 M110.1,146.3
			c-0.2,0-0.4-0.3-0.4-0.5l0.1-0.4c-0.6-0.2-1-0.5-1-0.5c-0.2-0.1-0.3-0.4-0.2-0.6c0.1-0.2,0.4-0.3,0.6-0.2c0,0,1.3,0.7,2.5,0.8
			c0.3,0,0.4,0.2,0.4,0.5c0,0.2-0.2,0.4-0.5,0.4c-0.4,0-0.7-0.1-1.1-0.1l0,0.2C110.6,146.2,110.4,146.4,110.1,146.3
			C110.2,146.4,110.1,146.3,110.1,146.3 M111.8,149.9c-0.8,0-1.2-0.3-1.3-0.7c0-0.2,0.1-0.3,0.1-0.3h0c0.2-0.2,0.5-0.2,0.6,0
			c0,0,0.1,0.1,0.1,0.1c0.1,0,0.2,0.1,0.5,0.1c0.3,0,0.4,0.2,0.4,0.5C112.3,149.7,112.1,149.9,111.8,149.9L111.8,149.9z M80.4,151.2
			l-0.8-0.5l-0.2,0.3c-0.1,0.2-0.4,0.3-0.6,0.1c-0.2-0.1-0.3-0.4-0.1-0.6l0.2-0.3l-0.7-0.5c-0.2-0.1-0.3-0.4-0.1-0.6
			c0.1-0.2,0.4-0.3,0.6-0.1l2.3,1.5c0.2,0.1,0.3,0.4,0.1,0.6c-0.1,0.1-0.2,0.2-0.4,0.2C80.6,151.3,80.5,151.3,80.4,151.2
			 M111.5,151.3c-1-0.1-1.6-0.6-1.7-0.6c-0.2-0.2-0.2-0.4-0.1-0.6c0.2-0.2,0.4-0.2,0.6-0.1c0,0,0.5,0.4,1.2,0.4
			c0.2,0,0.4,0.2,0.4,0.5C111.9,151.1,111.8,151.3,111.5,151.3C111.5,151.3,111.5,151.3,111.5,151.3 M89.5,165.9
			c-0.2-0.1-0.2-0.4-0.1-0.6c0.1,0,1.1-1.7,2.4-1.8c0.2,0,0.4,0.1,0.6,0.2c0.2,0.2,0.2,0.4,0.1,0.6c-0.2,0.2-0.4,0.2-0.6,0.1l0,0
			c0,0-0.1,0-0.1,0c0,0,0.1,0.1,0.1,0.1l0.2,0.3c0.1,0.2,0.1,0.5-0.1,0.6c-0.2,0.1-0.5,0.1-0.6-0.1L91,165c0,0,0,0,0-0.1
			c-0.4,0.4-0.8,0.9-0.8,0.9v0c-0.1,0.1-0.2,0.2-0.4,0.2C89.7,166,89.6,166,89.5,165.9 M115.2,169.2
			C115.2,169.2,115.2,169.2,115.2,169.2L115.2,169.2z M98.7,169.6L98.7,169.6L98.7,169.6C98.7,169.6,98.7,169.6,98.7,169.6
			C98.7,169.6,98.7,169.6,98.7,169.6 M118.5,188.6l-0.3-0.4l-1.3,0.3c-0.2,0.1-0.5-0.1-0.5-0.3c-0.1-0.2,0.1-0.5,0.3-0.5l3.7-0.8
			c0.2,0,0.5,0.1,0.5,0.4c0,0.2-0.1,0.5-0.3,0.5l-1.4,0.3l0,0c0.2,0.2,0.2,0.5,0,0.6c-0.1,0.1-0.2,0.1-0.3,0.1
			C118.7,188.7,118.6,188.7,118.5,188.6 M90,202.4c-0.2-0.2-0.1-0.5,0.1-0.6l0.1-0.1c-0.2-0.2-0.5-0.4-0.6-0.6
			c-0.1-0.2-0.1-0.5,0.2-0.6c0.2-0.1,0.5-0.1,0.6,0.2c0.1,0.3,1.6,0.8,1.6,0.8c0.2,0.1,0.4,0.3,0.3,0.5c-0.1,0.2-0.3,0.4-0.5,0.3
			c0,0-0.3-0.1-0.7-0.2l-0.4,0.3c-0.1,0.1-0.2,0.1-0.3,0.1C90.2,202.5,90.1,202.5,90,202.4 M69.4,150c0,0,0.4,0.1,0.7,0.1
			c1,0,2.4-0.3,2.5-0.3c1.2-0.1,2-0.9,2.7-1.3c0.5-0.3,1.3-1.2,2.1-1.3c0,0,0.1,0,0.1,0c0.1,0,0.1,0,0.2,0c0.2,0,0.2,0,0.7-0.4
			c0.3-0.2,0.4-1,0.4-1.4c0-0.2,0-0.3,0-0.3c0-0.2,0.1-0.3,0.2-0.4c0.2-0.1,0.3-0.1,0.5,0l1.8,1.4c1.4,0.9,1.5,0.7,2.6,1.2
			c0.4,0.2,0.7,0.3,1,0.3c0.1,0,0.1,0,0.1,0c1.1-0.3,0.8-0.4,1-0.7c0-0.2,0.3-1,0.3-1.9c0-1-0.3-1.9-1.3-2.2l-0.3-0.2
			c0,0-1.2-2.5-3-2.4c-0.1,0-0.3,0-0.5,0l-0.4-0.1c0,0-0.7-0.5-1.7-1c-1-0.5-2.4-1-3.7-1c-0.3,0-0.6,0-1,0.1c0,0-1.4-0.3-3-0.3
			c-1.9,0-3.6,0.4-3.6,1.5c0,0.2-0.2,0.4-0.4,0.4c0,0-1.1,0.2-2.2,0.5c-1.1,0.3-2,1-1.9,1.2c0,0,0,0,0,0c0,0,0,0.1,0,0.2
			c0,0.2-0.1,0.4-0.3,0.5c0,0-0.7,0.1-0.7,0.1c-0.3,0.2-1.1,0.9-1,1.4c0,0.1,0,0.2,0.1,0.3c0,0,0,0.1,0,0.1c0.4,0.2,0.8,0.5,1.2,0.8
			c1.1,0.8,1.9,1.9,2.4,2.9c0.1,0.1,0.1,0.3,0.2,0.4c0.8,0.5,1.3,1.2,1.6,1.7c0,0,0.1,0,0.2,0c0.3,0,0.9-0.1,1.4-0.1
			C68.8,149.9,69.1,149.9,69.4,150 M107.4,147.9c0,0,1.2,3.8,2.7,4.1c0,0,0,0,0.1,0c0.5,0,3.2-0.1,5.4-1.8c0,0,0,0,0.1,0l0,0l1.2-2
			c-0.4,0-0.7-0.1-1-0.2l0,0.2c-0.1,0.2-0.3,0.4-0.5,0.3c-0.2-0.1-0.4-0.3-0.3-0.5l0.1-0.3c-0.4-0.2-0.6-0.3-0.6-0.3v0
			c-0.2-0.1-0.3-0.4-0.1-0.6c0.1-0.2,0.4-0.3,0.6-0.2c0,0,1.3,0.7,2.5,0.8c0,0,0,0,0.1,0l1.4-2.2v-0.1c0.1-0.4-0.5-2.2-0.6-2.2
			c-0.5-0.5-1.5-1.5-1.7-2.3c0-0.2-0.2-0.8-0.3-1.3c-0.7,0.6-2,1.6-2.4,1.8c-0.3,0.2-0.6,0.2-0.9,0.2c-0.8,0-1.8-0.2-2-0.2l0,0
			c-0.3,0-1.3,0.4-1.3,0.6c-0.3,0.6-1.2,2.2-1.5,2.6c-0.1,0.1-0.5,1.9-0.5,2.6C107.6,147.3,107.5,147.6,107.4,147.9
			C107.4,147.9,107.4,147.9,107.4,147.9 M93.5,149.2c0.4,0,0.7,0.1,0.9,0.3c0.2,0.2,0.5,0.6,1,1c0.4,0.3,0.7,0.4,1.1,2.3
			c0,0.2,0.1,0.4,0.1,0.6c0.5-0.1,1.3-0.3,1.7-0.5c0.2-0.1,0.5-0.3,0.6-0.5c0.2-0.2,0.3-0.5,0.3-1c0-0.4-0.1-0.9-0.4-1.5
			c-0.8-1.9-4.6-3.7-5.9-4.3c-0.2-0.1-0.3-0.1-0.5-0.1c-0.1,0-0.2,0-0.4,0c-0.9,0.2-1.8,0.9-2.3,1.3c-0.4,0.2-0.5,1.9-0.6,2.6
			c0.2,0,0.5,0,0.7,0c0.7,0,1.4,0.2,2.2,0.6l0.5,0.3c0,0,0-0.1,0-0.1c0-0.2,0.1-0.5,0.3-0.7C92.9,149.3,93.3,149.2,93.5,149.2
			L93.5,149.2z M90.6,155.4c0.3,0.1,0.8,0.3,1.2,0.3c0.4,0,0.9-0.1,1.4-0.4c1.6-0.9,2.6-0.9,2.5-1.4c0-0.1,0-0.2,0-0.2
			c0-0.2,0-0.4-0.1-0.7c-0.6-2.2-0.1-1.2-0.8-1.8c-0.6-0.4-1-1-1-1c0,0-0.1,0-0.1,0c-0.1,0-0.1-0.1-0.2,0c0,0-0.1,0-0.1,0
			c-0.1,0.1-0.1,0.1-0.1,0.2c0,0.1,0,0.1,0.1,0.2c0,0,0.2,0.3,0.3,0.6c0.3,0.5,0.7,1.1,0.7,1.1c0.1,0.2,0.1,0.5-0.2,0.6
			c-0.2,0.1-0.5,0.1-0.6-0.2c0,0-0.3-0.4-0.5-0.9c0,0,0,0-0.1,0l-1.6-0.9c-0.7-0.4-1.1-0.5-1.7-0.5c-0.3,0-0.7,0-1.1,0.1
			c-0.2,0-0.5,0-0.8,0.1c-1.5,0.1-3.1,1-3.2,1.1c0,0-0.7,0.3-1,0.5c0.2,0.2,0.5,0.5,1.1,0.5c0,0,0.1,0,0,0c0.4,0,0.6,0,0.7,0v0v0v0
			c0,0,0.1-0.1,0.1-0.1c0.2-0.2,0.4-0.4,0.7-0.4c0.3,0,0.5,0.2,0.7,0.4c0.1,0.1,2.9,2.8,2.8,2.7C90,155.2,90.2,155.3,90.6,155.4
			 M71,154.6l0.4,0.2l2.6,1.4c0,0,1.6,0.8,2,0.8h0c0.4-0.1,0.2,0,0.3-0.3c0.1-0.6,0.5-1,1-1.2l0,0c0,0,0.1-0.1,0.2-0.2l-0.6-0.7
			c-0.2-0.2-0.2-0.5,0-0.6c0.2-0.2,0.5-0.2,0.6,0l0.7,0.8c0.3,0,0.7-0.1,0.7-0.1c0.1-0.1,0.5-0.5,0.6-0.6c0,0,0-0.1,0.1-0.1
			c0,0,0.1-0.1,0.1-0.1h0c0,0,0,0,0,0c0,0,0,0,0,0l0,0c0.1,0,0.3,0,0.4,0.1c0,0,0,0,0,0l0,0c0,0,0.1,0.1,0.2,0.1
			c0.1,0.1,0.2,0.2,0.2,0.1c0,0,0,0,0.1-0.4c0.3-1.6,1.7-4.7,1.9-5.4c0.1-0.3,0.2-0.5,0.3-0.7c-0.6-0.2-1-0.2-2.3-1l-1.2-0.9
			c0,0.5-0.2,1.1-0.6,1.5c-0.5,0.5-1,0.7-1.4,0.7c-0.1,0-0.1,0-0.2,0v0c0,0,0,0,0,0c-0.2,0-1.1,0.8-1.6,1.2c-0.5,0.2-1.5,1.4-3,1.4
			c0,0-1.5,0.3-2.6,0.3c-0.4,0-0.8,0-1.1-0.2c-0.1,0-0.2-0.1-0.4-0.1c-0.4,0-0.9,0.1-1.4,0.1c-0.3,0-0.8-0.1-1-0.6
			c0-0.1-0.1-0.3-0.2-0.4c0.1,0.5,0.1,0.9,0.1,1.4c0,0.8-0.1,1.7-0.4,2.4c-0.3,0.9-0.7,1.7-1.1,2.5l6.2-1.6L71,154.6z M115.8,158.9
			c0.1-0.1,0.1-0.3,0.2-0.5c0.1-0.5,0.3-1,0.3-1l0.2-0.3l0.5-0.3c0.3-0.3,0.7-0.3,0.9-0.3c0.1-0.1,0.3-0.3,0.4-0.5
			c0.2-0.2,0.3-0.7,0.3-1.2c0-0.7-0.1-1.3-0.1-1.6c0,0,0,0,0,0c0,0,0,0,0,0c0-0.4,0.3-1.1,0.9-1.6c0.2,0,0.4-1.6,0.3-1.9
			c0.1-0.7,0.7-0.9,0.9-1.2c0,0,0,0,0-0.1c0-0.5-0.3-1.6-0.3-2.1c0-0.1,0-0.2,0-0.3c0-0.4,0.1-0.8,0.3-1.3c0-0.1,0.1-0.2,0.1-0.2
			c0.1-0.4,0.4-2.1,0.4-2.7c0-0.1,0-0.1,0-0.1c0-0.1,0-0.2,0-0.2c0-0.6,0.4-1.2,0.5-1.7v-0.1c0-0.5-1.1-2.8-1.7-4.1
			c-0.4-1.1-2.5-1.2-2.5-1.2l-0.3-0.1c-1.3-1.3-3.5-1.6-4.6-1.6c-0.4,0-0.6,0-0.6,0c-0.2,0.1-3.2,0.8-3.4,1
			c-0.2,0.2-1.1,1.1-1.9,1.9c0,0,0,0,0,0c0,0.1-0.1,0.1-0.2,0.2c-0.3,0.4-0.6,0.8-0.8,1c-0.5,0.8-1.2,3-1.2,3.3
			c-0.1,0.6-1.1,3.4-1.1,4.2l0,0h0v0c0,0,0,0,0,0c0,1,0.6,5.4,0.8,5.8c0.2,0.6,1,2.2,1,2.8c0,0,0,0,0,0.1c0,0.1-0.1,0.4-0.1,0.7
			c0.2-0.1,0.4-0.2,0.6-0.2c0,0,0,0,0,0c0.1,0,0.1,0,0.1,0c0.1,0,0.3,0,0.4-0.1c0.1,0,0.1,0,0.1,0c0.1-0.3,0.2-1.3,0.2-2.1
			c0-0.3,0-0.5,0-0.7c-0.1-0.6-0.3-1.1-0.3-1.7c0-0.2,0-0.4,0.1-0.6c0.1-0.4,0.4-0.7,0.6-1c0.2-0.3,0.3-0.6,0.3-0.9
			c0-1,0.2-2.5,0.6-3.2c0.2-0.3,1.2-2,1.4-2.5c0.5-0.8,1.5-1,2.1-1.1c0.1,0,0.1,0,0.1,0c0.4,0,1.3,0.2,2,0.2c0.3,0,0.5,0,0.5-0.1
			c0.4-0.2,2.8-2.2,2.8-2.2c0.1-0.1,0.3-0.1,0.4-0.1c0.1,0,0.3,0.2,0.3,0.3c0,0,0.4,1.5,0.4,2c-0.1,0.1,1.1,1.6,1.4,1.8
			c0.6,0.6,0.8,2.1,0.9,2.8c0,0.1,0,0.1-0.1,0.3l-3.1,5l0,0.2l-0.4,4.2l-0.9,3.1C115.3,158.2,115.5,158.6,115.8,158.9 M69.7,161.6
			C69.7,161.6,69.7,161.6,69.7,161.6L69.7,161.6z M118.3,157.9c0,1.3,0.5,4.1,4.5,7c1.3-0.6,6.1-2.9,11.9-3.9
			c-0.4-0.5-1.1-1.5-2.6-2.5c-1.1-0.8-2.3-1.5-3.7-2.1c-0.2-0.1-0.3-0.4-0.3-0.6c0.1-0.2,0.4-0.3,0.6-0.2c1.2,0.5,2.3,1.1,3.3,1.8
			c0-1-1.4-3.4-1.4-3.4c-3.5-5.8-8.8-8-9.6-8.3c-0.1,0.2-0.1,0.4-0.1,0.5c0,0.1,0,0.1,0,0.2c0,0.3,0.3,1.4,0.3,2.2
			c0,0.2,0,0.4-0.2,0.7c-0.4,0.4-0.8,0.7-0.7,0.7c-0.1,0.3,0.1,1.8-0.7,2.5c-0.3,0.2-0.5,0.6-0.5,0.9c0,0.1,0.1,0.8,0.1,1.6
			c0,0.6-0.1,1.2-0.4,1.7c-0.2,0.2-0.3,0.4-0.5,0.6C118.3,157.3,118.3,157.5,118.3,157.9 M61.4,159.3c-1.1,0.5-1.8,0.6-2.2,1.9
			c-0.5,1.4-1.1,4.5-2.8,6.3l3-1.5l2.8-1.4c0,0,4.1-1.4,6.3-2.4c0.6-0.3,1-0.5,1.2-0.6c0.1-0.3,0.1-0.9,0.1-1.4
			c-0.1,0.1-0.2,0.1-0.3,0.2l-2.3,1.5c-0.2,0.1-0.5,0.1-0.6-0.1c-0.1-0.2-0.1-0.5,0.1-0.6l2.3-1.5c0.3-0.2,0.5-0.4,0.7-0.6
			c0.8-1,1-2.4,1-3.2c0-0.2,0-0.3,0-0.4l-6.4,1.7h0c-0.1,0-0.3,0-0.4-0.1C63,158.2,62.1,159,61.4,159.3 M33.6,164.7
			c0.8,0.6,2.9,1.4,3.5,1.4c1,0.1,4.8,1.7,5.5,1.8l4,1.3c0,0,0,0,0,0c0.2-0.1,0.2-0.2,0.2-0.2c0,0,0,0,0.1,0c0-0.3,0.1-0.7,0.1-1
			c0.4-2.8,0.2-6.4,0.3-7.1c0-0.1,0-0.2,0-0.4c-0.3,0.1-0.5,0.1-0.8,0.1c-2.3,0-4.3-2.2-6.2-4.6c-0.7-0.9-1.1-1.9-1.1-2.8
			c0-2.1,1.6-4,3.7-6.3c1.8-2,5.7-3,8.8-3.6c-0.3,0-0.6,0-0.8,0c-1.3,0-2.6,0.1-3.6,0.3c-2.9,0.6-6.7,1.4-8,2.2
			c-1.3,0.7-2.6,3.5-4.1,4.4c-1.4,0.8-3,1.4-3.4,3.4c-0.1,0.4-0.2,0.8-0.3,1.4c-0.4,2.3-0.7,5.4-0.7,5.9c0,0,0,0,0,0c0,0,0,0,0,0.1
			C31.1,161.6,32.9,164.4,33.6,164.7 M98.4,170C98.4,170,98.4,170,98.4,170C98.4,169.9,98.4,170,98.4,170 M60,168
			c0,0.4,0.1,0.7,0.2,1c0,0,1.3,3.7,5.2,3.9c0.2,0,1.5,0.1,2.6,0.1c-0.7-0.5-0.9-1.4-0.8-2.1c0-0.4,0-0.8,0-1.1c0-0.1,0-0.1,0-0.1
			c0,0,0-0.1,0-0.1c0-1.4,0.6-2.6,1-3.1c0.6-0.7,2.3-1.2,2.3-1.3l0.3,0l0.6,0.2c-0.7-0.8-2.4-2.1-2.5-2.1h0c-0.1,0-0.1-0.1-0.2-0.2
			c0,0,0,0-0.1,0c-2.3,1-6.4,2.4-6.3,2.4l-2.3,1.2C60.1,166.8,60,167.4,60,168 M35.3,171.2c1.1,0.8,2.7,2.4,4.4,2.4
			c0.6,0,1.2-0.2,1.8-0.6c1.7-1.1,3.3-2.2,4.3-3l-3.5-1.1c-0.7-0.2-4.7-1.8-5.3-1.8c-1-0.1-2.9-0.9-4-1.5c-1.1-0.8-2.9-3.4-3-4.5
			c0,0,0,0,0,0c0-0.5,0.3-3.2,0.6-5.4c-1,0.4-3.4,1.8-5.9,6.3c0,0-2.1,2.5-2.9,3.2c-0.1,0-0.2,0.4-0.2,0.9c0,0.9,0.4,2.2,0.7,2.3
			c0.3,0.3,0.8,0.9,1.4,1.5c0.1,0,0.1,0.1,0.2,0.1c0,0,0.1,0.1,0.1,0.1c0.9,0.8,2,1.5,3.1,1.5c0.1,0,0.3,0,0.4,0
			c1.9-0.3,3.9-0.8,5.6-0.8C34,170.6,34.7,170.8,35.3,171.2 M69,166.9c-0.3,0.4-0.8,1.4-0.8,2.6c0,0,0,0.1,0,0.2c0,0,0,0.1,0,0.1
			c0,0.4,0,0.8,0,1.1c0,0.8,0.1,1.2,0.8,1.5c0.3,0.1,0.7,0.3,1,0.5c1,0.5,2.1,1.2,3.2,1.2c0.6,0,1.1-0.1,1.8-0.6
			c0,0,0.7-0.3,0.7-1.5c0-0.2,0-0.4-0.1-0.7l0.2-0.5c0,0,0.8-0.6,0.8-1c0-0.1,0-0.2-0.1-0.3l-0.7-1.1c-0.1-0.1-0.1-0.3,0-0.4
			c0.1-0.1,0.2-0.2,0.3-0.3l2.1-0.3c0,0,0.2-0.1,0.4-0.2c0,0,0,0,0,0c-0.6-0.1-1.5-0.3-1.6-0.3c-0.3,0-2.4-0.3-2.4-0.4l-0.2,0
			c0.1,0.2,0.2,0.5,0.2,0.7c0,0.2-0.1,0.4-0.3,0.6c-0.4,0.2-1.1,0.6-1.8,0.6c-0.2,0-0.4,0-0.6-0.1l-0.5-0.2
			c-0.2-0.1-0.3-0.4-0.2-0.6c0.1-0.2,0.4-0.3,0.6-0.2l0.5,0.2c0,0,0.1,0,0.2,0c0.3,0,0.9-0.2,1.2-0.4c0-0.1-0.2-0.4-0.3-0.6
			l-1.3-0.3l-1.3-0.4C70.4,166.2,69.1,166.7,69,166.9 M107.3,176.7c0-0.3,0.1-0.6,0.5-0.8c0.1,0.1,0.3-1.1,0.8-2
			c0.3-0.5,0.8-0.9,1.5-1.1c1.3-0.1,0.5-1.5,2.2-2.3c1.2-0.3,2.1-1.2,2.9-1.3c0,0,0,0,0,0h0c0.3,0,1.9-0.6,2.4-0.7
			c0.2,0,0.5-0.1,0.9-0.1c0-0.1,0-0.2,0.1-0.3c0,0,1.3-1.6,3.3-2.7c-3.9-3-4.5-6-4.5-7.5c0-0.1,0-0.2,0-0.3c0,0,0,0,0,0l-0.4,0.3
			c0,0.2-0.1,0.5-0.2,0.9c-0.3,0.5-0.1,1-0.9,1.3c-0.1,0-0.1,0-0.2,0c-0.7-0.4-1.4-1.7-1.4-1.8l0-0.4l0.9-3.2l0.3-3.3
			c-2.3,1.5-4.8,1.5-5.3,1.5c0,0-0.1,0-0.2,0c-1.8-0.6-2.8-2.9-3.2-4.1c0,0.1-0.1,0.2-0.1,0.2c0,0.1,0,0.2,0,0.3
			c0,0.3,0.2,0.8,0.3,1.6c0,0.2,0,0.5,0,0.8c0,0.9-0.1,1.9-0.2,2.3c-0.3,0.8-1.1,0.7-1.4,0.8l0,0l-0.1,0v0c0,0,0,0-0.1,0.1
			c-0.1,0-0.2,0.1-0.4,0.2c-0.3,0.1-0.5,0.3-0.5,0.3c-0.2,0.1-0.3,0.1-0.5,0c-0.1-0.1-0.2-0.3-0.2-0.4c0,0,0.2-1.3,0.3-1.6h0
			c0-0.3-0.8-2-1-2.6c-0.2-0.7-0.8-5-0.8-6.2c0,0,0,0,0,0h0c0-1.1,1.1-3.9,1.1-4.3c0.1-0.6,0.8-2.7,1.4-3.6c0.1-0.3,0.4-0.5,0.6-0.9
			c-0.7-0.4-1.4-0.5-2-0.5c-1.8,0-3.3,1-3.5,1.1c0,0-1.7,0.2-2.7,0.3c-0.8,0.1-1.4,0.3-3.8,3.1c-1,1.2-1.2,2.2-1.2,3.1
			c0,1,0.4,1.7,0.4,1.7v0c0,0,0,0.1,0.1,0.2h0.1c0.3,0,0.6,0,0.9,0.2c1.4,0.6,5.2,2.3,6.3,4.7c0.3,0.6,0.4,1.1,0.4,1.6
			c0.3-0.2,0.6-0.3,0.9-0.4l-0.9-3.6c-0.1-0.2,0.1-0.5,0.3-0.5c0.2-0.1,0.5,0.1,0.5,0.3l1.3,5.2c0,0,0,0.1,0,0.1
			c0.7,2.1,1,3.9,1,5.4c0,3.5-1.3,5.4-1.3,5.5c-0.1,0.1-1.6,3.5-1.7,3.9c0,0.2,0.1,0.4,0.1,0.5c0,0,0.3,1.2,0.4,1.6
			c0.1,0.3,0.2,0.5,0.2,0.7c0,0.1,0,0.2,0,0.2c0.4,0.3,1,0.7,1.1,1.4v0c0,0.2-0.1,0.3-0.1,0.4c0.2,0.3,0.4,0.8,0.4,1.3
			c0,0.2,0,0.3-0.1,0.6c0,0.1,0,0.2,0,0.3c0,0.1,0,0.3,0,0.4L107.3,176.7z M98.5,177.1c0.3,0,0.6,0,1-0.2c0.6-0.2,1.4-1,1.4-1
			c0.4-0.3,0.4-0.5,0.4-0.8c0-0.3-0.1-0.7-0.2-1.2c0-0.2,0-0.4,0.1-0.5c0-0.1,0-0.2,0-0.3c0-0.5-0.5-1.1-0.5-1.1
			c-0.1-0.1-0.1-0.2-0.1-0.4c0-0.1,0.1-0.3,0.2-0.3c0,0,0,0,0,0c-0.1-0.1-0.2-0.2-0.3-0.3c-0.2-0.2-0.5-0.4-0.5-0.4
			c-0.3-0.2-0.3-0.4-0.3-0.5c0-0.2,0-0.2,0-0.4c0-0.1,0-0.2-0.1-0.3c-0.3-0.6-0.5-1.8-0.5-1.9c0,0-0.2-1-0.2-1.1
			c-0.2-0.9-0.8-1.1-0.8-1.1l-0.3-0.4c0-0.3-0.6-0.8-0.6-0.8l-0.2-0.4c0-0.1,0-0.1,0-0.2c0.1-0.8-0.8-0.4-1.4-1.5
			c0-0.3-1.2-1-1.4-1.1c-0.3-0.6-1.7-0.9-1.8-0.9v0c-0.2,0-0.7,0.1-1.2,0.3c0.5,0,1,0.1,1.8,0.3c0,0,1.1,0.9,1.2,1
			c0.2,0.1,1,0.7,1.6,1.2c0.7,0.6,0.9,1.3,0.9,1.6c0,0.2-0.2,0.5-0.4,0.5c-0.3,0-0.5-0.2-0.5-0.4c0,0-0.2-0.7-0.6-1
			c-0.5-0.4-1.3-1-1.6-1.1c-0.2-0.2-1.1-1-1.1-1c-0.6-0.2-1.2-0.2-1.7-0.2c-1.5,0-2.2,0.5-2.7,0.7c-0.2,0-1.4,1.8-1.5,2.9
			c0,0.1,0,0.2,0,0.3c0,0.8,0.5,1.3,1,1.9c0.5,0.7,1,1.7,1,2.6c0,0,0,0.1,0,0.2c0,0,0,0.1,0,0.1c0,0.5,0.1,1.3,0.4,2.2
			c0.3,0.1,2.8,1,7.1,1c0.6-0.3,1.5-0.7,2-1.1c0,0,0,0,0-0.3c0-0.7-0.4-1.7-0.5-2.1c0,0,0,0,0,0c0-0.1,0-0.3-0.1-0.5
			c-0.9,0.5-2.2,0.8-2.2,0.8h0c-0.2,0-0.5-0.1-0.5-0.3c0-0.2,0.1-0.5,0.3-0.5c0,0,1.4-0.3,2.1-0.8c0.1,0,0.1-0.1,0.2-0.1
			c-0.1-0.8-0.2-1.5-0.2-1.7c0-0.2,0.2-0.5,0.4-0.5c0.2,0,0.5,0.2,0.5,0.4c0,0.2,0.4,2.9,0.5,3.3h0v0c0,0,0,0,0,0c0,0,0,0.1,0,0.1
			c0,0,0-0.1,0-0.1c0,0.2,0.4,1.3,0.4,2.1c0,0.3,0,0.6-0.3,0.9c-0.5,0.4-1.2,0.8-1.8,1.1c0,0.1,0,0.1,0,0.2c0.1,2,0.8,2.1,1.2,2.6
			C98.2,176.7,98.3,176.9,98.5,177.1C98.4,177.1,98.4,177.1,98.5,177.1 M26,175.9c0.9,0.3,1.9,0.5,2.9,0.7c1.8,0.3,3.7,0.5,5.5,0.7
			c1.2,0.1,2.4,0.1,3.5,0.1c4.7,0,8.8-0.5,10-0.7c-0.3-1.2-0.5-2.5-0.6-4.1c0,0-0.3-0.9-0.3-2.4c0,0-0.1,0-0.1,0.1
			c-0.9,0.7-2.8,2-4.9,3.4c-0.8,0.5-1.6,0.7-2.3,0.7c-2.2,0-3.9-1.8-4.9-2.5c-0.3-0.2-0.9-0.4-1.5-0.4c-1.5,0-3.5,0.6-5.5,0.8
			c-0.2,0-0.4,0-0.5,0c-1.4,0-2.6-0.8-3.5-1.6c-0.2,0.2-0.3,0.6-0.3,1.2c0,0.7,0.3,1.9,1.3,3.4C25.1,175.6,25.5,175.8,26,175.9
			 M82.2,180.3c0.3,0.1,0.7,0.2,1.2,0.3c1,0.2,2.2,0.3,3.1,0.3c0.6,0,1.1-0.1,1.2-0.1c0.7-0.1,1.5-3.7,1.5-3.7c0-0.3,0-0.6,0-0.9
			c0-0.5,0-1-0.2-1.6c-0.1-0.4-0.2-0.8-0.4-1.2c-0.6-1.3-0.8-2.6-0.8-3.4c0-0.1,0-0.1,0-0.2v-0.1c0-0.6-0.4-1.6-0.8-2.1
			c-0.4-0.5-1.1-1.2-1.1-2.5c0-0.1,0-0.3,0-0.5c0.3-1.4,1.1-3.2,2.1-3.6c0.1,0,0.2-0.1,0.4-0.2c-0.1,0-0.2,0.1-0.2,0.1l-0.3,0
			c0,0-0.2,0-0.4,0c-0.6,0-1.7,0.2-2.5,1.7c0,0-1.1,0.8-1.5,1.5c0,0-1.7,5-1.9,6.6c-0.2,1.8-0.1,1.5-0.3,2c-0.4,0.9-2.6,3-2.5,4.1
			c0,0.2,0.1,0.4,0.3,0.6c0,0,0.1,0,0.1,0.1c1.7,1.2,2.3,1.5,2.7,2.5c0,0,0,0,0,0h0C81.8,180.1,81.9,180.2,82.2,180.3 M146.9,162.3
			c-1.2,1.1-6.3,6.3-6.3,11.3c0,3.5,2.5,7.2,11.2,9.6c1.5-0.9,5.1-2.9,6.1-4.7l3.9-3.2c0,0,3.7-3.6,3.7-6c0-2.4-2-6.1-6.1-6.1
			c-0.4,0-0.8,0-1.1,0.1l-3.1,1l-0.4-0.1c-2.3-1.8-4.4-1.9-6-1.9c-0.3,0-0.7,0-1,0C147.5,162.3,147.2,162.3,146.9,162.3
			C146.9,162.2,146.9,162.3,146.9,162.3 M118.8,170L118.8,170c0.8,0,2.8,0.4,3.2,0.6c0.4,0.2,2,1.1,2.4,1.4c0.2,0.3,0.3,0.7,0.4,1.2
			c0,0.3,0,0.5-0.1,0.8c-0.3,0.8-1.6,3.3-2.5,4.2c-0.1,0.1-0.1,0.2-0.1,0.3c0,0.2,0.3,0.6,0.5,0.7c0.2,0.3,0.2,0.5,0.3,0.8
			c0,0.2,0,0.4-0.1,0.6c-0.3,0.5-0.7,0.9-0.8,1.1c0,0.1-0.1,0.4-0.1,0.7c0,0.4,0.1,0.9,0.2,1.3v0c0.4,0,1.2-0.5,1.8-0.6
			c0.1,0,0.1,0,0.1,0h0c0,0,0,0,0,0l0,0c0.1,0,1-0.2,1.3-0.4c0.1-0.1,0.1-0.1,0.1-0.1c0.5-0.9,1.6-0.6,1.6-0.8
			c0.2-0.1,0.9-1.3,1.2-1.6c0.2-0.2,0.5-0.8,0.8-1.1c0,0,0.1-0.3,0.1-0.4c0,0,0,0,0,0c-0.1-0.1-0.2-0.3-0.2-0.5
			c0.1-0.6,0.4-0.7,0.6-0.9c0,0,0.1-0.1,0.1-0.3c0-0.2,0-0.4-0.1-0.5c-0.1-0.3-0.9-1.4-1-1.9c0-0.1,0-0.2,0-0.3c0-0.6,0.4-1,0.4-1v0
			c0,0-0.1-0.1-0.2-0.2c-0.2-0.1-0.4-0.3-0.5-0.3c-0.2-0.1-0.4-0.4-0.4-0.6c0-0.4,0.2-0.6,0.3-0.8c-0.1,0-0.2-0.1-0.3-0.1
			c-0.3-0.1-0.7-0.1-0.8-0.1c-0.6-0.1-2.7-0.9-3.1-0.9c-0.4,0-0.9-0.2-1.5-0.4c-0.8-0.3-1.6-0.7-1.9-0.9c0,0,0,0-0.1,0
			c-0.1,0-0.1,0-0.2,0c-0.3,0-0.6,0-1,0.1c-0.6,0.1-1.1,0.1-1.3,0.2c-0.4,0.1-1.9,0.7-2.6,0.8c0,0,0,0-0.1,0c0,0,0,0,0,0
			c-0.2,0.1-1.4,0.9-2.6,1.3c-0.8,0-0.2,1.8-2.3,2.3c-0.4,0.1-0.7,0.3-0.9,0.7c-0.5,0.7-0.3,1.8-1.2,2.4c0,0,0,0,0,0.1
			c0,0.1,0,0.3,0.1,0.5c0,0,0,0,0,0c0.1,0.3,0.2,0.8,0.2,1.2c0,0.1,0,0.3-0.1,0.4c0,0,0,0.1,0,0.1c0,0.1,0,0.3,0.1,0.4
			c0.4-3.7,2.1-5.4,2.2-5.5l1.6-1.3c0,0,1.1-1,1.5-1.3c0.4-0.3,1.8-0.8,2.3-1.1c0.5-0.3,1.2-0.3,1.8-0.3c0.3,0,0.6,0,0.8,0H118.8
			C118.7,170,118.8,170,118.8,170C118.8,170,118.8,170,118.8,170 M117.5,192l1-0.9l0.5-0.1c0,0,0.5,0.2,0.9,0.4c0,0,0.1-0.1,0.1-0.1
			l0.9-0.5c0.2-0.1,0.5-0.1,0.6,0.2c0.1,0.2,0.1,0.5-0.2,0.6l-0.5,0.3c0.2,0.1,0.4,0.1,0.8,0.1c0.8,0,2.2-0.4,3.9-2.7
			c0.3-0.4,0.6-0.9,0.8-1.3c0,0,1-2.5,2.2-4.7c0.2-0.1,1.1-0.6,1.4-0.8c2.7-0.9,3.8-4.8,3.9-4.9c0,0,0-0.2,0-0.4c0-0.2,0-0.6,0-1
			c0-0.2,0.2-0.4,0.4-0.5c0.2,0,0.4,0,0.5,0.2c0,0,5.6,7.3,11.5,8.5c0.5,0.1,1.1,0.2,1.6,0.2c1,0,2-0.2,3-0.7
			c-8.3-2.4-11.1-6.3-11.1-10.2c0-5.2,4.7-10.1,6.3-11.7c-0.4-0.1-0.9-0.2-1.4-0.2c-0.7,0-1.4,0.1-2.1,0.5c-5.2,2.1-8.1,11-8.1,11.1
			c0,0.2-0.2,0.4-0.5,0.4c-0.3,0-0.4-0.2-0.4-0.5c0.1-0.6,2.8-9.1,8.4-11.8c-0.8-0.1-1.5-0.1-2.3-0.1c-8.3,0-16.2,4.2-16.7,4.4
			c-1.5,0.7-2.7,1.8-3.2,2.4c0.1,0,0.3,0,0.4,0c0.3,0,0.5,0,0.8,0.2c0.1,0.1,1,0.5,1.7,0.8c0.5,0.2,1.1,0.4,1.2,0.4
			c0.7,0.1,2.9,0.9,3.1,0.9c0.4,0.2,1.6-0.2,2,1c0,0.1,0,0.1,0,0.2c-0.1,0.3-0.2,0.5-0.2,0.6c0.4,0.2,0.9,0.4,1.1,1.1h0v0h-0.2
			l0.1,0.1c-0.1,0.4-0.4,0.9-0.4,1h0c0,0.2,0.8,1.4,1,1.9c0.1,0.2,0.1,0.5,0.1,0.8c0,0.3-0.1,0.6-0.3,0.9c-0.1,0.1-0.2,0.2-0.2,0.2
			c0.1,0.2,0.1,0.3,0.1,0.5c0,0.4-0.1,0.7-0.4,1c-0.1,0.1-0.5,0.7-0.8,1c-0.2,0.2-0.8,1.3-1.3,1.7c-0.5,0.3-1.1,0.3-1.3,0.4l0,0
			c-0.5,0.8-1.5,1-2.1,1.1c-0.1,0-0.1,0-0.2,0c-0.2,0.1-1.2,0.6-1.9,0.6c-0.3,0-0.7-0.1-0.8-0.5c-0.2-0.5-0.3-1.1-0.3-1.6
			c0-0.4,0-0.7,0.1-1c0.2-0.6,0.8-1,0.8-1.1c0-0.1,0.1-0.2,0-0.3c0-0.1,0-0.2,0-0.2c0-0.1-0.7-0.5-0.7-1.3c0-0.3,0.1-0.7,0.4-0.9
			c0.6-0.6,2.1-3.3,2.3-3.9c0.1-0.2,0.1-0.4,0.1-0.5c0-0.3-0.1-0.7-0.1-0.6c0,0-1.9-1.1-2.1-1.2c-0.1-0.1-2.4-0.6-2.8-0.5v0l0,0
			h-0.1c-0.2,0-0.5,0-0.8,0c-0.6,0-1.2,0.1-1.3,0.2c-0.6,0.4-2.1,0.9-2.3,1.1c-0.2,0.2-1.4,1.2-1.4,1.2l-1.6,1.3c0,0-1.8,1.7-2,5.5
			c0,0.2,0,0.4,0,0.6c0,0.7,0,1.4,0.2,2.3c0,0,0.2,1.7,1.2,2.9c0.2,0.3,2.4,2,2.4,2c0.1,0,1,0.2,1.1,0.2c0.4,0,1.1,0.3,1.6,1.2
			C116,190.1,116.8,192.1,117.5,192C117.4,191.9,117.4,191.9,117.5,192C117.5,191.9,117.5,192,117.5,192 M109.4,188.5
			c-0.3,0.1-2.3,2.8-2.2,4.4c0,0.2,0,0.3,0,0.4c0.3,1.5,1,4,1.3,4.9l0.6-0.1l8.7-1c0,0,0.6-0.1,1.3-0.4c0.8-0.3,1.8-0.8,2.3-1.3
			c0.5-0.5,1.3-1.8,2.2-3.1c-0.7,0.4-1.4,0.6-2,0.6c-0.7,0-1.2-0.2-1.3-0.3c-0.2-0.1-1-0.4-1.5-0.6l-1,0.9c-0.1,0-0.3,0.1-0.4,0.1
			c-1.8-0.1-2.2-2.6-2.5-3c-0.2-0.4-0.8-0.7-0.8-0.7c-0.3,0-1.2-0.2-1.4-0.3c0,0-1.6-1.2-2.3-1.9
			C110.2,187.4,109.9,188.2,109.4,188.5 M53.4,146.9c0.2,0.1,0.3,0.4,0.2,0.6c0,0-3.1,5.3-3.9,7.3c-0.6,1.6-1,3.9-1.1,5.3
			c0,0.4-0.1,0.8-0.1,0.9c0,0.6,0.1,4.3-0.3,7.2c-0.1,0.5-0.1,0.9-0.1,1.3c0,0.2,0,0.4,0,0.6c0,1.5,0.3,2.2,0.3,2.3
			c0.2,1.8,0.4,3.3,0.7,4.5c1,3.6,2.3,5.1,2.7,5.8c0.4,0.8,2.9,4.2,3,4.3c0,0.1,1.6,4.2,1.7,4.9v0c-0.1,0.7-0.9,1.6-1.2,3.1
			c0,0.2,0,0.4,0,0.5c0,0.8,0.3,1.3,0.5,1.7c0.1,0.1,0.2,0.2,0.2,0.2c0.5,0.4,1,1.1,1.4,1.4c0.1,0.1,0.5,0.2,0.8,0.2
			c0.2,0,0.5,0,0.6,0c0.2,0,1.1-0.6,1.2-0.6c0,0,0.1-0.4,0.1-0.9c0-0.5,0.2-1.7,0.3-2c0.1-0.3,0.3-0.8,0.4-1.2c0-0.1,0-0.2,0.1-0.3
			l0.1-0.1c0-0.1,0.1-0.1,0.1-0.2c0.5-0.5,1.3-0.7,1.4-0.8c0.1,0,0.4-0.4,0.9-0.5c0.1,0,0.1,0,0.2,0h0c0.6,0,1.1,0.5,1.1,0.4
			c0,0,0.4,0.1,1,0.1c0.4,0,0.9,0,1.4-0.2c0.1,0,0.2-0.1,0.2-0.1c-0.2-0.1-0.4-0.3-0.6-0.3c-0.4-0.2-1.9-0.7-2.4-1.4
			c-0.2-0.3-1.3-0.7-1.7-0.7c-1.2-0.4-2.1-2.9-3-5.3c-0.7-2.2-1.2-4.9-1.2-7.8c0-0.1,0-0.2,0-0.2c0-0.1,0-0.1,0-0.2
			c0-2.7-1.9-6.5-2.5-7.9c-0.1-0.3-0.2-0.6-0.3-0.8c-0.1-0.2-0.1-0.4-0.1-0.5c0-0.4,0.3-0.8,0.3-0.7c1.4-1.2,2.2-4.6,2.7-6.1
			c0.6-1.7,1.8-2,2.7-2.5c0.5-0.2,1.4-1.1,2.3-2.3c0.6-0.8,1.1-1.8,1.4-2.8c0.2-0.7,0.3-1.4,0.3-2.2c0-1-0.2-2.1-0.7-3
			c-0.5-0.9-1.2-1.8-2.1-2.6c-0.5-0.3-0.9-0.6-1.4-0.9c-1.6-0.8-3.2-1-4.1-1.1c-0.1,0-0.1,0.1-0.2,0.1c-1.8,0.1-10.2,1.1-12.6,3.9
			c-2.1,2.3-3.5,4.1-3.4,5.7c0,0.7,0.3,1.4,0.9,2.2c1.8,2.3,3.8,4.3,5.5,4.2c0.3,0,0.5,0,0.8-0.1c0,0,0.1,0,0.1,0
			c0.2-1.4,0.6-3.5,1.1-5.1c0.9-2.2,4-7.4,4-7.5c0.1-0.1,0.2-0.2,0.4-0.2C53.2,146.9,53.3,146.9,53.4,146.9 M75.8,195.8
			c0,0.1,3.4,4.8,4.6,6.9l5.9-1.3c1.6-0.9,1.9-1.4,1.9-1.6c0.5-0.7,1.2-0.6,1.7-0.8c0.3-0.1,2-1.1,2.4-1.4c0.4-0.3,0.8-0.4,1.1-0.4
			c0.2,0,0.5,0,0.7,0.1c0.5,0.2,0.7,0.6,0.8,0.9c0.3,0,0.6-0.1,1-0.1c0.5-0.1,0.9-0.1,1-0.1c0.8-0.3,1-0.8,1-1.6
			c0-0.4-0.1-0.9-0.2-1.2c-0.1-0.6-2-1.8-2.1-1.8c-0.1-0.1-0.2-0.2-0.2-0.3c0-0.1,0-0.2,0.1-0.4c0.2-0.3,0.3-0.6,0.3-0.8
			c0-0.4-0.3-0.7-0.3-0.7l-0.2-0.2c-0.3-0.8-0.9-1-1.6-1.2c-0.4-0.1-0.7-0.1-0.8-0.1c-0.8-0.1-3-1.8-3.6-2.2
			c-0.1-0.2-4.4-0.5-6.2-0.8c-0.1,0-0.2,0-0.4,0c-1.3,0-2.2,1.2-2.6,1.6c-0.4,0.5-1,1-1.8,1.1c-0.2-0.1-1.2,1-1.5,1.4
			c-0.3,0.3-0.7,0.7-0.9,0.9c-0.1,0.1-0.2,0.2-0.3,0.2c-0.3,0.1-0.5,0.7-0.5,1.4c0,0.8,0.2,1.6,0.2,1.6c0,0,0,0,0,0.1
			C75.4,195.4,75.6,195.6,75.8,195.8C75.8,195.7,75.8,195.8,75.8,195.8 M90.3,204.6c0.1,0,0.2,0,0.3-0.1l0,0
			C90.5,204.5,90.4,204.6,90.3,204.6 M90.2,204.6c0,0-0.1,0-0.1,0C90.1,204.6,90.1,204.6,90.2,204.6 M90.3,204.6
			C90.3,204.6,90.3,204.6,90.3,204.6C90.3,204.6,90.3,204.6,90.3,204.6 M90.2,204.6C90.2,204.6,90.2,204.6,90.2,204.6
			C90.2,204.6,90.2,204.6,90.2,204.6 M90.2,204.6L90.2,204.6L90.2,204.6z M23.1,177.6c-0.8,1.2-1.8,3.3-2.3,7.1
			c0,0-0.4,7.6-1.4,10.8c-1.9,4.1-6,8.3-6,8.3c0,0-0.3,0.4-0.3,0.8c0,0.3,0.1,0.6,0.5,1l3,2.1c0,0,0,0,0.1,0c0.2-0.2,0.9-1,1.1-1.4
			c0.1-0.2,0.1-0.2,0.6-1.2c0.6-1.4,1.7-3.7,1.7-3.7c0.7-1.8,0.7-2.4,0.7-2.5h0.1l-0.1-0.1l1-13c0.1-4.9,2.5-8.1,3.4-9.2
			c-0.2-0.1-0.5-0.2-0.7-0.2C24.2,176.4,23.7,176.7,23.1,177.6 M17.7,208.7c0.4,0.2,0.9,0.3,1.5,0.5c0.7,0.2,1.4,0.4,1.8,0.5
			c0.2-1,1.1-2,1.1-2c0.2-0.3,0.4-0.6,0.6-1c1.4-2.6,1.8-6.6,1.8-10.7c0-3.1-0.2-6.3-0.2-9c0-0.1,0-0.1,0-0.2c0-5.4,2.5-8.3,3.7-9.4
			c-0.6-0.1-1.3-0.3-1.9-0.5c-0.4,0.4-3.3,3.5-3.5,8.9l-1,12.9c0,0.1,0,0.1,0,0.2c0,0.3-0.1,1-0.8,2.9c0,0-1.1,2.4-1.7,3.7
			c-0.4,1-0.5,1.1-0.6,1.3c-0.3,0.5-1,1.3-1.3,1.6h0c0,0,0,0.1,0,0.1l0,0C17.3,208.5,17.5,208.6,17.7,208.7 M29,212.1
			c0.3,0,0.7,0,1,0c0,0,0,0,0.1,0c0.1,0,0.2,0,0.3,0h0c0,0,0.1,0,0.1,0h0c0.4,0,0.8,0,1.2,0.1c-0.5-1.5-0.7-2.9-0.7-4.2
			c0-1.7,0.3-3.2,0.5-4c0.5-2.3,0.9-4.7,0.9-5.5c0-0.1,0-0.2,0-0.2c0-1.5-1.3-8.3-1.3-13c0-3.6,1.6-6.1,2.5-7.2
			c-1.5-0.1-3-0.3-4.5-0.6c0,0,0,0,0,0c0,0-3.9,2.6-3.9,9.2c0,0.1,0,0.1,0,0.2c0,2.7,0.2,5.9,0.2,9c0,4.2-0.3,8.3-1.9,11.2
			c-0.2,0.4-0.4,0.7-0.7,1.1c0,0-1,1.2-0.9,1.6c0.1,0.1,0,0,0.3,0.1c1.6,0.1,2.8-0.1,3.9,1.1c0.3,0.4,0.7,0.7,0.9,0.9
			C26.9,211.9,27.8,212.1,29,212.1 M34.6,212.5c0.7,0.1,2.6,1.4,3.4,1.9c0.4-1.2,1.3-2.5,2.3-3.7c0.4-0.4,0.9-0.8,1.4-1.2
			c-0.3-0.2-0.8-0.5-1.2-0.9c-0.6-0.5-0.8-1.2-0.7-2c0-0.4,0-0.8,0-1.4c0-0.3,0-0.6,0-1c0-0.1,0-0.2,0-0.2c0.2-3,4.5-3.7,5.6-3.9
			c1-0.1,5.5-1.2,5.5-1.2l3.9-1.7c-0.2-0.5-0.4-1-0.4-1.8c0-0.2,0-0.4,0.1-0.7c0.2-1.6,1.2-3,1.1-3v0c0-0.1-1.5-4.4-1.6-4.4
			c0,0-2.5-3.4-3-4.4c-0.2-0.5-1.7-2.1-2.7-5.6c-1.2,0.2-5.3,0.7-10.2,0.7c-1.1,0-2.1,0-3.2-0.1c-0.3,0.3-2.7,3-2.7,7.2
			c0,4.5,1.3,11.2,1.3,13H33l0.3,0c0,1.1-0.4,3.4-0.9,5.8c-0.2,0.8-0.5,2.2-0.5,3.8c0,1.3,0.2,2.7,0.8,4.1c0,0,0,0.1,0,0.1
			C33.6,212.3,34.4,212.5,34.6,212.5 M65.6,219.9c0.6,0.4,1.5,0.7,2.7,0.7c0.1,0,0.2,0,0.3,0c3.4-0.5,5.9-2.5,6.8-4
			c0.7-1.2,1.2-2.7,1.2-4.4c0-1.9-0.7-4.2-2.9-6.9c-0.2-0.2-0.1-0.5,0.1-0.6c0.2-0.2,0.5-0.1,0.6,0.1c2.3,2.9,3.1,5.3,3.1,7.5
			c0,1.6-0.4,2.9-1,4.1c3.7-0.9,4.5-6,4.6-7.6v0c0-0.1-0.4-1.7-0.4-1.7c0,0-0.4-1.8-0.8-3.3c-0.1-0.7-4.9-7.4-4.9-7.4c0,0,0,0,0,0
			c-0.1-0.1-0.3-0.3-0.5-0.5l-0.1-0.1c-1.7-1.2-5.3-2.3-6.5-2.6c-0.2,0.2-0.5,0.4-0.8,0.5c-0.6,0.2-1.2,0.3-1.7,0.3
			c-0.7,0-1.2-0.1-1.3-0.2c0,0-0.2-0.1-0.4-0.2c-0.1-0.1-0.3-0.1-0.4-0.2c0,0,0,0,0,0c0,0-0.3,0.2-0.6,0.4c-0.3,0.2-1,0.4-1.2,0.6
			c-0.1,0.3-0.4,1-0.4,1.3c-0.1,0.3-0.3,1.5-0.3,1.9c-0.1,0.4,0.1,1.2-0.5,1.6c0,0-0.8,0.7-1.6,0.8c-0.2,0-0.4,0-0.7,0
			c-0.4,0-0.9,0-1.4-0.4c-0.5-0.4-1-1.1-1.4-1.4c0,0-0.1-0.1-0.1-0.1l-4.2,1.8c0,0-4.4,1.1-5.6,1.2c-1,0-5,1.2-4.9,3c0,0,0,0,0,0.1
			c0,0.4,0,0.7,0,1.1c0,0.6,0,1,0,1.4c0,0.8,0.1,1,0.4,1.3c0.7,0.5,1.3,0.9,1.5,1c1-0.6,2-1.2,2.6-1.5c-0.4-0.4-0.6-0.7-0.6-0.7v0
			c-0.2-0.2-0.2-0.5,0-0.6c0.2-0.2,0.5-0.2,0.6,0c0,0,0.4,0.4,1,1.1c1.9,2,6.2,6.5,8.3,7.8c0.5-1.8,1.2-3.4,1.8-4.7
			c1.4-3,4.3-4.9,4.3-4.9l0.4,0c7.3,2.6,8.5,4.8,8.5,6.6c0,0.5-0.1,0.9-0.1,1.2c-0.3,1.7-2.5,2.2-3.4,2.3c-0.2,1-0.8,2.4-1.4,3.5
			c0.1,0,0.2,0.1,0.2,0.2h0C64.7,219.2,65,219.6,65.6,219.9 M98.9,221.8c0,0,0.1,0.2,0.2,0.4c0.1,0.2,0.2,0.2,0.2,0.2
			c0,0,0,0,0.2-0.2l0.8-1.2l0.9-1.5c0,0,0-0.1,0.1-0.1c0.8-2.7,1.5-5.2,1.5-5.2c0.4-3.2,0.9-5.6,1.5-7.4c-0.2-0.1-0.5-0.2-0.9-0.2
			c-0.4,0-1,0.2-1.7,0.8c-1.3,1.2-1.5,1.4-1.6,1.5c-1.3,1.8-1.1,1.5-1.3,1.9c-0.1,0.3-0.7,2.9-0.7,3.2v0h-0.4l0.4,0v0
			c-0.1,0.5,0,1.1-0.5,1.6c-0.3,0.1-1,0.8-1.6,0.8c-0.1,0-0.2,0-0.4-0.2c0-0.1-1.1-1.5-1.2-1.4c-0.1,0-0.2,0-0.3,0
			c0,0.1,0,0.1,0,0.2c-0.2,0.6-0.6,0.7-0.8,0.8c0.1,0.1,0.1,0.1,0.3,0.2l1.3,1.2c0,0,1.3,1,1.8,1.1c0.2,0,0.3,0.1,0.5,0.1
			c0.6,0,1.3-0.2,1.6-0.8c0-0.1,0.1-0.1,0.2-0.2c0.1-0.6,0.1-1.1,0.2-1.2c-0.4-0.4-0.5-1-0.5-1.4c0-0.6,0.1-1.1,0.1-1.3v0
			c0-0.2,0.2-0.4,0.5-0.4c0.2,0,0.4,0.2,0.4,0.5c0,0.3-0.1,0.7-0.1,1.2c0,0.5,0.1,0.8,0.3,0.8c0.1,0,0.6,0,0.6-0.6
			c0.1-1.2,0.7-1.8,0.7-2.1c0.1-0.2,0.3-0.4,0.6-0.3c0.2,0.1,0.4,0.3,0.3,0.6c-0.2,0.6-0.6,1-0.7,1.9c-0.1,1.1-1,1.4-1.4,1.4
			c0,0.3-0.1,0.9-0.2,1.4c-0.1,0.8-0.2,1.5-0.5,1.9C99.3,220,98.9,221.4,98.9,221.8l-0.1-0.1L98.9,221.8z M26.2,216.4
			c-0.1,0.8-0.4,2.1-0.4,3.3c0.1,1.8,0.4,3.1,2.9,3.1h0c0.4-0.2,1.8-1.1,2.5-1.7c0.1-0.1,0.2-0.2,0.2-0.3c0.9-1,4-2.8,5.1-2.9
			c0,0,0,0,0,0c0,0,0,0,0,0c0.2,0,1.2,0,2.2,0c-0.5-0.6-1-1.4-1-2.4c0-0.1,0-0.1,0-0.2c0-0.1,0-0.1,0-0.2c-0.1-0.1-0.8-0.5-1.5-1
			c-0.8-0.5-1.6-1-1.7-1c-0.3,0-1-0.2-1.9-0.3c-0.7-0.1-1.5-0.2-2.1-0.2c-0.1,0-0.1,0-0.2,0c-0.1,0-0.2,0-0.3,0
			C29.1,213.1,26.2,215,26.2,216.4 M32.5,221.5c0,0,0.3,2.7,1.2,3.8c0.1,0.1,0.2,0.2,0.3,0.3c1.3,1.3,4.6,3.4,8.5,3.6
			c1.8,0.1,3.7,0.3,5.4,0.3c2.4,0,4.5-0.3,5.9-1.6c-0.2-1.9-0.2-3.9-0.3-5.7c0-0.3,0-0.5,0-0.8c0-2,0.3-3.9,0.7-5.5c0,0,0,0,0,0
			c-2.1-1.3-6.3-5.6-8.5-7.8c-0.5,0.2-1.8,0.9-3,1.7c-0.7,0.5-1.4,1-1.8,1.5c-1.1,1.3-2,2.7-2.2,3.8c0,0.2-0.1,0.3-0.1,0.5
			c0,0.1,0,0.1,0,0.1c0,1,1,2.1,1.5,2.5c0,0,0,0,0,0c0.8,0.1,1.5,0.2,2,0.7c0.7,0.9,1.2,3.7,1.3,3.6c0.3,0.3,3.1,2.6,3.1,2.6
			c0.2,0.2,0.2,0.4,0.1,0.6c-0.2,0.2-0.4,0.2-0.6,0.1c0,0-2.8-2.3-3.1-2.6c-0.6-0.7-0.9-3.1-1.4-3.7c0-0.1-0.8-0.3-1.7-0.4
			c-1.2-0.1-2.6-0.1-3.3-0.1v0c0,0,0,0-0.1,0c-0.5,0.1-3.3,1.6-4.1,2.4C32.4,221.3,32.4,221.4,32.5,221.5 M112.1,235.2
			c0,0.6,0.1,1.5,1.3,1.6c0.8,0.1,1.8,0.2,2.8,0.2c1.2,0,2.4-0.1,2.9-0.4c0.8-0.4,1.5-1.3,1.4-1.6c0-0.1,0-0.1,0-0.1
			c-0.2-0.5-1-1-1.6-1.8c-0.5-0.7-1.1-1.7-1.1-2.7c0-0.2,0-0.3,0.1-0.5c0,0,0.3-1.1,0.3-1.4c0,0,0,0,0,0l0,0c0-0.2,0-0.5,0-0.9
			c0-0.8,0-1.8,0.5-2.5c0.5-0.6,3.9-5.9,3.9-5.9c0,0,1.6-2.3,2.1-9.3c-2.4,0.2-5.6,0.7-9.2,1.5c0,1.1-0.1,6.3-0.1,8.3
			c0,0.4,0,0.7,0,0.7c0,0.2,0.1,0.8,0.1,1.4c0,1.1-0.1,2.6-0.7,3.5c-0.7,1-1.5,2.9-1.5,3.6c0,0,0,0,0,0.1c0,0.4,0.1,0.9,0.1,1.4
			c0,0.6,0,1.1-0.1,1.5c-0.2,0.4-1,3-1,3C112.1,234.9,112.1,235,112.1,235.2 M131.6,186c0.2,0,0.4,0.3,0.4,0.5
			c-0.1,0.9-1.4,5.5-1.5,6.4c-0.1,0.4-0.1,0.8-0.1,1.3c0,0.5,0.1,1,0.3,1.6c0.5,1.2,1.1,3.9,1.1,5.4c0,0.1,0,0.2,0,0.3
			c-0.1,1.4-0.7,4.8-1.2,6.8c-0.1,0.4-0.2,0.7-0.2,0.9l-0.3,1.1l-1.7,3.7c0,0-2.9,5.6-3.3,6.8c-0.4,0.9-1.5,3-1.5,6.2
			c0,1.5,0.3,3.3,1,5.3l0.9,3.5c1.7,5.1,2,5.2,3.7,5.5c0.1,0,0.1,0,0.2,0.1c0.2-0.7,0.3-1.3,0.3-1.6c0,0,0-0.1,0-0.1
			c0-1.2,0.8-3.1,1.8-5.5c0.8-1.9,1.6-8,1.8-10.1c-1.1,0.9-2.1,1.7-2.7,2.1c-0.2,0.1-1.5,2.1-1.5,2.1c-0.1,0.2-0.3,0.2-0.5,0.2
			c-0.2-0.1-0.3-0.3-0.3-0.5c0,0,1.5-23.8,17-42.8c-4.7-1.3-8.9-5.8-10.6-7.8c0,0.2,0,0.3,0,0.3c0,0-1.1,4.3-4.4,5.6
			c-0.2,0.1-1.1,0.6-1.2,0.6c-1,1.9-2,4.4-2,4.4c-0.3,0.5-0.5,0.9-0.8,1.3c0,0,0,0.1,0,0.1c0,0-3,5-4.2,6.3
			c-0.5,0.5-1.2,0.9-1.8,1.3c0,0.1,0,0.2,0,0.3l0,0l-2.8,5.9c0,0.2,0,0.4,0,0.5c0,1.9-0.7,4.1-1.7,6.3c3.6-0.8,6.8-1.2,9.3-1.4
			c2.4-0.2,4-0.2,4.6-0.2c0-0.2,0.1-0.4,0.2-0.7c0.5-1.9,1.1-5.4,1.1-6.6c0-0.1,0-0.2,0-0.2c0-1.3-0.6-4.1-1-5.1
			c-0.3-0.7-0.4-1.4-0.4-1.9c0-0.5,0.1-1,0.1-1.4c0.1-1,1.4-5.6,1.5-6.4v0C131.2,186.1,131.3,185.9,131.6,186
			C131.6,185.9,131.6,186,131.6,186 M99.6,240.6c0,0.2,0.1,0.6,0.2,0.7c0.2-0.3,0.4-0.9,0.5-1.5c0.3-1.1,1-3.8,1.9-5.2
			c1-1.5,2.7-1.6,2.7-1.6c0.2,0,0.5,0.2,0.5,0.4l0.1,0.6c0.3-0.7,0.6-1.5,0.6-2.5c0-0.4,0-0.8-0.2-1.3c-0.5-2.1-0.7-3.3-0.7-4.2
			c0-0.7,0.1-1.2,0.3-1.7c0.4-1,4.9-6.3,8.1-12.1c0.3-0.6,0.6-1.2,0.9-1.8c1.1-2.4,1.9-4.7,1.9-6.6c0-0.2,0-0.4,0-0.6l0-0.2l2.6-5.5
			c-0.6,0.2-1.1,0.3-1.1,0.3l-8.3,1c0,0,0,0,0,0v0c0,0-0.6,2.2-1.3,2.8c-0.4,0.3-1.7,1.1-3,4.9c-0.6,1.8-1.2,4.2-1.6,7.7
			c0,0-0.8,2.7-1.6,5.5c-0.7,2.3-1.4,4.7-1.9,5.7c-0.9,2-2.1,3.6-2.1,4.7c0,0.5-0.1,1-0.1,1.5c0,0.5,0.1,1,0.2,1.4
			c0.1,0.1,0.1,0.1,0.1,0.2c0,0,0,0.1,0.1,0.1c0.1,0.2,0.3,0.5,0.6,0.7l0.2,0.3L99.6,240.6z M64.2,241.8c0.1,0,0.2,0.1,0.2,0.1
			c0.1-0.1,0.1-0.1,0.1-0.1c-0.1-0.4-0.5-1.6-0.5-1.6l-0.5-1.8l-0.5-1.1l-0.4-1.2c-0.1-0.2-0.1-0.4,0.1-0.5l0,0l0,0c0,0,0,0,0,0
			c0.2-0.2,0.5-0.2,0.6,0l0,0c0,0,0.1,0.1,0.1,0.1l2.1,2.8l1,1.8c0,0,0.3,0.3,0.4,0.3c0.3-0.1,0.3-0.1,0.3-0.2c0,0,0-0.1-0.1-0.3
			c-0.3-0.7-0.9-2.2-0.9-2.2c0,0-0.9-1.8-1.7-2.3c-0.2-0.1-0.2-0.4-0.1-0.6c0.1-0.2,0.3-0.3,0.5-0.2l2,0.8l2.5,1.6c0,0,0,0,0.1,0
			c0-0.1-0.1-0.2-0.1-0.2c-0.2-0.2-2.1-2.6-2.1-2.6c0,0-0.9-0.6-1.3-0.8c0,0-0.5-0.3-0.7-0.8c0,0-1.1-1.1-1.2-1.2
			c0-0.1-1.9-1.2-2.3-1.3c-0.5-0.2-2.2-0.1-2.3-1.6c0,0,0-0.1,0-0.2c0.2-1.1,2-5.3,2-5.4l1.3-2.7c0,0,0.2-0.4,0.5-1.1
			c0.6-1.2,1.6-3.4,1.6-4.1c0-0.2,0.2-0.4,0.4-0.4c0,0,3.1-0.6,2.9-1.6c0-0.4,0.1-0.7,0.1-1.1c0-1.2-0.6-3-7.7-5.6
			c-0.6,0.5-2.7,2.1-3.8,4.4c-0.7,1.4-1.4,3.1-1.9,5c-0.4,1.7-0.7,3.6-0.7,5.7c0,0.2,0,0.5,0,0.7c0.1,1.9,0.1,3.9,0.3,5.8
			c0,0.1,0,0.1,0,0.2c0.2,2.9,0.8,5.4,1.7,6.1c0,0,1.4,1.2,1.6,1.3c0.1,0.1,1.3,0.8,1.6,1.4c0.1,0.3,0.4,0.9,0.4,1.4
			c0,0.1,0,0.3-0.2,0.5c-0.3,0.2-0.7,0.5-0.9,0.6c0,0,0,0,0,0c0,0-0.1,0.2-0.1,0.3c0,0.1,0,0.1,0,0.1c0.4-0.4,0.8-0.6,1.1-0.6
			c0,0,0.4-0.2,0.7-0.3c0.3-0.2,0.5-0.4,0.5-0.4c0-0.5,0.1-0.8,0.1-1c0-0.1,0-0.1,0-0.2c0-0.1,0.1-0.2,0.3-0.3c0,0,0,0,0,0
			c0,0,0,0,0,0c0.1,0,0.2,0,0.3,0c0,0,0,0,0,0c0,0,0,0,0,0c0.1,0,0.2,0.1,0.2,0.2c0,0,0,0,0,0L64.2,241.8
			C64.2,241.8,64.2,241.8,64.2,241.8 M150.8,242.5c1.8,0.1,2,0.1,3.7,0.1c0.3,0,0.6,0,0.9,0c0.4,0,0.9,0,1.4,0
			c-2.5-1.3-6.7-5-6.9-14.2c0-0.2,0.2-0.5,0.4-0.5c0.2,0,0.5,0.2,0.5,0.4c0.3,12.7,8,14,8,14.1c0,0,0.1,0,0.1,0
			c2.8-0.2,5.8-0.4,7.4-0.6c-1.7-1.7-2.7-5.7-2.8-9.6c0-1.3,0.1-2.5,0.4-3.7c1.1-4.4,4.1-15,4.1-27.5c0-2.7-0.1-5.5-0.5-8.3
			c-0.9-8.1-2-14.1-3.7-18.4c-0.8,1-1.6,1.7-1.6,1.7l-3.8,3.1c-1.2,2.1-5.3,4.2-6.5,5c-0.9,0.6-1.8,1-2.7,1.2v0l-3.4,13.2
			c-0.1,0.2-0.3,0.4-0.5,0.3c-0.2-0.1-0.4-0.3-0.3-0.5l3.3-12.8c-0.2,0-0.4,0-0.6,0c-0.5,0-1-0.1-1.5-0.1
			c-13.2,15.7-16.3,35.2-17,40.9c0.3-0.4,0.6-0.7,0.8-0.9c0.7-0.5,1.9-1.5,3.3-2.6c4.3-3.4,10.8-8.9,12.3-11c0.5-0.6,1-1.1,1.6-1.5
			c1.8-1.3,4-1.4,5.3-1.4c0.7,0,1.1,0.1,1.1,0.1h0c0.2,0,0.4,0.3,0.4,0.5c0,0.2-0.3,0.4-0.5,0.4c0,0-0.4,0-1,0c-1.1,0-3,0.2-4.5,1.1
			c0,0.3,0,0.6,0,0.9c0,10.3-9.7,23.8-10.6,25.5c-0.2,0.4-0.3,1.1-0.3,1.8c0,0.9,0.1,1.8,0.3,2.6c0.1,0,0.1,0,0.2,0.1l0,0
			c0,0,0.1,0,0.2,0c0.2,0,0.5,0.1,0.9,0.1c0.8,0.1,1.8,0.2,3.1,0.2c1.1,0.1,2.4,0.1,3.7,0.2c-2.6-1.6-5-4.2-5-4.3h0
			c-0.2-0.2-0.1-0.5,0-0.6c0.2-0.2,0.5-0.2,0.6,0c0,0,3.9,4.3,6.8,4.9c0,0,0.1,0,0.1,0C149,242.4,149.9,242.5,150.8,242.5
			 M100.9,247.5l4.6-1.1l-2-5.5L100.9,247.5z M100.6,242l-0.8,5.8l0.1,0l3.2-8.2c0.1-0.2,0.2-0.3,0.4-0.3c0.2,0,0.3,0.1,0.4,0.3
			l2.5,6.7l0.1,0l-1.6-11l-0.1-1.2c-0.5,0.1-1.2,0.4-1.6,1.1c-0.7,1.1-1.5,3.9-1.7,4.9C101.1,240.8,100.8,241.5,100.6,242
			C100.6,241.9,100.6,241.9,100.6,242 M62.3,248.8l2,0.2c0.3,0,0.6,0,0.9,0c7.1-0.1,7.1-3,8.8-6.2c0.2-0.4,0.3-0.7,0.4-1.1
			c0-0.1,0.1-0.3,0.1-0.4c0.1-0.3,0.1-0.6,0.1-0.9c0-1.5-0.8-2.4-1-3.1c-0.1-0.3-0.6-1.7-1.2-3.5c-0.9-2.8-2-6.2-2.1-7.1
			c-0.1-1.1-1.8-4.7-2.1-5.2c-2.4,0-3.8-1.3-4.2-1.7c-0.2,0.5-0.4,0.8-0.4,0.8l-1.3,2.7c0,0-1.8,4.3-1.9,5.2h0
			c-0.1,0.2,1,0.6,1.6,0.7c0.8,0.2,2.3,1.2,2.7,1.5c0.2,0.2,1.2,1.1,1.5,1.6c0,0,0.3,0.3,0.3,0.3c0.5,0.2,1.4,0.9,1.5,1
			c0,0,2,2.4,2.1,2.6c0.2,0.2,0.4,0.5,0.4,0.9c0,0.1,0,0.3-0.1,0.5c-0.4,0.4-0.8,0.4-0.9,0.4l-0.3-0.1l-2.5-1.6l-0.3-0.1
			c0.4,0.6,0.7,1.2,0.7,1.3c0,0,0.6,1.5,0.9,2.2c0.1,0.2,0.1,0.4,0.1,0.6c0,0.7-0.6,1-0.9,1.1c-0.1,0-0.1,0-0.3,0
			c-0.7-0.1-1.1-0.6-1.2-0.7l-1.1-1.8l-0.3-0.4l0.4,1.5c0,0,0.4,1.3,0.5,1.6c0,0.1,0.1,0.2,0.1,0.3c0,0.5-0.4,0.7-0.5,0.9
			c-0.1,0.1-0.3,0.1-0.4,0.1c-0.4,0-0.8-0.2-0.9-0.2l-0.2-0.2l-1.5-3.1c-0.4,0.7-1.4,1-1.7,1.1c-0.2,0-0.5,0.1-0.6,0.3
			c-0.2,0.2-0.4,0.4-0.7,0.4c-0.3,0-0.4-0.1-0.4-0.1c-0.4-0.2-0.6-0.7-0.5-1c0-0.4,0.1-0.6,0.2-0.8c0.3-0.4,0.8-0.6,1-0.8
			c0-0.2-0.2-0.8-0.3-1c0,0,0,0-0.1-0.1c-0.1-0.1-0.3-0.2-0.5-0.4c-0.4-0.3-0.7-0.5-0.8-0.6c-0.1-0.1-1.6-1.3-1.6-1.3
			c-1.3-1.1-1.7-3.3-2-6c-1.6,1.1-3.8,1.4-6,1.4c-1.8,0-3.6-0.2-5.4-0.3c-3.7-0.2-6.8-2-8.5-3.4c0,0.3-0.1,0.8-0.1,1.4
			c0,1.7,0.4,4,2.2,5.7c0.1,0.1,0.1,0.1,0.2,0.2c3.6,3.1,6.7,6.5,10.8,8.5c4.1,2,13.4,5.7,14.3,6C61.5,248.5,61.8,248.7,62.3,248.8
			C62.2,248.8,62.3,248.8,62.3,248.8C62.3,248.8,62.3,248.8,62.3,248.8 M131.9,249.1c0,0,1.4,0.5,1.9,0.5c0.3,0,0.7,0.1,1,0.1
			c0.3,0,0.6,0,0.7-0.1c0.6-0.4,1.6-0.7,1.9-1c0.4-0.2,1.5-1.4,1.5-1.9c0,0,0,0,0,0h0c0.1-0.4-1.9-3.4-2-3.6c0,0-0.1-0.4-0.2-0.9
			c-0.2-0.8-0.4-2-0.4-3.2c0-0.8,0.1-1.5,0.4-2.2c1-1.9,10.5-15.3,10.5-25.1c0-0.1,0-0.2,0-0.3c-0.3,0.2-0.5,0.5-0.7,0.8
			c-1.6,2.3-7.9,7.4-12.2,10.9c0,0.1,0,0.1,0,0.2c0,0-0.8,8.4-1.9,11c-1,2.4-1.8,4.4-1.7,5.2h-0.4l0.4,0l0,0c0,1.1-0.7,3.6-1,4.4
			c-0.2,0.4-0.6,1.2-0.8,1.9c-0.1,0.3-0.1,0.7-0.1,1c0,0.1,0,0.2,0,0.3c0.1,1.4,0.3,2.2,0.8,2.1c0.1,0,0.3,0,0.4,0
			c0.8,0,1.8-0.2,1.8-0.2L131.9,249.1z M74.5,253.7c1.7-1.9,2.3-2,2.3-2.9c0.1-0.7,0.3-2,0.3-3.3c0-1-0.1-2-0.5-2.6
			c-0.6-1.1-1.2-1.9-1.6-2.4c-0.1,0.2-0.2,0.4-0.3,0.6c-1.4,3-2.2,6.8-9.6,6.7c-0.1,0-0.2,0-0.4,0c1.5,0.7,3,1.4,3.4,1.8
			c0.2,0.2,0.2,0.5,0,0.6c-0.2,0.2-0.5,0.2-0.6,0c-0.4-0.4-3.7-1.9-5.5-2.6c-0.5-0.2-0.9-0.3-1.1-0.4c-1-0.4-10.2-4-14.4-6
			c-4.3-2-7.3-5.5-10.8-8.5c-0.2,0.2-0.6,0.7-0.6,1.2c-0.1,0.9-0.1,2.7-0.8,4.4c-0.7,1.5-2.1,5-2.1,5.8h0h0h0h0l0,0.1
			c0.1,0.7,1.9,3.8,2.1,4.4l0,0c0,0,0.1,0.1,0.1,0.1c0.1,0.1,0.2,0.2,0.3,0.3l0,0l0,0c0,0,0.8,0.1,0.9,0.1h0c0,0,0.1,0,0.1,0
			c0.2,0,0.6,0,0.7,0h0.1c0.1,0,0.4-0.1,0.5-0.2c0-0.2-0.1-0.7,0.4-1c0,0,0,0,0.1-0.1c0.1-0.1,0.2-0.2,0.3-0.3
			c0.1-0.1,0.2-0.2,0.2-0.3c-0.4-0.1-0.8-0.3-1-0.4c-0.2-0.1-0.9-0.1-1.2-0.8c-0.1-0.3-0.3-0.5-0.3-1c0-0.2,0-0.3,0.1-0.5
			c0.3-0.6,0.8-1,1.2-1.3c0.4-0.2,3.9-2.8,5-2.9c0,0,0,0,0,0c0,0,0.1,0,0.1,0c0.6,0.1,2.1,0.4,3,1.1c0.5,0.5,6,5.1,6.9,5.5
			c1.2,0.6,5.8,3.3,7.9,3.5c2.3,0.3,6.4,1.1,8.1,1.6c0.8,0.2,2.2,0.5,3.5,0.5C72.6,254.8,73.8,254.5,74.5,253.7 M98.5,255.7
			l23.6-6.7l-12.6-2.6l-2.1,0.5l0.6,3.8c0,0.2-0.1,0.4-0.3,0.5c-0.2,0.1-0.5-0.1-0.5-0.3l-1.3-3.7l-5.3,1.2l-1.7,4.6
			c-0.1,0.2-0.3,0.3-0.5,0.3c-0.2-0.1-0.4-0.3-0.3-0.5l0.7-3.9l-12.2,2.9L98.5,255.7z M85.3,255l12.8,4.3l0-2.8l-12.8-4.2L85.3,255z
			 M98.9,259.4l24.6-7.2v-2.6l-24.6,7L98.9,259.4z M98.5,260.4l-13.8-4.7l-0.3-0.4v-3.6c0-0.1,0.1-0.3,0.2-0.3
			c0.1-0.1,0.2-0.1,0.3-0.1l14-3.3l0.8-5.7c-0.9-0.3-0.9-1.4-0.9-1.6c0,0,0-0.1,0-0.1l-0.3-5.7c-0.3-0.3-0.5-0.5-0.7-0.8
			c0-0.1-0.1-0.1-0.1-0.2c-0.5-0.3-1-0.4-1.5-0.4c-1.5,0-3.1,1.3-5.3,2.1c-2.9,1-5.9,1-5.9,1.1c-0.1,0-0.2,0-0.2-0.1
			c-3-0.7-10-8.4-10.1-8.4h0c-0.2-0.2-0.2-0.5,0-0.6c0.2-0.2,0.5-0.2,0.6,0c0,0,1.6,1.7,3.6,3.5c-0.1-2-0.4-6.9-0.4-9.5
			c0-0.7,0-1.2,0.1-1.5c0.1-0.2,0.3-0.4,0.5-0.3c0.2,0.1,0.4,0.3,0.3,0.5c0,0.2-0.1,0.7-0.1,1.3c0,3.2,0.5,10.3,0.5,10.3
			c0,0,0,0,0,0c1.9,1.7,3.8,3.3,4.9,3.7c0.6-1.5,2.8-7.6,3.3-12.4c0,0,0.3-2.9,0.6-6.8v0c0-0.2,0.2-0.4,0.5-0.4
			c0.2,0,0.4,0.2,0.4,0.5c-0.3,4-0.6,6.9-0.6,6.9c-0.5,4.7-2.6,10.4-3.3,12.3c1-0.1,3.1-0.3,5-1c2-0.7,3.5-2.1,5.6-2.1
			c0.4,0,0.7,0.1,1.1,0.2c0-0.3-0.1-0.6-0.1-0.9c0-0.6,0-1.1,0.1-1.5c0.1-1.6,1.3-3.1,2.2-5.1c0.2-0.5,0.6-1.5,1-2.8l-0.2,0.3
			c-0.3,0.4-0.6,0.6-1,0.6c-1-0.2-1.1-1.2-1.1-1.1c-0.1-0.2-0.1-0.4-0.1-0.5c0-0.7,0.4-1.9,0.8-2.5c0,0,0.1-0.2,0.1-0.4
			c-0.5,0.3-1,0.4-1.5,0.4c-0.3,0-0.5,0-0.7-0.1c-1-0.2-2.2-1.3-2.2-1.3l-1.4-1.2c-0.4-0.3-0.6-0.6-0.6-1c0.1-0.6,0.6-0.7,0.8-0.8
			c0-0.1,0-0.2,0-0.2c0-0.6,0.6-0.7,0.9-0.7c0.2,0,0.4,0,0.6,0.1c0.7,0.2,1.3,1.1,1.6,1.6c0.1,0,0.2-0.1,0.3-0.2
			c0.3-0.2,0.5-0.3,0.6-0.4l0,0l0,0l0,0c0-0.1,0-0.2,0.1-0.3c0-0.2,0.1-0.5,0.1-0.6c0,0,0,0,0,0c0,0,0,0,0,0c0-0.6,0.6-3,0.8-3.5
			c0.2-0.4,0.2-0.4,0.9-1.4c0,0-0.1-0.1-0.1-0.2c-0.5-1.2-0.8-2.4-0.8-3.4c0-1.8,0.7-3.3,1.7-4.4c0-0.3-0.3-3.6-0.3-5.6
			c0-0.3,0-0.6,0-0.9c0.1-1.1,1.1-6.1,2.1-10.4c0.1-0.2,0.3-0.4,0.5-0.3c0.2,0.1,0.4,0.3,0.3,0.5c-1,4.3-2,9.4-2.1,10.3
			c0,0.2,0,0.5,0,0.8c0,1.4,0.1,3.6,0.2,4.7c1.4-1.3,3-1.9,3-1.9v0c0.2-0.1,0.5,0,0.6,0.2c0.1,0.2,0,0.5-0.2,0.6c0,0-5,2.1-4.9,6.4
			c0,0.8,0.2,1.7,0.6,2.8c0,0,0,0,0,0c0,0,0.1-0.1,0.1-0.1c0.1-0.1,0.5-0.4,1.5-1.4c0.8-0.8,1.7-1.1,2.4-1.1c0.5,0,0.9,0.1,1.1,0.3
			c1.3-3.5,2.8-4.5,3.1-4.8c0.2-0.1,0.7-1.4,0.9-2.1l-0.4,0c-0.2,0-0.4-0.1-0.5-0.3c0,0-1-3.4-1.4-5.3c0-0.2-0.1-0.4-0.1-0.6
			c0.1-2.2,2-4.6,2.6-5.1c0.2-0.1,0.8-1.4,0.8-1.5c0,0,0-0.1,0-0.1c-1-1.4-1.1-2.9-1.2-3c-0.1-0.9-0.2-1.7-0.2-2.4
			c0-0.1,0-0.2,0-0.2c-0.1,0-0.1,0-0.2-0.1c0,0-0.7-0.5-0.8-1.4c0-0.1,0-0.3,0.1-0.4c0,0,0-0.1,0-0.2c0-0.2-0.1-0.5-0.1-0.8
			l-5.1-2.4c-0.1,0.4-0.3,0.9-0.8,1.2c0,0-0.8,0.8-1.7,1.2c-0.5,0.2-1,0.2-1.3,0.2c-0.2,0-0.4,0-0.4,0l-0.3-0.2c0,0-0.2-0.5-0.4-0.8
			c0,0-1.3-0.9-1.3-3c-3.2,0-5.4-0.5-6.5-0.8c0.1,0.4,0.3,0.8,0.4,1.2c0.2,0.7,0.2,1.3,0.2,1.8c0,0.4,0,0.7-0.1,1.1
			c-0.1,0-0.4,3.6-2,4.4c-0.4,0.2-0.9,0.2-1.6,0.2c-2-0.1-4.8-0.3-5.5-1.4c-0.2-0.6-0.6-0.8-2.2-1.9c-1.1,0.8-5.7,4.3-5.7,12.7
			c0,0.9,0.1,1.9,0.2,3c0.3,0.2,0.7,0.3,1,0.5c0-0.3-0.1-0.7-0.1-1c0-0.8,0.1-1.8,0.9-2.2c0,0,0.1,0,0.2-0.1
			c0.2-0.2,0.6-0.6,0.9-0.8c0.4-0.4,1.2-1.5,2.1-1.7c0.3,0,0.9-0.5,1.2-0.9c0.3-0.4,1.4-1.9,3.3-1.9c0.2,0,0.3,0,0.5,0
			c1.8,0.3,5.6,0.3,6.6,0.9c0.4,0.3,1.9,1.3,2.7,1.8c0.3,0.2,0.4,0.2,0.4,0.2c0,0,0.2,0,0.4,0l-0.2-8.1c0-0.2,0.2-0.5,0.4-0.5
			c0.3,0,0.5,0.2,0.5,0.4l0.2,8.2c0.7,0.2,1.5,0.6,1.9,1.6c0.2,0.2,0.6,0.6,0.6,1.3c0,0.3-0.1,0.6-0.2,0.9c0.6,0.4,1.7,1.2,2.1,2.1
			c0.1,0.4,0.2,0.9,0.2,1.5c0,0.9-0.4,2-1.7,2.4c0,0-1.3,0.2-2.1,0.2c-0.3,1.3-1.1,2-1.4,2.3c0,0.6-0.1,2.2-0.1,3
			c-0.1,0.9-0.9,1.1-1.4,1c-0.2,0-0.3,0-0.4,0c-0.2,0.4-0.5,0.9-1.2,1.1c-0.2,0-0.7,0.5-1.3,0.6c0-0.1-0.3,0.5-1.1,0.7
			c-0.3,0.1-0.6,0.1-1,0.1c-1.6,0-3.3-0.8-4.1-1.6c-0.7-0.9-1.4-2.2-1.4-2.2v0c-0.1-0.2,0-0.5,0.2-0.6c0.2-0.1,0.5,0,0.6,0.2
			c0,0,0.6,1.3,1.2,2c0.4,0.5,2.1,1.3,3.4,1.3c0.3,0,0.5,0,0.7-0.1c0.5-0.1,0.5-0.5,1.2-0.8c0,0,0.1,0,0.2-0.1l-0.5-0.4
			c-0.2-0.2-0.2-0.4-0.1-0.6c0.2-0.2,0.4-0.2,0.6-0.1l0.6,0.5c0.1,0.1,0.1,0.1,0.1,0.2c0.1-0.1,0.3-0.1,0.4-0.1c0,0,0.2-0.2,0.4-0.5
			c-0.3-0.1-0.7-0.4-0.9-0.9h0v0c0,0,0-0.1,0.1-0.3c0.2-0.2,0.5-0.1,0.5-0.1c0.1,0.1,0.2,0.2,0.2,0.3l0,0c0.1,0,0.2,0.1,0.3,0.2
			c0.2,0.1,0.4,0.2,0.5,0.2c0,0,0,0,0,0c0,0,0.3,0.1,0.5,0.1c0.4,0,0.5-0.1,0.5-0.2c0.1-0.9,0.1-3.2,0.1-3.2l0.2-0.4
			c0,0,1-0.6,1.3-2.1c0-0.1-0.2-0.6-0.2-0.6c-0.2,0-0.3-0.1-0.4-0.1c-0.2,0-0.4,0-0.6,0.2c-0.5,0.4-2.1,1.3-2.7,1.6
			c-0.4,0.1-0.9,0.2-1.1,0.3l0,0c-0.2,0.4-0.6,1.1-2.4,2l-5.8,1.3c0.4,1.5,0.8,3.3,0.8,3.3c0,0,0.4,1.4,0.4,1.9c0,0,0,0,0,0
			c-0.1,1.9-1,7.9-6.1,8.6c0,0,0,0,0,0c-1.2,1.6-3.6,3.4-6.8,4.1c0.5,1,1.8,3.9,2,5.2c0.1,0.7,1.2,4.3,2.1,7
			c0.6,1.8,1.1,3.2,1.1,3.5c0.1,0.3,1.1,1.5,1.1,3.4c0,0.3,0,0.7-0.1,1.1c0,0,0,0,0,0.1c0,0,0.1,0.1,0.1,0.1c0,0,0.9,1.2,1.9,2.8
			c0.5,0.9,0.6,1.9,0.6,3c0,1.4-0.2,2.8-0.3,3.4c-0.2,1.5-1,1.6-2.6,3.4c-1,1.1-2.4,1.4-3.8,1.4c-1.4,0-2.8-0.3-3.7-0.6
			c-1.7-0.5-5.7-1.3-8-1.6c-2.5-0.3-7.1-3.1-8.2-3.6c-1.3-0.6-6.5-5-7.2-5.6c-0.4-0.4-1.7-0.8-2.5-0.9v0c0,0,0,0-0.1,0
			c-0.5,0.1-4.2,2.6-4.5,2.8c-0.3,0.2-0.8,0.6-0.8,0.9c0,0,0,0.1,0,0.1c0,0.1,0.1,0.3,0.2,0.6c0,0.1,0.2,0.1,0.7,0.3
			c0.3,0.1,1,0.3,1.3,0.4c0.3,0.1,0.4,0.4,0.4,0.6c-0.1,0.7-0.7,1.3-1.1,1.7l0,0v0c0,0.1,0,0.2,0,0.4c-0.2,0.9-0.9,0.8-1.2,0.9
			c-0.1,0-0.2,0-0.2,0c-0.3,0-0.6-0.1-0.7,0l0-0.2l0,0.2h-0.1c-0.4,0-1-0.1-1.2-0.2c-0.4-0.3-0.7-0.5-1-1.1l0,0c0,0,0-0.1-0.1-0.1
			c-0.1-0.1-0.1-0.3-0.2-0.4c-0.2-0.4-0.4-0.8-0.7-1.3c-0.5-1-1-2-1.1-2.6c0-0.1,0-0.2,0-0.3c0-1.3,1.4-4.6,2.2-6.2
			c0.7-1.5,0.7-3.2,0.8-4.1c0.1-0.8,0.5-1.4,0.8-1.7c-1.8-1.9-2.2-4.3-2.2-6c0-1.1,0.2-1.9,0.2-2.1c0-0.1-0.1-0.1-0.1-0.2
			c-0.9-1.2-1.3-3.1-1.4-3.9c-1,0.8-2.6,1.7-2.6,1.7l-0.3,0.1h-0.1c-3,0-3.8-2.1-3.8-4c0-1.3,0.3-2.7,0.4-3.4
			c0.2-1.4,1.5-2.6,2.7-3.3c-0.8-0.1-1.3-0.2-1.4-0.2c-0.5-0.3-0.9-0.7-1.3-1.1c-0.7-0.8-1.5-0.7-3.3-0.8c-0.3,0-0.5-0.1-0.7-0.3
			c-0.4-0.1-1.4-0.3-2.4-0.6c-1.2-0.4-2.1-0.5-2.6-1.2c0,0-0.1-0.1-0.1-0.3c-0.1,0-0.2,0-0.3-0.1l-3-2.1c-0.6-0.5-0.8-1.1-0.8-1.7
			c0-0.9,0.5-1.4,0.6-1.4c0,0,4.1-4.2,5.9-8c1-2.9,1.4-10.6,1.4-10.6c0.7-6.1,2.8-8.3,3.8-8.9c-0.9-1.5-1.2-2.7-1.2-3.6
			c0-0.9,0.3-1.5,0.6-1.8c-0.6-0.6-1-1.2-1.2-1.3c-0.6-0.6-0.9-1.9-1-3c0-0.6,0.1-1.1,0.5-1.5c0.7-0.6,2.8-3.1,2.7-3
			c3.1-5.6,6.3-6.7,6.8-6.8c0.1-0.4,0.1-0.7,0.2-1c0.6-2.4,2.6-3.2,3.9-3.9c1.1-0.6,2.5-3.4,4.1-4.4c1.6-1,5.3-1.6,8.3-2.3
			c1.1-0.2,2.4-0.3,3.8-0.3c2.5,0,4.9,0.3,4.8,0.3c0,0,0.1,0,0.3,0h0.2c0.8,0,2.4,0.2,4.1,0.9c0.1-1.1,1-1.9,1.5-2.2
			c0.1-0.1,0.4-0.1,0.5-0.2c0.4-1.7,3.5-2.2,4.5-2.4c0.4-1.8,2.7-2,4.4-2c1.7,0,3.1,0.3,3,0.3c0.3-0.1,0.7-0.1,1-0.1
			c2.7,0,5.2,1.6,5.8,2c0.1,0,0.3,0,0.4,0c2.2,0,3.4,2.1,3.7,2.8c1.4,0.5,1.8,1.9,1.8,3c0,1-0.3,2-0.3,2.1c0,0.3-0.3,1.3-1.7,1.5
			c-0.1,0-0.2,0-0.3,0c-0.3,0-0.7-0.1-1-0.2c-0.1,0.1-0.2,0.3-0.3,0.7c-0.3,0.7-1.6,3.9-1.9,5.3c-0.1,0.6-0.5,1.1-1,1.1
			c-0.3,0-0.5-0.1-0.7-0.2c-0.2,0.2-0.3,0.3-0.5,0.5c-0.4,0.2-0.9,0.3-1.1,0.3c-0.1,0.2-0.4,0.5-0.8,0.7c0,0-0.3,0.3-0.3,0.4
			c0,0.2-0.2,1.1-1.1,1.1c0,0,0,0-0.1,0c-0.9,0-2.4-0.9-2.5-0.9l-2-1.1c0,0.8-0.1,2.2-0.9,3.4c0,0.1,0,0.1,0,0.2v0.3
			c0,0.5,0,1.6-0.2,2.2c-0.2,0.3-0.4,0.5-0.7,0.7c0.6,0.5,2.6,1.9,3,3c0,0,0,0,0,0l1,0.3l0.9-0.1c0,0,2.3,0.3,2.5,0.3
			c0.4,0,2.3,0.4,2.3,0.4l0.3,0.3c0,0.1,0,0.2,0,0.3c-0.2,1.1-1.3,1.2-1.4,1.3l-1.5,0.2l0.3,0.5c0.2,0.3,0.2,0.6,0.2,0.8
			c0,0.8-0.6,1.3-0.9,1.6c0,0.2,0,0.4,0,0.6c0,1.7-1.2,2.3-1.2,2.3c-0.7,0.5-1.5,0.7-2.2,0.7c-1.3,0-2.5-0.6-3.4-1.1
			c-0.1,0-0.1,0-0.2,0c0,0-3.9-0.1-4.3-0.2c-4.5-0.4-6-4.5-6-4.4c-0.3-0.4-0.3-0.9-0.3-1.4c0-0.3,0-0.6,0.1-0.9l-2.8,1.4
			c0,0.1,0.1,0.2,0.1,0.3c0.6,1.4,2.6,5.2,2.6,8.2c0,0,0,0,0,0.1c0,0.1,0,0.2,0,0.3c0,2.7,0.5,5.4,1.2,7.5c0.6,1.9,1.7,4.2,2.2,4.6
			l0,0c0.7,0.1,1.7,0.3,2.3,1c0.2,0.3,1.7,1,2.1,1.1c0.2,0.1,0.7,0.3,1,0.7c0.5,0.1,2.5,0.7,4.4,1.4c-0.1-0.9-0.1-1.8-0.1-2.6
			c0-8.3,4.5-12.2,5.9-13.3c-0.2-0.3-0.3-0.6-0.3-0.9c0.1-1.8,2.5-4,2.6-4.4c0.2-0.4,0,0.1,0.3-1.9c0.2-1.8,1.9-6.8,2-6.8
			c0.6-1.1,1.6-1.8,1.7-1.8c0.8-1.7,2.4-2.1,3.2-2c0.2,0,0.4,0,0.5,0c0.5-0.2,1-0.3,1.3-0.3c0.3,0,0.5,0,0.6,0.1
			c0.5-0.2,1.9-0.8,2.7-0.8c0.1,0,0.2,0,0.2,0c0,0,1.6,0.2,2.2,1.1c0,0.1,1.3,0.5,1.7,1.5c-0.3,0.1,1.3,0.2,1.4,1.8v0
			c0.2,0.2,0.6,0.5,0.8,1.1c0.3,0.1,0.7,0.4,0.9,1c0.5-1.1,1.2-2.8,1.4-3c0,0,1.2-1.7,1.2-5c0-1.6-0.3-3.6-1.2-5.9v0
			c-0.2-0.1-1.4,1.2-1.5,1.2v0c0,0,0,0,0,0c-0.3,0.4-0.6,0.6-0.9,0.7c-0.7,0.3-1.7,0.6-2.2,0.7c-0.5,1.2-1.8,0.9-2.8,1.7
			c-0.6,0.4-1.3,0.6-1.9,0.6c-1.3,0-2.2-0.6-2.3-0.7c0,0-2.6-2.4-3-2.9c0,0,0,0,0,0.1c-0.1,0.2-0.6,0.6-1.5,0.5h-0.1
			c-1.2,0-1.9-0.8-2.1-1.2c0-0.1-0.1-0.2-0.1-0.3c0.3-1,1.6-1.1,1.6-1.3c0,0,1.7-1,3.5-1.2c0.1,0,0.2,0,0.4,0c0-0.7,0.1-2.6,0.9-3.4
			c0.5-0.4,1.3-1.1,2.3-1.4c-0.1-0.3-0.4-1-0.4-2c0-1,0.3-2.3,1.4-3.7c2.3-2.7,3.2-3.2,4.3-3.4c0.9-0.1,2.5-0.3,2.5-0.3
			c0.2-0.1,1.7-1.2,3.8-1.2c0.8,0,1.7,0.2,2.6,0.7c0.7-0.8,1.5-1.6,1.8-1.8c0.7-0.5,3.7-1.2,3.8-1.2c0,0,0.3,0,0.7,0
			c1.2,0,3.5,0.2,5.1,1.7c0.6,0.1,2.4,0.3,3.1,1.7c0.6,1.4,1.8,3.4,1.8,4.5c0,0.1,0,0.1,0,0.2c-0.2,0.7-0.5,1.4-0.5,1.6h-0.2l0.2,0
			c0,0.1,0,0.2,0,0.3c0,0.7-0.2,2.1-0.3,2.8c0.7,0.3,6.4,2.6,10,8.7c0,0,1.4,2.4,1.5,3.9c0,0.4,0,0.5,0,0.6c1.8,1.4,2.6,2.6,2.8,2.9
			c1.3-0.2,2.6-0.3,3.9-0.3c1.3,0,2.6,0.1,4,0.3c0,0,0,0,0.1,0c0.3-0.1,0.7-0.1,1-0.1c1.3,0,2.3,0.4,2.3,0.4
			c0.1,0.1,0.5,0.1,0.9,0.1c0.3,0,0.6,0,1,0c1.6,0,3.9,0.2,6.3,2l2.9-0.9c0.4-0.1,0.9-0.1,1.3-0.1c4.7,0,7,4.3,7,7
			c0,1.4-0.8,2.9-1.7,4.1c0,0,0,0,0,0c1.8,4.5,2.9,10.7,3.9,19.1c0.3,2.9,0.5,5.7,0.5,8.4c0,12.7-3.1,23.3-4.2,27.7
			c-0.3,1.1-0.4,2.3-0.4,3.5c-0.1,4.5,1.9,9.3,3.3,9.5c0.2,0.1,0.4,0.2,0.3,0.5c0,0.2-0.2,0.4-0.4,0.4c0,0-8,0.9-12.3,0.9
			c-0.3,0-0.6,0-0.9,0c-1.7-0.1-1.9,0-3.7-0.1c-5.7-0.3-11.3-0.5-13.1-0.9c0,0.2,0.1,0.3,0,0.2c0,0.1,2,2.7,2.1,3.9l0,0h0
			c0,0,0,0,0,0c0,0,0,0,0,0.1c-0.1,1.2-1.4,2.1-1.8,2.5c-0.5,0.4-1.5,0.7-2,1c-0.4,0.2-0.8,0.3-1.2,0.3c-0.4,0-0.7,0-1.1-0.1
			c-0.7,0-1.7-0.4-2-0.5c-0.3,0.1-1.1,0.2-1.9,0.2c-0.2,0-0.4,0-0.6,0c-1.4-0.3-1.4-1.7-1.5-2.9c0-0.1,0-0.3,0-0.4
			c0-0.4,0.1-0.8,0.2-1.2c0.2-0.9,0.6-1.6,0.8-2.1c0.1-0.2,0.3-0.9,0.5-1.5c0,0-0.1,0-0.1,0c-2-0.3-2.8-1.1-4.4-6.1l-0.9-3.4
			c-0.8-2.1-1.1-3.9-1.1-5.6c0-3.3,1.2-5.7,1.5-6.5c0.5-1.3,3.4-6.9,3.4-6.8l1.7-3.6l0.1-0.4c-0.7,0-2,0-3.9,0.2v0
			c-0.6,7.2-2.3,9.8-2.3,9.8c0,0-3.4,5.3-3.9,6c-0.2,0.2-0.3,1.2-0.3,1.9c0,0.4,0,0.7,0,0.9l0,0.1h0c0,0,0,0,0,0c0,0,0,0,0,0
			c0,0.6-0.3,1.6-0.3,1.6c0,0,0,0.1,0,0.2c0,0.6,0.5,1.6,0.9,2.2c0.4,0.6,1.3,1.1,1.7,2c0.1,0.1,0.1,0.3,0.1,0.5
			c0,1-0.9,1.9-1.9,2.4c-0.8,0.4-2,0.5-3.3,0.5c-1,0-2-0.1-2.9-0.2c-1.8-0.2-2.1-1.9-2.1-2.5c0-0.2,0-0.4,0-0.5c0,0,0.8-2.6,1-3.1
			c0-0.1,0.1-0.7,0.1-1.2c0-0.5,0-0.9-0.1-1.2c0-0.1,0-0.2,0-0.2c0-1.1,0.9-2.9,1.7-4.1c0.4-0.5,0.5-1.9,0.5-3c0-0.6,0-1.1,0-1.4
			c0-0.2,0-0.4,0-0.8c0-1.5,0-4.8,0.1-6.8c0,0,0,0,0,0c-3.2,5.8-7.9,11.5-8,11.9c-0.2,0.5-0.2,0.8-0.2,1.4c0,0.8,0.2,1.9,0.6,4
			c0.1,0.5,0.2,1,0.2,1.5c0,1.7-0.7,3-1.3,3.8c0,0,0,0-0.1,0.1l1.6,10.5l2.3-0.5l14.5,3c0.2,0,0.3,0.2,0.4,0.4v0v0v3.6
			c0,0.2-0.1,0.4-0.3,0.4l-25.3,7.4L98.5,260.4z"/>
		<path class="st1" d="M132,231.6c-2.7-0.8-3.7-2-3.7-3.2c0-1.6,1.5-2.7,1.5-2.7c0.2-0.1,0.4-0.1,0.6,0.1c0.1,0.2,0.1,0.4-0.1,0.6
			c0,0-1.3,1.1-1.2,2.1c0,0.7,0.5,1.6,3.1,2.4c0.2,0.1,0.3,0.3,0.3,0.5c-0.1,0.2-0.2,0.3-0.4,0.3C132,231.7,132,231.7,132,231.6"/>
		<path class="st1" d="M164.4,229c-0.2,0-0.4-0.3-0.4-0.5c0-0.3,0.1-0.8,0.1-1.5c0-4.5-1.1-15.3-1.1-22.6c0-2,0.1-3.7,0.3-5
			c0.4-2.1,0.5-4.1,0.5-5.9c0-3.5-0.5-6.1-0.5-6.1c-0.1-0.2,0.1-0.5,0.4-0.5c0.2,0,0.5,0.1,0.5,0.4c0,0,0.5,2.6,0.5,6.2
			c0,1.8-0.1,3.9-0.5,6c-0.2,1.2-0.3,2.9-0.3,4.9c0,7.2,1.1,17.9,1.1,22.6c0,0.6,0,1.2-0.1,1.6C164.8,228.8,164.7,229,164.4,229
			C164.4,229,164.4,229,164.4,229"/>
		<path class="st1" d="M149.9,171.2c-0.2-0.2-0.2-0.5,0-0.6l3.6-3.6c0.2-0.2,0.5-0.2,0.6,0c0.2,0.2,0.2,0.5,0,0.6l-3.6,3.6
			c-0.1,0.1-0.2,0.1-0.3,0.1C150.1,171.3,150,171.3,149.9,171.2"/>
		<path class="st1" d="M95.9,167.5c-0.1-0.2,0-0.5,0.2-0.6c0.7-0.4,1-0.7,1.2-1c-0.6-0.4-1.9-1.3-2.7-1.6c-0.5-0.2-0.8-0.6-0.8-1
			c0.1-0.8,0.7-1.1,0.7-1.2c0.2-0.2,0.5-0.1,0.6,0.1c0.1,0.2,0.1,0.5-0.1,0.6c0,0-0.4,0.4-0.3,0.5c0,0,0,0,0.2,0.2
			c1.2,0.5,3.2,1.9,3.2,1.9l0.2,0.5c0,0.1-0.3,1.1-1.8,1.8c-0.1,0-0.1,0-0.2,0C96.1,167.8,96,167.7,95.9,167.5 M133.8,176.2
			c-0.2-4.3-3-4.7-4.6-4.8c-0.6,0-1,0.1-1,0.1h0c-0.2,0-0.5-0.1-0.5-0.3c0-0.2,0.1-0.5,0.4-0.5c0,0,0.5-0.1,1.2-0.1
			c1.8-0.1,5.3,0.8,5.5,5.7c0,0.3-0.2,0.5-0.4,0.5c0,0,0,0,0,0C134,176.6,133.8,176.4,133.8,176.2 M91.4,181.2
			c-1.5,0-2.6-0.2-2.6-0.3c-0.2-0.1-0.4-0.3-0.3-0.5c0-0.2,0.3-0.4,0.5-0.3c0,0,1.1,0.2,2.4,0.2c2.2,0,5.1-0.6,6-3.5
			c0.1-0.2,0.3-0.4,0.6-0.3c0.2,0.1,0.4,0.3,0.3,0.6C97.2,180.5,93.8,181.2,91.4,181.2C91.4,181.2,91.4,181.2,91.4,181.2
			 M128.8,186.4c0-0.2,0.2-0.5,0.4-0.5l8.1-0.4c0,0,1.7-0.2,2.7-0.9c0.2-0.1,0.5-0.1,0.6,0.1c0.1,0.2,0.1,0.5-0.1,0.6
			c-1.3,0.8-3.1,1-3.1,1l-8.1,0.4h0C129,186.8,128.8,186.6,128.8,186.4 M126.7,188.2c-0.2-0.1-0.4-0.3-0.3-0.6
			c0.7-1.8,1.2-4.7,1.2-4.7v0c0-0.3,0.3-0.4,0.5-0.4c0.2,0,0.4,0.3,0.4,0.5c0,0-0.5,3-1.2,4.9c-0.1,0.2-0.2,0.3-0.4,0.3
			C126.8,188.2,126.8,188.2,126.7,188.2 M99.7,196.3c-0.2-0.1-0.4-0.3-0.3-0.6c0.1-0.1,3-9.9,5.5-11c0.2-0.1,0.5,0,0.6,0.2
			c0.1,0.2,0,0.5-0.2,0.6c-0.7,0.2-2.1,2.9-3.1,5.4c-1.1,2.6-1.9,5-1.9,5c-0.1,0.2-0.2,0.3-0.4,0.3
			C99.8,196.4,99.7,196.3,99.7,196.3 M52.7,198.7c0,0-1.4-4.4-2.4-9.1c-0.6-2.7-0.7-4.9-0.7-6.4c0-1.2,0.1-1.9,0.1-1.9l0,0
			c0-0.2,0.2-0.4,0.5-0.4c0.2,0,0.4,0.2,0.4,0.5c0,0-0.1,0.6-0.1,1.8c0,1.4,0.1,3.6,0.7,6.2c1,4.7,2.3,9,2.4,9.1
			c0.1,0.2-0.1,0.5-0.3,0.6c0,0-0.1,0-0.1,0C52.9,199.1,52.7,198.9,52.7,198.7 M134.9,202.4c-0.3-2.4-0.3-4.4-0.3-5.6
			c0-0.9,0-1.3,0-1.4c0-0.3,0.2-0.4,0.5-0.4c0.2,0,0.4,0.2,0.4,0.5c0,0,0,0.5,0,1.3c0,1.2,0,3.1,0.3,5.5c0,0.2-0.1,0.5-0.4,0.5
			c0,0,0,0-0.1,0C135.1,202.8,134.9,202.6,134.9,202.4 M60.4,206.2c-0.2-0.2-0.2-0.4-0.1-0.6c0-0.1,2-2.4,6.5-2.4
			c0,0,1.8-0.1,3.3-0.1c0.2,0,0.4,0.2,0.4,0.4c0,0.2-0.2,0.4-0.4,0.4c-1.5,0-3.3,0.1-3.3,0.1c-4.1,0-5.8,2.1-5.8,2.1
			c-0.1,0.1-0.2,0.2-0.3,0.2C60.6,206.3,60.5,206.3,60.4,206.2 M80.6,206.1c-0.9-3.2-8.4-6.3-8.4-6.3c-0.2-0.1-0.3-0.4-0.3-0.6
			c0.1-0.2,0.4-0.3,0.6-0.3c0,0.1,7.6,2.9,9,6.8c0.1,0.2-0.1,0.5-0.3,0.6c0,0-0.1,0-0.1,0C80.8,206.4,80.6,206.3,80.6,206.1
			 M71.5,230.5c-0.2-0.2-0.1-0.5,0-0.6c0,0,4.8-4.2,5.2-6c0.8-1.6,1.5-3.5,1.5-3.5c1.3-3.5,1.3-5.4,1.8-7.2v0
			c0.1-0.2,0.3-0.4,0.5-0.3c0.2,0.1,0.4,0.3,0.3,0.5c-0.4,1.6-0.5,3.7-1.8,7.3c0,0-0.7,1.9-1.5,3.5c-0.7,2.3-5.5,6.3-5.5,6.4
			c-0.1,0.1-0.2,0.1-0.3,0.1C71.7,230.7,71.6,230.6,71.5,230.5 M155.3,233.8c0,0-5.3-5.5-10.2-11c-0.2-0.2-0.2-0.5,0-0.6
			c0.2-0.2,0.5-0.2,0.6,0c4.8,5.4,10.1,10.9,10.2,11c0.2,0.2,0.2,0.5,0,0.6c-0.1,0.1-0.2,0.1-0.3,0.1
			C155.5,234,155.4,233.9,155.3,233.8"/>
		<path class="st1" d="M80.7,206c-0.2-0.2-0.1-0.5,0.1-0.6l0.9-0.7c0.2-0.2,0.5-0.1,0.6,0.1c0.2,0.2,0.1,0.5,0,0.6l-0.9,0.7
			c-0.1,0.1-0.2,0.1-0.3,0.1C80.9,206.1,80.8,206.1,80.7,206"/>
	</g>
	<g>
		<rect x="356.9" y="145.3" class="st1" width="20.5" height="3.3"/>
		<g>
			<g>
				<path class="st1" d="M289.1,166.9v-37h12v5.3h-6.3v10.1h4.2v5.1h-4.2v11h6.3v5.5H289.1z"/>
			</g>
			<g>
				<path class="st1" d="M336.7,166.9l-6.3-18.7l-1.8-6v24.7h-3.8v-37h3.6l5.7,19l1.7,6v-25h3.8v37H336.7z"/>
			</g>
			<g>
				<path class="st1" d="M292,222.3v-37h5.7v37H292z"/>
			</g>
			<g>
				<path class="st1" d="M261.4,276.1l-0.6-1.9c-0.8,1.7-2.4,2.5-4.1,2.5c-3.9,0-6.4-2.8-6.4-7.3v-23.6c0-4,3.1-7.3,7.2-7.3
					c4.1,0,6.9,3.3,6.9,7.3v6.8h-5.3v-7.1c0-0.9-0.5-1.5-1.5-1.5c-1,0-1.6,0.6-1.6,1.5v24.3c0,0.9,0.6,1.6,1.6,1.6
					c1,0,1.6-0.7,1.6-1.6v-7.6h-1.4v-4.4h7v18.2H261.4z"/>
			</g>
			<g>
				<path class="st1" d="M297.3,276.1l-4.2-16.7l-1.3-5.1v21.8H287v-37h5.4l3.7,16.6l1.1,5.2v-21.8h4.8v37H297.3z"/>
			</g>
			<g>
				<path class="st1" d="M334.4,189.1v33.2h-3.9v-33.2h-4.9v-3.8h13.7v3.8H334.4z"/>
			</g>
			<g>
				<path class="st1" d="M369,207.7v14.6h-4v-14.6l-5.7-22.4h4l3.9,17.2l3.9-17.2h3.8L369,207.7z"/>
			</g>
			<g>
				<rect x="322.1" y="254.6" class="st1" width="20.5" height="4.4"/>
			</g>
			<g>
				<rect x="330.1" y="246.5" class="st1" width="4.3" height="20.5"/>
			</g>
			<g>
				<g>
					<path class="st1" d="M254.9,167h-4.3v-37.1h4.3c10.1,0,10.8,4,10.8,18.6C265.8,162.9,265,166.9,254.9,167z M256.1,161.5
						c3.8,0,4.1-1,4-13.1c0-12.1-0.2-13.1-4-13.1V161.5z"/>
				</g>
			</g>
			<path class="st1" d="M259.7,201.8c-2.3-4.1-3.6-5.6-3.6-9.9c0-1.3,0.8-1.9,1.7-1.9c0.9,0,1.6,0.7,1.6,1.9v2.8l4.9-0.5v-1.8
				c0-4.9-2.6-7.7-6.5-7.7c-5,0-7.4,3.7-7.4,8.3c0,4.3,2.9,9.4,5.1,12.8c2.2,3.7,3.5,6.3,3.5,9.7c0,1.4-0.6,2.2-1.8,2.2
				c-1.3,0-1.9-0.9-1.9-2.2v-3l-5,0.5v2.1c0,4.9,2.7,7.7,7.2,7.7c3.6,0,7.1-2.4,7.1-8.2C264.6,210.4,262.2,206,259.7,201.8z"/>
		</g>
	</g>
	<circle class="st5" cx="309.2" cy="200" r="90.8"/>
</g>
</svg>
