<?xml version="1.0" encoding="utf-8"?>
<!-- Generator: Adobe Illustrator 24.1.0, SVG Export Plug-In . SVG Version: 6.00 Build 0)  -->
<svg version="1.1" id="tantlab" xmlns="http://www.w3.org/2000/svg" xmlns:xlink="http://www.w3.org/1999/xlink" x="0px" y="0px"
	 viewBox="0 0 400 400" style="enable-background:new 0 0 400 400;" xml:space="preserve">
<style type="text/css">
	.st0{fill:#333366;}
</style>
<g>
	<g>
		<path class="st0" d="M106.3,296c-0.7,0.3-1.2,0.7-1.6,1.4c-0.4,0.6-0.7,1.3-0.9,2c-0.2,0.7-0.4,1.4-0.5,2
			c-0.1,0.6-0.1,1.1-0.2,1.4l-0.4,0.1l-0.3-5.7l15.1-6.3l0.3,5.7l-0.4,0.1c-0.1-0.4-0.2-0.8-0.3-1.2c-0.1-0.4-0.3-0.8-0.5-1.2
			c-0.3-0.6-0.7-1.1-1.2-1.4s-1.2-0.3-2.1,0.1l-2.5,1l1,19.7l2.9-1.2l0,0.4l-7.8,3.2l0-0.4l2.6-1.1l-1-19.7L106.3,296z"/>
		<path class="st0" d="M123.5,308.9l5.1-23.2l0.6-0.2l7.9,17.7l2.7-1.1l0,0.4l-7.7,3.2l0-0.4l2.7-1.1l-3.1-7l-5.8,2.4l-2,9.1
			l2.5-1.1l0,0.4l-5.2,2.2l0-0.4L123.5,308.9z M128.3,289.3l-2.2,9.9l5.5-2.3L128.3,289.3L128.3,289.3z"/>
		<path class="st0" d="M143.8,281.4l1,18.7l2.9-1.2l0,0.4l-5.8,2.4l0-0.4l2.6-1.1l-1-19.7l-2.9,1.2l0-0.4l4.7-2l9.5,12.7l0.1,0
			l-0.8-15.9l-2.9,1.2l0-0.4l5.9-2.4l0,0.4l-2.6,1.1l1.1,20.5l-0.2,0.1L143.8,281.4L143.8,281.4z"/>
		<path class="st0" d="M164.9,271.5c-0.7,0.3-1.2,0.7-1.6,1.4c-0.4,0.6-0.7,1.3-0.9,2c-0.2,0.7-0.4,1.4-0.5,2
			c-0.1,0.6-0.1,1.1-0.2,1.4l-0.4,0.1l-0.3-5.7l15.1-6.3l0.3,5.7l-0.4,0.1c-0.1-0.4-0.2-0.8-0.3-1.2c-0.1-0.4-0.3-0.8-0.5-1.2
			c-0.3-0.6-0.7-1.1-1.2-1.4s-1.2-0.3-2.1,0.1l-2.5,1l1,19.7l2.9-1.2l0,0.4l-7.8,3.2l0-0.4l2.6-1.1l-1-19.7L164.9,271.5z"/>
		<path class="st0" d="M180.5,265l0-0.4l7.8-3.2l0,0.4l-2.6,1.1l1,19.7l5.9-2.4c0.7-0.3,1.2-0.7,1.6-1.3c0.4-0.6,0.7-1.3,1-2
			c0.2-0.7,0.4-1.4,0.5-2s0.2-1.1,0.2-1.4l0.4-0.1l0.3,5.7l-14.6,6.1l0-0.4l2.6-1.1l-1-19.7L180.5,265z"/>
		<path class="st0" d="M202.3,276.1l5.1-23.2l0.6-0.2l7.9,17.7l2.7-1.1l0,0.4l-7.7,3.2l0-0.4l2.7-1.1l-3.1-7l-5.8,2.4l-2,9.1
			l2.5-1.1l0,0.4l-5.2,2.2l0-0.4L202.3,276.1z M207.1,256.5l-2.2,9.9l5.5-2.3L207.1,256.5L207.1,256.5z"/>
		<path class="st0" d="M219.4,248.8l0-0.4l5.6-2.4c0.9-0.4,1.7-0.6,2.4-0.7c0.8-0.1,1.5-0.1,2.1,0c0.6,0.1,1.2,0.4,1.7,0.7
			c0.5,0.4,0.9,0.9,1.1,1.5c0.2,0.6,0.3,1.1,0.3,1.7c0,0.5-0.2,1.1-0.4,1.5c-0.2,0.5-0.5,0.9-0.9,1.3c-0.4,0.4-0.7,0.8-1.1,1.1
			c-0.4,0.3-0.8,0.6-1.1,0.8c-0.4,0.2-0.7,0.4-0.9,0.5l0,0.1c0.2,0,0.6-0.1,1.2-0.1c0.5,0,1.1,0,1.7,0.1c0.6,0.1,1.2,0.4,1.8,0.8
			c0.6,0.4,1,1,1.4,1.7c0.4,0.9,0.4,1.7,0.2,2.6s-0.6,1.7-1.2,2.5c-0.6,0.8-1.4,1.5-2.3,2.1c-0.9,0.6-1.8,1.2-2.8,1.6
			c-0.6,0.3-1.2,0.5-1.8,0.7c-0.6,0.2-1.2,0.5-1.9,0.7l-3.6,1.5l0-0.4l2.5-1.1l-1-19.7L219.4,248.8z M227.3,254.5
			c0.7-0.3,1.2-0.6,1.7-1.1c0.5-0.4,0.8-1,1-1.5c0.2-0.6,0.3-1.2,0.3-1.9c0-0.7-0.2-1.4-0.5-2.2c-0.4-0.9-0.9-1.4-1.6-1.7
			c-0.7-0.3-1.6-0.3-2.5,0.1l-1.1,0.4l0.4,8.8L227.3,254.5z M226.7,266c0.4-0.1,0.8-0.3,1.1-0.4c1.1-0.5,1.9-1,2.6-1.8
			c0.6-0.7,1.1-1.5,1.3-2.3c0.3-0.8,0.4-1.6,0.3-2.4c-0.1-0.8-0.2-1.5-0.5-2.1c-0.2-0.4-0.4-0.8-0.6-1c-0.2-0.3-0.5-0.5-0.7-0.7
			c-0.3-0.2-0.5-0.3-0.8-0.4s-0.5-0.1-0.7-0.1c-0.4,0-0.8,0-1.1,0.1c-0.4,0.1-0.8,0.3-1.3,0.5l-1.3,0.5l0.6,10.5
			C226,266.2,226.3,266.1,226.7,266z"/>
		<path class="st0" d="M240.2,258.7c0.1-0.3,0.4-0.6,0.7-0.7c0.3-0.1,0.7-0.1,1,0c0.3,0.1,0.5,0.4,0.7,0.7c0.1,0.3,0.1,0.7,0,1
			c-0.1,0.3-0.4,0.5-0.7,0.7c-0.3,0.1-0.7,0.1-1,0c-0.3-0.1-0.5-0.4-0.7-0.7S240,259,240.2,258.7z"/>
		<path class="st0" d="M249.8,256.3l5.1-23.2l0.6-0.2l7.9,17.7l2.7-1.1l0,0.4l-7.7,3.2l0-0.4l2.7-1.1l-3.1-7l-5.8,2.4l-2,9.1
			l2.5-1.1l0,0.4l-5.2,2.2l0-0.4L249.8,256.3z M254.6,236.7l-2.2,9.9l5.5-2.3L254.6,236.7L254.6,236.7z"/>
		<path class="st0" d="M270.4,247.7l5.1-23.2l0.6-0.2L284,242l2.7-1.1l0,0.4l-7.7,3.2l0-0.4l2.7-1.1l-3.1-7l-5.8,2.4l-2,9.1l2.5-1.1
			l0,0.4l-5.2,2.2l0-0.4L270.4,247.7z M275.2,228.1l-2.2,9.9l5.5-2.3L275.2,228.1L275.2,228.1z"/>
		<path class="st0" d="M294.3,217.1l0,0.4l-2.6,1.1l0.6,12.3c0,0.8,0.1,1.5,0.2,2.1c0.1,0.6,0.3,1.2,0.5,1.9
			c0.2,0.4,0.4,0.8,0.7,1.1c0.3,0.3,0.7,0.6,1.1,0.8c0.4,0.2,0.8,0.3,1.3,0.3c0.5,0,1-0.1,1.5-0.3c1-0.4,1.8-1,2.4-1.7
			c0.6-0.7,1-1.4,1.3-2.2s0.4-1.6,0.5-2.5c0-0.9,0-1.7,0-2.5l-1.2-13l-2.9,1.2l0-0.4l5.9-2.4l0,0.4l-2.6,1.1l1.2,13.3
			c0.2,2.4,0,4.3-0.8,5.7c-0.7,1.4-2,2.5-3.9,3.3c-1,0.4-1.8,0.6-2.6,0.6c-0.8,0-1.4-0.1-2-0.3c-0.6-0.2-1-0.6-1.4-1
			c-0.4-0.4-0.7-0.9-0.8-1.3c-0.3-0.7-0.5-1.5-0.6-2.2c-0.1-0.8-0.2-1.6-0.2-2.7l-0.5-10.6l-2.9,1.2l0-0.4L294.3,217.1z"/>
		<path class="st0" d="M309.4,229.8c0.1-0.3,0.4-0.5,0.7-0.7c0.3-0.1,0.7-0.1,1,0c0.3,0.1,0.5,0.4,0.7,0.7s0.1,0.7,0,1
			c-0.1,0.3-0.4,0.5-0.7,0.7s-0.7,0.1-1,0s-0.5-0.4-0.7-0.7C309.2,230.5,309.2,230.2,309.4,229.8z"/>
		<path class="st0" d="M315.6,208.6l0-0.4l7.6-3.2c1.2-0.5,2.3-0.7,3.3-0.7c1,0,1.9,0.2,2.8,0.6c0.8,0.4,1.5,0.9,2.1,1.7
			c0.6,0.7,1.1,1.5,1.5,2.4c0.6,1.4,0.8,2.8,0.8,4.4c0,1.6-0.4,3.1-1,4.6c-0.6,1.5-1.5,2.9-2.7,4.1c-1.2,1.3-2.7,2.3-4.5,3
			c-0.4,0.1-0.7,0.3-1.1,0.4c-0.4,0.1-0.7,0.3-1.1,0.4c-0.4,0.1-0.7,0.3-1.1,0.4s-0.7,0.3-1.1,0.4l-4.2,1.8l0-0.4l2.6-1.1l-1-19.7
			L315.6,208.6z M323.3,225.6c0.5-0.2,1-0.4,1.6-0.6c0.4-0.2,0.8-0.4,1.2-0.6s0.7-0.4,1-0.7c0.3-0.2,0.6-0.5,0.9-0.9
			c0.3-0.3,0.6-0.7,0.9-1.2c0.7-0.9,1.2-2,1.5-3.1c0.4-1.1,0.6-2.3,0.6-3.6c0.1-1.2,0-2.5-0.2-3.7c-0.2-1.2-0.5-2.4-1-3.5
			c-0.4-1-0.9-1.7-1.6-2.2c-0.7-0.5-1.3-0.7-2-0.8c-0.5,0-1,0-1.5,0.1c-0.5,0.1-1.1,0.3-1.9,0.6l-2.2,0.9l1,19.7
			C322.3,226,322.8,225.8,323.3,225.6z"/>
		<path class="st0" d="M343.7,206.7l0.5,10.2l2.9-1.2l0,0.4l-7.7,3.2l0-0.4l2.6-1.1l-1-19.7l-2.9,1.2l0-0.4l7.7-3.2l0,0.4l-2.6,1.1
			l0.5,9.2l0.2-0.1l6.9-12.2l0-0.1l-2.8,1.2l0-0.4l5.2-2.2l0,0.4l-1.7,0.7l-6.3,11.1l9.3,7.8l2.4-1l0,0.4l-7.6,3.2l0-0.4l2.7-1.1
			l-8.1-7L343.7,206.7z"/>
	</g>
	<g>
		<g>
			<path class="st0" d="M166.2,196.6l-66.5-28.2l-66.5,28.1v56.7v0.1l66.4,27.9l0.7,0.2l0.2-0.2l65.7-28V196.6z M34.2,225.5
				l31.5,13.3l-31.5,13.3V225.5z M100.2,224.1v-54.6l63.9,27.2L100.2,224.1z M99.2,197.5v26.5l-31.3-13.2L99.2,197.5z M66.2,211.5
				v26.6l-31.6-13.3L66.2,211.5z M67.2,211.4L67.2,211.4l31.6,13.3l-31.6,13.4V211.4z M66.7,239.5l32.6-14v54.5l-64.5-27.3
				L66.7,239.5z M83.5,203.5l-16.2,6.6v-26.6L99,196.8L83.5,203.5z M66.2,183.5v26.6l-31.1-13.3l0.6-0.4L66.2,183.5z M65.8,210.8
				l-31.6,13.3v-26.6L65.8,210.8z M99.2,196.1l-31.6-13.3l31.6-13.3V196.1z M100.2,280.1v-54.9l65-27.8v55L100.2,280.1z"/>
		</g>
		<path class="st0" d="M233.2,198.1l31.8,13.4l-31.8,13.2V198.1z M299.2,197.2v-55.2l66,27.7L299.2,197.2z M298.2,170.1v26.5
			l-31.3-13.2L298.2,170.1z M265.2,184.1v26.6l-31.6-13.3L265.2,184.1z M266.2,184L266.2,184l32,13.6l-32,13.4V184z M282.4,176
			l-16.1,6.6v-26.6l31.7,13.3L282.4,176z M265.2,156.1v26.6l-31.2-13.3l0.7-0.4L265.2,156.1z M264.8,183.4l-31.6,13.3v-26.6
			L264.8,183.4z M298.2,168.7l-31.6-13.3l31.6-13.3V168.7z M365.2,170.8v54.3l-66,27.8v0.9l67-28.1v-56.5l-67.5-28.3L232.2,169v57.1
			l0,0L365.2,170.8z"/>
		<path class="st0" d="M233.2,112.7l-67.5-28.3l-66.5,28.1v56.7v0.1l66.4,27.9l0.7,0.2l0.2-0.2l66.7-28V112.7z M100.2,141.6
			l31.5,13.3l-31.5,13.3V141.6z M226.3,115.1l-60,25.1V85.6l65.1,27.3L226.3,115.1z M165.2,113.6v26.5l-31.3-13.2L165.2,113.6z
			 M132.2,127.6v26.6l-31.6-13.3L132.2,127.6z M133.2,127.5L133.2,127.5l31.6,13.3l-31.6,13.4V127.5z M132.6,155.6l32.6-14v54.5
			l-64.5-27.3L132.6,155.6z M149.4,119.5l-16.2,6.6V99.6l31.7,13.3L149.4,119.5z M132.2,99.6v26.6l-31.1-13.3l0.7-0.4L132.2,99.6z
			 M131.8,126.9l-31.6,13.3v-26.6L131.8,126.9z M165.2,112.2l-31.6-13.3l31.6-13.3V112.2z M166.2,196.1v-54.9l66-27.7v55
			L166.2,196.1z"/>
	</g>
</g>
</svg>
