<?xml version="1.0" encoding="utf-8"?>
<!-- Generator: Adobe Illustrator 24.1.0, SVG Export Plug-In . SVG Version: 6.00 Build 0)  -->
<svg version="1.1" id="Sciences-po" xmlns="http://www.w3.org/2000/svg" xmlns:xlink="http://www.w3.org/1999/xlink" x="0px"
	 y="0px" viewBox="0 0 400 400" style="enable-background:new 0 0 400 400;" xml:space="preserve">
<style type="text/css">
	.st0{fill-rule:evenodd;clip-rule:evenodd;fill:#C32126;}
	.st1{fill:#808181;}
	.st2{fill:none;stroke:#808181;stroke-width:0.7703;stroke-miterlimit:10;}
</style>
<g id="Sciences-Po_Médialab">
	<path class="st0" d="M15.1,215.9c-0.1,0-0.2,0-0.3,0c-0.2,0-0.2-0.2-0.2-0.3c0-0.3,0-0.7,0-1.3v-2.4c0-0.1,0-0.1,0-0.1
		c0.1,0,0.1,0,0.2,0c0.1,0,0.4,0,0.6,0.2c0.3,0.3,0.4,0.7,0.4,0.9c0,0.6-0.5,1-0.8,1c-0.1,0-0.2,0-0.2,0.1c0,0,0,0,0.1,0.1
		c0,0,0.1,0,0.1,0c0.9,0,1.5-0.6,1.5-1.4c0-0.3-0.2-0.6-0.3-0.7c-0.1-0.1-0.4-0.3-1.1-0.3c-0.3,0-0.6,0-0.9,0c-0.2,0-0.5,0-0.9,0
		c-0.1,0-0.1,0-0.1,0.1c0,0,0,0,0.1,0c0.1,0,0.2,0,0.2,0c0.2,0,0.2,0.1,0.3,0.3c0,0.2,0,0.4,0,1.3v1.1c0,0.5,0,1,0,1.3
		c0,0.2-0.1,0.3-0.2,0.3c-0.1,0-0.1,0-0.2,0c-0.1,0-0.1,0-0.1,0c0,0.1,0,0.1,0.1,0.1c0.2,0,0.6,0,0.8,0c0.1,0,0.5,0,0.9,0
		C15.2,216,15.2,216,15.1,215.9C15.2,215.9,15.2,215.9,15.1,215.9 M27.4,213.7l-0.2-0.1c-0.5-0.3-0.6-0.4-0.6-0.7
		c0-0.3,0.3-0.5,0.7-0.5c0.3,0,0.5,0.1,0.6,0.2c0.1,0.1,0.1,0.3,0.1,0.3c0,0.1,0,0.1,0.1,0.1c0,0,0.1,0,0.1-0.2c0-0.4,0-0.5,0-0.6
		c0,0,0-0.1-0.1-0.1c-0.1,0-0.4-0.1-0.7-0.1c-0.7,0-1.3,0.4-1.3,1c0,0.5,0.2,0.8,0.8,1.2l0.3,0.2c0.5,0.3,0.5,0.5,0.5,0.7
		c0,0.4-0.3,0.6-0.7,0.6c-0.3,0-0.7-0.1-0.8-0.5c0-0.1-0.1-0.2-0.1-0.3c0,0,0-0.1-0.1-0.1c0,0-0.1,0.1-0.1,0.1c0,0.1,0,0.4,0,0.7
		c0,0.1,0,0.1,0.1,0.2c0.2,0.1,0.6,0.1,0.9,0.1c0.3,0,0.6,0,0.9-0.2c0.4-0.3,0.5-0.6,0.5-1C28.3,214.4,28.1,214,27.4,213.7
		 M25.4,215.9c-0.1,0-0.2,0-0.3,0c-0.2,0-0.2-0.1-0.2-0.2c0-0.2,0-0.6,0-1.1v-0.9c0-0.8,0-0.9,0-1.1c0-0.2,0.1-0.2,0.2-0.3
		c0.1,0,0.1,0,0.2,0c0.1,0,0.1,0,0.1-0.1c0,0,0,0-0.1,0c-0.2,0-0.5,0-0.7,0c-0.1,0-0.5,0-0.7,0c-0.1,0-0.1,0-0.1,0
		c0,0,0,0.1,0.1,0.1c0.1,0,0.1,0,0.2,0c0.1,0,0.2,0.1,0.2,0.3c0,0.2,0,0.3,0,1.1v0.9c0,0.5,0,0.9,0,1.1c0,0.2,0,0.2-0.2,0.2
		c0,0-0.1,0-0.1,0c0,0,0,0,0,0c-0.1,0-0.3,0-0.6-0.3c-0.3-0.3-0.7-0.8-1.1-1.4c0.5-0.4,0.7-0.7,0.7-1.1c0-0.3-0.2-0.6-0.4-0.7
		c-0.3-0.2-0.7-0.2-1-0.2c-0.2,0-0.6,0-0.8,0c-0.1,0-0.4,0-0.7,0c-0.1,0-0.1,0-0.1,0.1c0,0,0,0,0.1,0c0.1,0,0.2,0,0.2,0
		c0.2,0.1,0.2,0.1,0.2,0.3c0,0.2,0,0.3,0,1.1v0.9c0,0.5,0,0.9,0,1.1c0,0.1,0,0.2-0.1,0.3c0,0-0.1,0-0.2,0c-0.1,0-0.1,0-0.2,0
		c-0.1,0-0.2-0.1-0.4-0.5c-0.3-0.8-1.2-2.9-1.3-3.1c-0.1-0.1-0.1-0.2-0.2-0.2c0,0-0.1,0.1-0.2,0.2l-1.4,3.2
		c-0.1,0.3-0.2,0.4-0.4,0.4c0,0-0.1,0-0.1,0c0,0-0.1,0-0.1,0.1c0,0,0,0.1,0.1,0.1c0.3,0,0.6,0,0.6,0c0.2,0,0.4,0,0.6,0
		c0.1,0,0.1,0,0.1-0.1c0,0,0-0.1-0.1-0.1h-0.1c-0.2,0-0.2-0.1-0.2-0.1c0-0.1,0-0.2,0.1-0.3l0.3-0.7c0,0,0,0,0.1,0h1.2c0,0,0,0,0.1,0
		l0.4,1c0,0.1,0,0.1-0.1,0.1c-0.1,0-0.1,0-0.1,0.1c0,0,0.1,0,0.2,0c0.4,0,0.8,0,1,0c0.1,0,0.1,0,0.1,0l0,0c0.2,0,0.5,0,0.6,0
		c0.1,0,0.5,0,0.8,0c0.1,0,0.1,0,0.1-0.1c0,0,0-0.1-0.1-0.1c-0.1,0-0.2,0-0.3,0c-0.2,0-0.2-0.1-0.2-0.3c0-0.2,0-0.6,0-1.1v-0.1
		c0,0,0,0,0,0l0.5,0c0,0,0.1,0,0.1,0c0.1,0.1,0.3,0.4,0.5,0.7c0.3,0.4,0.5,0.6,0.7,0.8c0.1,0.1,0.3,0.1,0.6,0.1H24c0,0,0,0,0,0
		c0.2,0,0.5,0,0.6,0c0.1,0,0.5,0,0.8,0C25.4,216,25.5,216,25.4,215.9C25.5,215.9,25.5,215.9,25.4,215.9 M18.3,214.4h-1c0,0,0,0,0,0
		l0.5-1.3c0,0,0,0,0,0c0,0,0,0,0,0L18.3,214.4C18.3,214.4,18.3,214.4,18.3,214.4 M21.9,214.1c-0.1,0.1-0.2,0.1-0.4,0.1
		c-0.1,0-0.3,0-0.4-0.1c0,0,0,0,0-0.1v-1.5c0,0,0-0.1,0-0.1c0.1,0,0.2,0,0.3,0c0.3,0,0.8,0.2,0.8,0.9C22.2,213.7,22,214,21.9,214.1
		 M4.9,202.7c-0.1,0.4-0.2,1-0.2,1.5c0,1.2,0.4,2.3,2,2.6c-0.1-1-0.7-2.4-1-2.7C5.4,203.8,5,203.1,4.9,202.7 M35.6,204.2
		c-0.3,0.4-0.9,1.7-1,2.7c1.6-0.3,2-1.5,2-2.6c0-0.6-0.1-1.1-0.2-1.5C36.2,203.1,35.9,203.8,35.6,204.2 M4.7,199.1l0.5-0.5
		c0,0-0.1,2,1.2,2.5c0.8,0.3,1.4,0,1.7-0.2l-0.5-1c-0.2,0.2-0.5,0.3-0.8,0.2c-0.7-0.3-0.3-1.4-0.3-1.4l1.6-4.3c0,0,0.8-1.9-0.8-3.2
		l-0.8-0.5c0,0-1.3-0.6-1.5-1.4c0,0-0.8,2.2-1,4l0.7-0.7c0,0-0.6,1.9-0.5,3.5l0.6-0.4C4.9,195.6,4.5,198.2,4.7,199.1 M33,194.5
		l1.6,4.3c0,0,0.4,1.1-0.3,1.4c-0.4,0.2-0.6,0-0.9-0.3l-0.4,0.9c0.3,0.3,0.8,0.7,1.7,0.3c1.3-0.5,0.7-2.5,0.7-2.5l-1.6-4.3
		c0,0-0.4-0.7-0.1-1.6c0.3-0.9,0.9-0.9,1.1-0.8c0.3,0.1,0.3,0.7,0.3,0.7l-0.2,1.4c-0.1,2.2,1.3,2.8,1.3,2.8
		c-0.2-0.6-0.4-1.4,0.1-3.2c0.5-1.8-0.5-2.2-0.5-2.2c0.5-1.6-0.6-2.2-0.6-2.2c-0.1,1.2-0.7,1.5-0.7,1.5l-0.8,0.5
		C32.2,192.6,33,194.5,33,194.5 M22.3,206.4c0.1,0.1,0.2,0.1,0.3,0.2c0.1,0.1,0.2,0.1,0.2,0.1c0,0,0.1,0,0.1,0c0,0,0,0,0,0
		c0,0,0,0,0,0c0.2,0.1,0.9,0.4,1.3,0.9l0-0.6C23.7,206.7,22.8,206.4,22.3,206.4C22.4,206.4,22.4,206.4,22.3,206.4 M18.3,206.8
		C18.3,206.8,18.3,206.8,18.3,206.8c0,0,0.1,0,0.1-0.1c0.1,0,0.2-0.1,0.2-0.1c0.1-0.1,0.2-0.1,0.3-0.2c0,0,0,0-0.1,0
		c-0.4,0-1.3,0.3-1.9,0.6l0,0.6C17.4,207.1,18,206.9,18.3,206.8L18.3,206.8z M34.6,207.2c0,0-0.3,0.1-0.8,0.1
		c0.1-0.8,0.3-1.7,0.4-2.2c0.2-0.9-0.2-1.4-0.2-1.4l-0.5-0.5l-1.3-1l0.1-0.9l0.5-1l0.4-0.9l-1.8-5.9l-0.4-1.1l0.8,0.6
		c1-1.3,0.6-2.8,0.6-2.8c0.1,0,0.7,1,0.7,1c0.1-2.1-0.7-2.9-0.7-2.9l1.1,0.3c-0.6-1.5-1.8-1.9-1.8-1.9l1.2-0.1
		c-1.4-1.5-3.2-1.4-3.2-1.4l0,0.6h-1.4c-0.5,0-0.5,0.6-0.5,0.6h0.9c0.7,0,0.7,0.6,0.7,0.6s-0.7,0-1.1,0c-0.4,0-0.5-0.4-0.5-0.4h-1.5
		v1.8c0,0,0.7-0.6,1.3-0.6c0,0,0.5,0,0.5,1c0,0,0,0.7-0.6,0.7c-0.7,0-1.2-0.7-1.2-0.7s-0.1,0.5,0.1,1.1c0.3,0.7-0.1,0.9-0.1,0.9
		s1.1,0.2,1.5-0.6c0,0,0.2,0.3,0.2,0.7c0.1,0.2,0.1,0.4,0.1,0.6c0,1-0.5,2.1-1,2.7l-1.1,2.8c0,0-0.1,0.2-0.4,0.1l-0.2,0l-0.3-2.8
		l2.1-0.9c0.3-0.6,0.6-1.3,0.6-1.9l-2.9,1.3l-0.2-1.2c0,0,0,0,0,0c0,0,0,0,0,0c0,0,0,0,0,0c0,0,0,0,0,0c0,0,0,0,0,0c0,0,0,0,0,0
		c0,0,0,0,0,0c0,0,0,0,0,0h0h0h0l-3.7,0.6l-3.8-0.6h0h0h0c0,0,0,0,0,0c0,0,0,0,0,0c0,0,0,0,0,0c0,0,0,0,0,0c0,0,0,0,0,0c0,0,0,0,0,0
		c0,0,0,0,0,0c0,0,0,0,0,0l-0.2,1.2l-3.3-1.4c0.1,0.4,0.3,0.8,0.5,1.1c0.3,0.5,0.6,0.9,0.7,1.1l2,0.7l-0.3,2.7l-0.4,0
		c-0.3,0-0.4-0.1-0.4-0.1l-1.3-3.4c-0.4-0.5-1.2-1.8-1.2-3.2c0-0.2,0.1-0.5,0.1-0.5c0.2-0.9,1.4-0.9,1.4-0.9l1.6,0.2
		c0,0,0.7-0.9,0.8-0.9c0.1-0.1-0.2-0.6-0.2-0.6l-2.6-0.9c-0.1,0.1-0.4,0.5-0.9,0.5c-0.7,0-0.8-0.6-0.8-0.6h1.4c0,0-0.2-0.5-0.7-0.5
		h-1.1l-0.7-0.4l-0.6-0.4l-0.3,0.7l-0.6-0.7c0,0-0.4,1.5-0.5,1.9c-0.1,0.8,0.5,1.1,0.5,1.1L8.8,191l0.9-0.5L9,193l1-0.4l-2,6.6
		c0,0-0.1,0.1-0.1,0.3l0.6,1.1l0.4,0.6l0.1,0.9l-1.3,1l-0.5,0.5c0,0-0.4,0.4-0.2,1.3c0.1,0.6,0.3,1.5,0.4,2.3
		c-0.4,0-0.7-0.1-0.7-0.1l0,0c-1.1-0.2-1.7-0.7-2-1.4c0.2,0.7,0.7,1.3,1,1.5c0.5,0.3,1.4,1.8,1.7,2.3c0.4,0.4,1.2,0.6,2.3,0.2
		c1.1-0.4,2.5-1,4.3-1.8c1-0.5,1.8-0.9,2.4-1.1c0.3-0.2,1.8-0.9,2.5-0.9c0.1,0,0.2,0,0.2,0c0.1,0,0.2,0.1,0.3,0.3
		c0,0.1-0.1,0.2-0.2,0.3c1-0.8,0-1.3-0.5-2.3c-0.6-1-0.7-1-2-0.8c-0.1,0-0.3,0.1-0.5,0.1c-0.2-0.3-0.5-0.6-1.5-0.8l-0.6-0.2
		c0,0-0.4,0-0.3-0.7l0.1-1.6c0,0,0.1-0.7-0.6-1.4l-1-1.1c0,0,0,0,0,0.1c-0.3,0.5-0.6,1.3-0.7,2.7c0.3,0.3,0.9,1,0.9,1
		c0,0.7,0,1.5,0,2.7l0.4,0.7c-0.7,0.3-1.5,0.7-2.1,1c0-0.2-0.3-0.8-1.5-0.4l-0.2-1.2l1.8-1.3c0,0,0.2-0.2,0.3-0.4c0-1,0-1.2,0-1.4
		c0-4.1,1.6-4.6,1.7-4.6l0.2,0.3l1.3,1.5c0,0,0.4,0.3,1.1,0.3c0.1,0,0.3,0,0.4,0l-0.2,1.7v0c0,0,0,0.1,0,0.1c0,0,0,0,0,0.1
		c0,0,0,0,0,0c0,0,0,0,0,0c0,0,0,0,0,0c0,0,0,0,0,0c0,0,0,0,0,0h0h0h0h0l4.9-0.8l4.8,0.8h0h0h0h0c0,0,0,0,0,0c0,0,0,0,0.1,0
		c0,0,0,0,0,0c0,0,0,0,0,0c0,0,0,0,0,0c0,0,0,0,0-0.1c0,0,0,0,0-0.1v-0.1l-0.2-1.6c0.1,0,0.2,0,0.2,0c0.7,0,1.1-0.3,1.1-0.3l0.4-0.4
		l1.2-1.4c0.1,0,1.7,0.6,1.6,4.6c0,0.1,0,0.6,0,1.1c0,0.1,0,0.2,0,0.2c0,0.3,0.3,0.5,0.3,0.5l1.8,1.3l-0.1,1.5
		c-1-0.4-1.3-0.1-1.3,0.1c-0.7-0.4-1.6-0.8-2.4-1.2l0.5-1.3l0.8-2.2c0-2-0.4-3-0.7-3.5l-1,1.2c-0.7,0.8-0.6,1.4-0.6,1.4l0.1,1.6
		c0.1,0.7-0.3,0.7-0.3,0.7l-0.6,0.2c-0.8,0.2-1.2,0.5-1.4,0.7c-0.2-0.1-0.3-0.1-0.5-0.1c-1.4-0.1-1.5-0.1-2,0.8
		c-0.6,1-1.5,1.5-0.5,2.3c-0.1-0.1-0.1-0.2-0.2-0.3c0-0.2,0.1-0.3,0.3-0.3c0.1,0,0.2,0,0.2,0c0.8,0,2.2,0.7,2.5,0.9
		c0.5,0.2,1.4,0.6,2.4,1.1c1.8,0.9,3.2,1.5,4.3,1.8c1.1,0.4,1.9,0.2,2.3-0.2c0.4-0.5,1.2-1.9,1.7-2.3c0.3-0.2,0.7-0.8,1-1.5
		C36.3,206.5,35.7,207,34.6,207.2 M20.4,199.1l-3.8,0.5l0.7-7.5l3.1,0.4V199.1z M20.8,199.1v-6.6l3-0.4l0.8,7.5L20.8,199.1z
		 M19,206.8c-0.1,0-0.1,0.1-0.2,0.1c-0.1,0.1-0.3,0.2-0.4,0.2v0h0c0,0,0,0,0,0c0,0,0,0,0,0c0,0,0,0,0,0h0c-0.1,0.1-0.5,0.2-0.8,0.4
		c-0.3,0.2-0.5,0.4-0.7,0.7l0,0.3c0.6,1.4,2.2,1.8,3.7,1.8c1.5,0,3.1-0.4,3.7-1.8l0-0.3c-0.2-0.3-0.4-0.5-0.7-0.7
		c-0.3-0.2-0.6-0.4-0.8-0.4h0c0,0,0,0,0,0c0,0,0,0,0,0c0,0,0,0,0,0v0h0v0c-0.1,0-0.2-0.1-0.4-0.2c-0.1,0-0.1-0.1-0.2-0.1
		c0,0-0.6,0.6-1.6,0.6C19.6,207.3,19,206.8,19,206.8 M1.1,220.5c-0.3,0-0.6-0.1-0.8-0.3c-0.2-0.2-0.3-0.5-0.3-0.8v-38.6
		c0-0.3,0.1-0.6,0.3-0.8c0.2-0.2,0.5-0.3,0.8-0.3h38.6c0.3,0,0.6,0.1,0.8,0.3c0.2,0.2,0.3,0.5,0.3,0.8v38.6c0,0.3-0.1,0.6-0.3,0.8
		c-0.2,0.2-0.5,0.3-0.8,0.3H1.1z M2.1,218.4h36.6v-36.6H2.1V218.4z M20.1,193.1l-2.3-0.3l0,0.5l2.4,0.2V193.1z M20.1,195l-2.5-0.1
		l-0.1,0.5l2.6,0V195z M20.1,194l-2.4-0.2l-0.1,0.5l2.5,0.2V194z M20.1,196.4v-0.5l-2.6,0l0,0.5L20.1,196.4z M17.2,198.9l2.9-0.4
		l0-0.5l-2.8,0.3L17.2,198.9z M17.3,197.6l2.8-0.2v-0.5l-2.7,0.1L17.3,197.6z M21.2,193.5l2.4-0.2l0-0.5l-2.3,0.3V193.5z
		 M21.2,195.4l2.6,0l-0.1-0.5l-2.5,0.1V195.4z M21.2,194.5l2.5-0.2l-0.1-0.5l-2.4,0.2V194.5z M23.9,196.4l-0.1-0.5l-2.6,0v0.5
		L23.9,196.4z M24.1,198.3l-2.8-0.3v0.5l2.9,0.4L24.1,198.3z M23.9,197.1l-2.7-0.1v0.5l2.8,0.2L23.9,197.1z M49,208.1
		c1.9,3.1,4.8,4.3,6.5,4.8c1.5,0.4,3.1,0.6,4.5,0.6c5.3,0,10.6-2.3,10.6-8.2c0-5.4-4.7-6.8-8.1-7.6l-2.6-0.6c-2.3-0.4-4.6-0.9-4.6-3
		c0-1.9,2.2-3.1,4.7-3.1c4,0,5.6,2.5,6.5,3.8l3.8-2.9c-1.8-2.5-4.7-5.1-10-5.1c-5.9,0-9.9,3.1-9.9,7.9c0,4.2,3.1,5.8,4.2,6.2
		c0.8,0.3,1.6,0.5,3.1,0.9l3,0.6c2.3,0.5,2.3,0.6,2.9,0.8c0.8,0.3,1.9,0.9,1.9,2.5c0,0.9-0.3,2.2-2.1,2.9c-0.9,0.4-1.8,0.4-2.7,0.4
		c-5.3,0-7.1-2.9-7.7-3.9L49,208.1z M87.7,199.4c-0.9-2.1-3.2-5.1-7.6-5.1c-5,0-8.9,4-8.9,9.5c0,5.7,3.8,9.5,8.8,9.5
		c3.1,0,6.6-1.7,7.9-5.6l-3.6-2c-0.5,1.4-1.6,3.5-4.2,3.5c-2.8,0-4.4-2.4-4.4-5.6c0-3.6,1.9-5.6,4.4-5.6c2.4,0,3.7,1.9,4,3.1
		L87.7,199.4z M88.5,192h4.2v-4.4h-4.2V192z M88.5,212.9h4.2v-18h-4.2V212.9z M108.2,206.7c-0.5,0.8-1.7,2.5-4.6,2.5
		c-2.8,0-4.5-1.6-5-4.5h13.1c0-1.8-0.4-4.9-1.8-7c-0.3-0.5-2.3-3.4-7-3.4c-5,0-8.8,3.4-8.8,9.5c0,6.6,4.4,9.6,9.1,9.6
		c3.6,0,6.4-1.6,8.6-4.6L108.2,206.7z M98.7,201.5c0.5-2.5,2-3.8,4.3-3.8c1.9,0,3.6,1,4,3.8H98.7z M113.2,212.9h4.3V205
		c0-1.3,0-3.2,0.7-4.5c0.6-1.2,1.9-2,3.2-2c1.4,0,2.5,0.8,2.9,2.4c0.1,0.5,0.1,1.4,0.1,2.7v9.2h4.2v-10.6c0-2.3,0-4.3-1.1-5.8
		c-0.9-1.2-2.6-2.2-4.6-2.2c-1.4,0-3,0.5-4.1,1.3c-0.7,0.5-1.2,1.1-1.4,1.4v-2.1h-4.3V212.9z M146.1,199.4c-0.9-2.1-3.2-5.1-7.6-5.1
		c-5,0-8.9,4-8.9,9.5c0,5.7,3.9,9.5,8.8,9.5c3.1,0,6.6-1.7,7.9-5.6l-3.6-2c-0.5,1.4-1.5,3.5-4.2,3.5c-2.8,0-4.4-2.4-4.4-5.6
		c0-3.6,1.9-5.6,4.4-5.6c2.4,0,3.7,1.9,4,3.1L146.1,199.4z M160.3,206.7c-0.5,0.8-1.7,2.5-4.6,2.5c-2.8,0-4.5-1.6-5-4.5h13.1
		c0-1.8-0.4-4.9-1.8-7c-0.4-0.5-2.3-3.4-7-3.4c-5,0-8.8,3.4-8.8,9.5c0,6.6,4.5,9.6,9.1,9.6c3.6,0,6.4-1.6,8.6-4.6L160.3,206.7z
		 M150.8,201.5c0.5-2.5,2-3.8,4.3-3.8c1.9,0,3.6,1,4,3.8H150.8z M163.8,210.2c2.2,2.2,5.3,3.2,8.5,3.2c5.5,0,8-3.3,8-6.2
		c0-1.5-0.7-3-1.8-3.8c-1.1-0.9-2.2-1.1-5.8-1.8c-2.3-0.4-3.6-0.8-3.6-2.1c0-0.9,0.9-1.8,2.9-1.8c3.1,0,4.3,1.8,4.8,2.7l3-2.8
		c-0.4-0.4-0.9-1-1.8-1.6c-1.2-0.9-3.1-1.7-5.8-1.7c-4.8,0-7.5,2.8-7.5,5.9c0,1.6,0.8,4.1,5,5.1c0.6,0.2,3.5,0.7,4.1,0.9
		c0.6,0.1,1.8,0.4,1.8,1.5c0,0.9-1.1,2.1-3.5,2.1c-2.4,0-4-1-5.1-2.3L163.8,210.2z M181.9,212.9h4.7v-8.6h3.6c1.5,0,2.8,0,4.2-0.3
		c4.5-1,6-4.7,6-8c0-5.1-3.4-7.4-5.9-8.1c-1.5-0.4-2.9-0.4-4.3-0.4h-8.4V212.9z M190.1,191.5c1.5,0,3.1,0,4.3,1
		c0.4,0.4,1.2,1.4,1.2,3.2c0,0.9-0.2,3.6-3.1,4.3c-0.8,0.2-1.7,0.2-2.6,0.2h-3.4v-8.8H190.1z M218,203.8c0-6-4.2-9.5-9.1-9.5
		c-5.3,0-9,4-9,9.5c0,5.5,3.7,9.6,9.2,9.6C214.4,213.4,218,209.4,218,203.8 M213.5,203.7c0.1,3-1.4,5.7-4.5,5.7
		c-2.5,0-4.8-2.1-4.8-5.8c0-3.3,1.9-5.5,4.6-5.5C211.8,198.2,213.5,200.7,213.5,203.7 M218.7,212.9h4.7v-4.9h-4.7V212.9z"/>
	<g>
		<g>
			<path class="st1" d="M275.2,195.5h4.6v2.2h0.1c1-2,2.6-2.8,4.5-2.8c1.9,0,3.8,1.2,4.4,2.8c1-2,2.6-2.8,4.5-2.8
				c2.8,0,4.8,1.5,4.8,4.8v12.5h1.8v0.8h-6.8v-0.8h1.8v-12.7c0-2.5-0.9-3.4-2.3-3.4c-2.1,0-3.5,1.8-3.5,5.3v10.8h1.8v0.8h-6.8v-0.8
				h1.8v-12.7c0-2.5-0.9-3.4-2.3-3.4c-2.1,0-3.5,1.8-3.5,5.3v10.8h1.8v0.8h-6.8v-0.8h1.8v-16h-1.5V195.5z"/>
			<path class="st1" d="M305.1,202.6c0,0.3,0,0.7,0,1c0,6.7,1.7,9,4.3,9c2.9,0,5-1.9,5.4-6.2h0.8c-0.2,4.8-3,7.1-6.5,7.1
				c-4.4,0-7.5-3.8-7.5-9.3c0-5.5,3.4-9.3,7.4-9.3c3.9,0,6.5,2.8,6.5,7.7H305.1z M311.8,201.9v-1.3c0-3.5-1.1-4.8-2.9-4.8
				c-2.1,0-3.4,2.1-3.7,6.2H311.8z M306.5,193.1l4.3-4.8c0.7-0.8,1.3-1.2,1.9-1.2c0.7,0,1.3,0.6,1.3,1.2c0,0.6-0.2,0.9-1,1.4
				l-4.9,3.4H306.5z"/>
			<path class="st1" d="M328.4,213.1v-2.1h-0.1c-0.6,1.6-1.8,2.7-4.2,2.7c-3.2,0-6.4-3.3-6.4-9.3c0-6,2.9-9.4,6.5-9.4
				c1.7,0,3.1,1,3.9,2.7h0.1v-7.7h-1.7v-0.8h4.9v23.2h1.7v0.8H328.4z M324.8,212.8c2.3,0,3.6-2.7,3.6-8.2c0-6.2-1.4-8.7-3.7-8.7
				c-2,0-3.4,1.7-3.4,8.7C321.3,210.9,322.6,212.8,324.8,212.8z"/>
			<path class="st1" d="M339.1,212.3h1.7v0.8h-6.6v-0.8h1.7v-16h-1.7v-0.8h4.9V212.3z M337.5,189.6c1.1,0,2,0.8,2,2c0,1.2-0.9,2-2,2
				c-1.1,0-2-0.8-2-2C335.5,190.4,336.3,189.6,337.5,189.6z"/>
			<path class="st1" d="M344.7,201.8v-5.6c1.8-0.7,3.5-1.2,5.3-1.2c4.3,0,6.3,2.3,6.3,4.4v12.9h1.7v0.8h-4.7v-3h-0.1
				c-0.8,2.1-2.8,3.6-5.3,3.6c-3.1,0-5.3-1.8-5.3-4.8c0-6,7.1-4.3,10.6-6.4v-3.6c0-2.2-1.2-3.1-3-3.1c-2.4,0-3.1,1.2-4.7,6.1H344.7z
				 M353.2,203.3c-3.9,1.8-7.1,0.5-7.1,5.5c0,2.6,1,3.6,2.8,3.6c2.6-0.1,4.3-2.6,4.3-6.4V203.3z"/>
			<path class="st1" d="M364.2,212.3h1.7v0.8h-6.6v-0.8h1.7v-22.4h-1.7v-0.8h4.9V212.3z"/>
			<path class="st1" d="M369.8,201.8v-5.6c1.8-0.7,3.5-1.2,5.3-1.2c4.3,0,6.3,2.3,6.3,4.4v12.9h1.7v0.8h-4.7v-3h-0.1
				c-0.8,2.1-2.8,3.6-5.3,3.6c-3.1,0-5.3-1.8-5.3-4.8c0-6,7.1-4.3,10.6-6.4v-3.6c0-2.2-1.2-3.1-3-3.1c-2.4,0-3.1,1.2-4.7,6.1H369.8z
				 M378.3,203.3c-3.9,1.8-7.1,0.5-7.1,5.5c0,2.6,1,3.6,2.8,3.6c2.6-0.1,4.3-2.6,4.3-6.4V203.3z"/>
			<path class="st1" d="M386,213.1v-23.2h-1.7v-0.8h4.9v8.3h0.1c0.6-1.5,1.9-2.5,3.8-2.5c4.1,0,6.8,3.8,6.8,9.1
				c0,5.3-3.1,9.6-7.2,9.6c-2.1,0-3.6-1-4.7-3l-1.2,2.5H386z M396.4,204.3c0-5.5-1.5-8.4-3.8-8.4c-1.8,0-3.4,1.6-3.4,8.8
				c0,6.8,1.6,8.2,3.4,8.2C394.8,212.8,396.4,210.1,396.4,204.3z"/>
		</g>
	</g>
	<line class="st2" x1="250" y1="161.5" x2="250" y2="238.5"/>
</g>
</svg>
