<?xml version="1.0" encoding="utf-8"?>
<!-- Generator: Adobe Illustrator 24.1.0, SVG Export Plug-In . SVG Version: 6.00 Build 0)  -->
<svg version="1.1" id="KCL" xmlns="http://www.w3.org/2000/svg" xmlns:xlink="http://www.w3.org/1999/xlink" x="0px" y="0px"
	 viewBox="0 0 400 400" style="enable-background:new 0 0 400 400;" xml:space="preserve">
<style type="text/css">
	.st0{fill:#231F20;}
	.st1{fill:#FFFFFF;}
</style>
<g>
	<rect x="68.9" y="100.1" class="st0" width="262.3" height="199.7"/>
	<g>
		<path class="st1" d="M196.5,182.6c0.4,0,0.6-0.1,0.7-0.5l2.4-7.8c0.2-0.6,0-1-0.4-1c-0.2,0-0.4,0.1-0.6,0.5
			c-0.4,0.6-1,1.4-1.4,1.4c-0.3,0-0.4-0.1-0.6-0.3c-2-2.2-4.5-2.9-6.7-2.9c-10.4,0-19.4,11-19.4,21.3c0,5.9,3.6,9.3,8.8,9.3
			c2.2,0,4.1-0.4,7.2-1.7c0.7-0.3,1.4-0.6,2-0.6c0.7,0,0.8,0.9,0.8,2.1c0,0.4,0.3,0.6,0.6,0.6c0.3,0,0.6-0.1,0.7-0.3l2.9-8.6
			c0.3-0.7-0.1-1.1-0.5-1.1c-0.4,0-0.7,0.2-1.1,0.8c-2.2,3.8-7.7,6.7-12.1,6.7c-3.4,0-5-2.6-5-6.3c0-8.9,8.1-20.3,14.9-20.3
			c3.6,0,6.3,2.2,6.3,6.7c0,0.4-0.1,0.8-0.1,1.2C195.8,182.3,196.1,182.6,196.5,182.6L196.5,182.6z"/>
		<path class="st1" d="M210.6,179.8c-6.7,0-12.3,8-12.3,16.1c0,3.6,1.8,6.5,5.3,6.5c6.7,0,12.3-8.7,12.3-16.1
			C215.9,182.7,214.1,179.8,210.6,179.8L210.6,179.8z M210.8,181.5c1.6,0,2.3,1.3,2.3,3.1c0,5.5-5.6,15.9-9.7,15.9
			c-1.6,0-2.3-1.1-2.3-2.9C201.1,191.5,206.7,181.5,210.8,181.5L210.8,181.5z"/>
		<path class="st1" d="M227.7,174.4c0,0.1-0.1,0.4-0.2,0.7c-3.6,8.3-7,16.1-10.5,24.3c-0.2,0.5-0.5,1.3-0.5,1.8
			c0,0.6,0.6,1.3,1.3,1.3c0.5,0,1.1-0.1,1.7-0.3c2.2-0.8,3.9-2,5.4-3.7c0.1-0.1,0.3-0.3,0.3-0.6c0-0.3-0.1-0.6-0.4-0.6
			c-0.1,0-0.3,0.1-0.5,0.2c-0.7,0.5-1.6,1.4-3.2,2.2c-0.1,0.1-0.4,0.2-0.6,0.2c-0.1,0-0.2-0.1-0.2-0.2c0-0.2,0.1-0.4,0.1-0.6
			l11.1-25.6c0.2-0.5,0.3-0.8,0.3-1.1c0-0.3-0.2-0.4-0.6-0.4c-0.6,0-1.6,0.1-2.5,0.1c-0.7,0.1-2.3,0.1-3.4,0.3
			c-0.4,0.1-0.7,0.4-0.7,0.6c0,0.4,0.3,0.6,0.6,0.6c0.6,0.1,1.5,0.1,2,0.3C227.6,174.1,227.7,174.2,227.7,174.4L227.7,174.4z"/>
		<path class="st1" d="M239.2,174.4c0,0.1-0.1,0.4-0.2,0.7c-3.6,8.3-7,16.1-10.5,24.3c-0.2,0.5-0.5,1.3-0.5,1.8
			c0,0.6,0.6,1.3,1.3,1.3c0.5,0,1.1-0.1,1.7-0.3c2.2-0.8,3.9-2,5.4-3.7c0.1-0.1,0.3-0.3,0.3-0.6c0-0.3-0.1-0.6-0.4-0.6
			c-0.1,0-0.3,0.1-0.5,0.2c-0.7,0.5-1.6,1.4-3.2,2.2c-0.1,0.1-0.4,0.2-0.6,0.2c-0.1,0-0.2-0.1-0.2-0.2c0-0.2,0.1-0.4,0.1-0.6
			l11.1-25.6c0.2-0.5,0.3-0.8,0.3-1.1c0-0.3-0.2-0.4-0.6-0.4c-0.6,0-1.6,0.1-2.5,0.1c-0.7,0.1-2.3,0.1-3.4,0.3
			c-0.4,0.1-0.7,0.4-0.7,0.6c0,0.4,0.3,0.6,0.6,0.6c0.6,0.1,1.5,0.1,2,0.3C239.1,174.1,239.2,174.2,239.2,174.4L239.2,174.4z"/>
		<path class="st1" d="M254.2,197.6c0.1-0.2,0.3-0.4,0.3-0.7c0-0.4-0.3-0.6-0.6-0.6c-0.2,0-0.4,0.1-0.6,0.3
			c-1.4,1.5-3.4,3.4-5.9,3.4c-1.8,0-2.9-1.3-2.9-3.5c0-1.5,0.6-3,1.1-4.1c1.5-0.3,4.6-0.9,6.1-1.4c5.1-1.6,7.8-4.2,7.8-7.4
			c0-2.2-1.5-3.2-3.7-3.2c-6.3,0-14.9,8.7-14.9,17.1c0,2.9,1.9,4.9,4.8,4.9C249.5,202.3,252,200.4,254.2,197.6L254.2,197.6z
			 M251.4,189.3c-2,0.6-3.8,1.1-5,1.3c1.3-2.7,2.8-4.6,4.4-6.2c0.9-1,2.5-2.2,3.9-2.2c1.1,0,1.6,0.6,1.6,1.8
			C256.4,186.3,254.3,188.4,251.4,189.3L251.4,189.3z"/>
		<path class="st1" d="M291.9,197.6c0.1-0.2,0.3-0.4,0.3-0.7c0-0.4-0.3-0.6-0.6-0.6c-0.2,0-0.4,0.1-0.6,0.3
			c-1.4,1.5-3.4,3.4-5.9,3.4c-1.8,0-2.9-1.3-2.9-3.5c0-1.5,0.6-3,1.1-4.1c1.5-0.3,4.6-0.9,6.1-1.4c5.1-1.6,7.8-4.2,7.8-7.4
			c0-2.2-1.5-3.2-3.7-3.2c-6.3,0-14.9,8.7-14.9,17.1c0,2.9,1.8,4.9,4.8,4.9C287.2,202.3,289.8,200.4,291.9,197.6L291.9,197.6z
			 M289.1,189.3c-2,0.6-3.8,1.1-5,1.3c1.3-2.7,2.8-4.6,4.4-6.2c0.9-1,2.5-2.2,3.9-2.2c1.1,0,1.6,0.6,1.6,1.8
			C294.1,186.3,292,188.4,289.1,189.3L289.1,189.3z"/>
		<path class="st1" d="M277.1,184.9c0-1.3-0.2-1.8-0.2-2.2c0-0.5,0.6-0.8,1.4-0.8c0.9,0,1.6,0.7,2.5,0.7c0.7,0,1.3-0.6,1.3-1.4
			c0-0.8-0.6-1.3-1.6-1.3c-0.9,0-2,0.3-3.1,1c-0.3,0.1-0.6,0.3-0.9,0.3c-0.1,0-0.4-0.1-0.6-0.2c-0.8-0.5-1.8-0.8-3.5-0.8
			c-2.3,0-5.3,1.2-7.3,3.9c-1.4,2-1.7,3.2-1.7,4.6c0,1.3,0.4,2.3,0.8,2.9c0.1,0.1,0.3,0.4,0.3,0.5c0,0.3-0.4,0.4-1.3,0.6
			c-1.5,0.4-3.4,1.3-3.4,3.2c0,1.4,0.8,2.2,2.2,3.3c-2.7,0.7-7.1,2.5-7.1,5.5c0,2.9,3.7,5.2,9.3,5.2c5.3,0,9-2.2,9-5.8
			c0-1.9-1.8-3.6-4.8-5.1c-3.2-1.5-5.3-2.6-5.3-3.8c0-1.1,0.8-1.5,2.4-1.5c0.8,0,2,0.3,2.8,0.3c2.5,0,6-0.8,8.1-5.3
			C276.8,187.4,277.1,186.1,277.1,184.9L277.1,184.9z M267.8,192.3c-1.1,0-1.7-1-1.7-2.5c0-1.2,0.4-2.7,1.4-4.4c1.4-2.5,3.2-4,5-4
			c1.1,0,1.8,0.7,1.8,2c0,1.3-0.4,3-1.5,4.9C270.9,191.6,269.3,192.3,267.8,192.3L267.8,192.3z M264.4,208.2c-3.8,0-6-1.7-6-3.5
			c0-2.2,2.5-3.7,4.9-4.6c1.1,0.6,2.6,1.3,3.8,2c2,1.2,2.3,1.8,2.3,2.9C269.4,206.9,267.5,208.2,264.4,208.2L264.4,208.2z"/>
	</g>
	<g>
		<rect x="103.4" y="256.1" class="st1" width="193.1" height="2.5"/>
		<rect x="103.4" y="265.1" class="st1" width="193.1" height="4.9"/>
	</g>
	<g>
		<path class="st1" d="M261.1,155.7c0-2.9,2.1-3.2,4-3.3c0.4,0,0.6-0.4,0.6-0.8c0-0.4-0.2-0.6-0.7-0.6h-14.3c-0.5,0-0.8,0.3-0.8,0.7
			c0,0.5,0.4,0.8,0.8,0.8c2.8,0.2,5.1,0.7,5.1,3.5v4.3c0,1.2-0.4,1.8-1.1,2.4c-2.6,1.9-5.3,2.2-7.5,2.2c-8.9,0-12.9-7.4-12.9-15
			c0-10.2,6.4-15.6,13.5-15.6c6.5,0,10.7,2.8,13.1,7.7c0.3,0.6,0.6,0.8,1,0.8c0.4,0,0.6-0.4,0.6-0.8v-7.6c0-0.4-0.3-0.7-0.6-0.7
			c-0.4,0-0.6,0.3-0.8,0.7c-0.2,0.8-0.6,1.4-1.3,1.4c-0.4,0-1.1-0.4-1.5-0.6c-2.9-1.7-5.4-3-10.6-3c-8.6,0-19.3,4.7-19.3,17.5
			c0,13.3,10,17.4,18.8,17.4c7.8,0,12.7-3.9,14-4.9V155.7z"/>
		<path class="st1" d="M269.8,137.5c0.6,0,1.3-0.3,1.5-0.8c0.1,0.1,0.1,0.4,0.1,0.6c0,1.4-1.1,2.8-3,3.5c-0.3,0.1-0.5,0.4-0.5,0.7
			c0,0.4,0.4,0.6,0.8,0.5c3.1-0.6,4.8-3.4,4.8-6.1c0-2.4-1.3-3.7-3.2-3.7c-1.3,0-3,0.6-3,2.8C267.2,136.7,268.5,137.5,269.8,137.5
			L269.8,137.5z"/>
		<path class="st1" d="M296.1,140.6c0.4,0,0.6-0.3,0.6-0.7l-1.1-7.4c-0.1-0.5-0.3-0.6-0.6-0.6c-0.2,0-0.4,0.1-0.6,0.5
			c-0.2,0.6-0.6,1.1-1.3,1.1c-1.2,0-2.8-1.3-6.1-1.3c-4.4,0-10.2,2.3-10.2,8.3c0,6.4,5.1,8.6,9.5,10.2c4.8,1.7,8.3,2.8,8.3,7.6
			c0,4.7-3.7,6.5-7.3,6.5c-3.9,0-8.3-1.8-10-7.6c-0.1-0.5-0.4-0.8-0.8-0.8c-0.5,0-0.8,0.3-0.8,0.9v8.2c0,0.5,0.3,0.8,0.7,0.8
			c0.3,0,0.5-0.1,0.7-0.5c0.2-0.5,0.6-1.3,1.3-1.3c1.4,0,4.2,2.5,9.2,2.5c4.7,0,11.9-1.8,11.9-10.3c0-3.5-1.4-8.1-10-10.6
			c-6.1-1.8-8-4-8-7c0-2.7,1.8-4.9,5.8-4.9c2.9,0,5.9,1.3,8,5.7C295.6,140.5,295.8,140.6,296.1,140.6L296.1,140.6z"/>
		<path class="st1" d="M177.5,138.1c0-2.7,0.8-4,3.5-4.4c0.5-0.1,0.8-0.3,0.8-0.7c0-0.4-0.3-0.6-0.8-0.6h-12.4
			c-0.5,0-0.8,0.2-0.8,0.6c0,0.4,0.3,0.6,0.8,0.7c2.7,0.4,3.5,1.7,3.5,4.4v23.2c0,2.7-0.8,4-3.5,4.4c-0.5,0.1-0.8,0.3-0.8,0.7
			c0,0.4,0.3,0.6,0.8,0.6H181c0.5,0,0.8-0.2,0.8-0.6c0-0.4-0.3-0.6-0.8-0.7c-2.7-0.4-3.5-1.7-3.5-4.4V138.1z"/>
		<path class="st1" d="M221.1,138.7c0.1-3.5,0.8-4.7,3.5-5c0.5-0.1,0.8-0.3,0.8-0.7c0-0.4-0.3-0.6-0.8-0.6h-10.7
			c-0.3,0-0.5,0.3-0.5,0.6c0,0.3,0.2,0.6,0.6,0.6c2.3,0.4,3.9,0.8,4.2,5c0.4,4.9,0.4,18.6,0.4,18.6l-22.2-24.9h-8.8
			c-0.5,0-0.8,0.2-0.8,0.6c0,0.4,0.3,0.6,0.8,0.7c1.5,0.2,3.5,0.9,3.5,3.2c0,7,0,16.2-0.3,23.6c-0.1,3.5-0.8,4.7-3.5,5
			c-0.5,0.1-0.8,0.3-0.8,0.7c0,0.4,0.3,0.6,0.8,0.6h10.7c0.3,0,0.5-0.3,0.5-0.6c0-0.3-0.2-0.6-0.6-0.6c-2.3-0.4-3.9-0.8-4.2-5
			c-0.3-4.9-0.4-22.7-0.4-22.7l26,28.9h1.6C220.8,166.9,220.8,146.2,221.1,138.7L221.1,138.7z"/>
		<path class="st1" d="M119.3,142.9c0.1-4,0.7-7.3,8.4-8.3c0.8-0.1,1.2-0.5,1.2-1.2c0-0.6-0.4-1-1.1-1c-4.8,0.2-6.9,0.2-12.8,0.2
			c-5.1,0-11.6-0.2-12.6-0.2c-0.8,0-1.3,0.4-1.3,1c0,0.6,0.4,1,1.2,1.1c2.8,0.4,7,1.1,7.3,9c0.1,2.5,0.1,14.7,0.1,28
			c0,8.5-0.1,16-0.2,19.5c-0.3,8-4.5,8.6-7.3,9c-0.8,0.1-1.2,0.5-1.2,1.1c0,0.6,0.5,1,1.3,1c1,0,7.5-0.2,12.6-0.2
			c5.9,0,8.9,0,13.7,0.2c0.6,0,1.1-0.4,1.1-1c0-0.7-0.4-1.1-1.2-1.2c-7.7-1.1-8.9-4.4-9.2-8.3c-0.1-1.7-0.3-6-0.3-10.5
			c0-4.5,0.1-8.9,0.1-9.8c0.1-1.1,0.6-1.4,1.2-1.4c0.5,0,1,0.2,1.3,0.5c4.8,4,19.6,21.6,28,31.8h17.9c0.7,0,1-0.4,1-0.9
			c0-0.6-0.4-1.1-1-1.1c-3.4-0.4-5.5-1-9.7-4.4c-4.4-3.5-28.9-32.8-28.9-32.8c1.9-2.2,13.2-13.7,19.7-19.6
			c7.6-6.9,10.6-7.8,13.8-8.6c0.5-0.1,0.8-0.4,0.8-1.1c0-0.6-0.4-1.1-1.4-1.1c-1.7,0-6.8,0.2-10,0.2c-5.6,0-10.3-0.2-11.3-0.2
			c-0.8,0-1.5,0.4-1.5,1.1c0,0.6,0.6,1.1,1.3,1.2c1.1,0.2,2.1,0.4,3.2,0.8c1.1,0.4,1.8,0.9,1.8,2.1c0,1.1-0.5,2.1-1.1,3.1
			c-1.6,2.4-3.3,4.6-6.1,7.6c-6.7,6.9-15,15.1-17.7,17.4c-0.3,0.2-0.5,0.3-0.7,0.3c-0.4,0-0.6-0.5-0.6-1
			C119.1,164.4,119.1,151.5,119.3,142.9L119.3,142.9z"/>
	</g>
	<g>
		<path class="st1" d="M103.5,215.7c-0.3,0-0.5,0.2-0.5,0.6c0,0.3,0.3,0.6,0.6,0.6c2.3,0.1,3.2,1.7,3.2,4v19.6c0,2.3-0.8,3.7-3.2,4
			c-0.4,0-0.6,0.3-0.6,0.6c0,0.4,0.2,0.6,0.5,0.6h24.9l1.6-8.3c0.1-0.6-0.1-0.9-0.6-0.9c-0.4,0-0.6,0.2-0.8,0.6
			c-2.2,6.1-5.6,6.8-10.8,6.8c-5.2,0-6.4-0.8-6.4-3.2V220c0-2.4,2-3,3.5-3.1c0.4-0.1,0.6-0.3,0.6-0.6c0-0.4-0.3-0.6-0.7-0.6H103.5z"
			/>
		<path class="st1" d="M146.9,245.7c8.8,0,15-6.1,15-15.4c0-8.2-6.1-14.8-15-14.8c-8.6,0-14.8,6.8-14.8,14.8
			C132.1,239,138,245.7,146.9,245.7L146.9,245.7z M137.1,230.3c0-7.3,3.5-12.9,9.8-12.9c5.6,0,10,5.3,10,12.9c0,9.4-4,13.5-10,13.5
			C141.1,243.8,137.1,238.1,137.1,230.3L137.1,230.3z"/>
		<path class="st1" d="M193.5,245.5l0.1-24.7c0-2.3,0.8-3.6,3.2-4c0.4-0.1,0.6-0.3,0.6-0.6c0-0.4-0.2-0.6-0.5-0.6h-9.3
			c-0.4,0-0.6,0.2-0.6,0.6c0,0.3,0.2,0.5,0.6,0.6c2.3,0.4,3.5,1.1,3.5,4l0.4,16.9l-18.8-22h-8c-0.4,0-0.6,0.2-0.6,0.6
			c0,0.4,0.2,0.6,0.6,0.6c2,0.3,2.9,0.9,2.9,2.8l-0.1,20.7c0,2.3-0.8,3.6-3.2,4c-0.4,0.1-0.6,0.3-0.6,0.6c0,0.4,0.1,0.6,0.5,0.6h9.3
			c0.4,0,0.6-0.2,0.6-0.6c0-0.3-0.2-0.5-0.6-0.6c-1.6-0.3-3.5-0.7-3.5-4l-0.2-20.8l22,25.9H193.5z"/>
		<path class="st1" d="M200.4,215.7c-0.3,0-0.5,0.2-0.5,0.6c0,0.4,0.3,0.6,0.6,0.6c2.3,0.2,3.2,1.7,3.2,4v19.6c0,2.3-0.8,3.7-3.2,4
			c-0.4,0.1-0.6,0.3-0.6,0.6c0,0.4,0.2,0.6,0.5,0.6h14.3c6.2,0,16.5-3.2,16.5-15.2c0-10.7-8.2-14.6-16.7-14.6H200.4z M208.4,220.5
			c0-2.7,1.4-2.9,5.2-2.9c6.3,0,12.6,3,12.6,12.6c0,9.4-5.4,13.4-12.4,13.4h-1.6c-2,0-3.9-0.6-3.9-4.2V220.5z"/>
		<path class="st1" d="M250,245.7c8.8,0,15-6.1,15-15.4c0-8.2-6.1-14.8-15-14.8c-8.6,0-14.8,6.8-14.8,14.8
			C235.2,239,241,245.7,250,245.7L250,245.7z M240.2,230.3c0-7.3,3.5-12.9,9.8-12.9c5.6,0,10,5.3,10,12.9c0,9.4-4,13.5-10,13.5
			C244.1,243.8,240.2,238.1,240.2,230.3L240.2,230.3z"/>
		<path class="st1" d="M296.5,245.5l0.1-24.7c0-2.3,0.8-3.6,3.2-4c0.4-0.1,0.6-0.3,0.6-0.6c0-0.4-0.2-0.6-0.5-0.6h-9.3
			c-0.4,0-0.6,0.2-0.6,0.6c0,0.3,0.2,0.5,0.6,0.6c2.3,0.4,3.5,1.1,3.5,4l0.4,16.9l-18.8-22h-8c-0.4,0-0.6,0.2-0.6,0.6
			c0,0.4,0.2,0.6,0.6,0.6c2,0.3,2.9,0.9,2.9,2.8l-0.1,20.7c0,2.3-0.8,3.6-3.2,4c-0.4,0.1-0.6,0.3-0.6,0.6c0,0.4,0.1,0.6,0.5,0.6h9.3
			c0.4,0,0.6-0.2,0.6-0.6c0-0.3-0.2-0.5-0.6-0.6c-1.6-0.3-3.5-0.7-3.5-4l-0.2-20.8l22,25.9H296.5z"/>
	</g>
</g>
</svg>
