<?xml version="1.0" encoding="utf-8"?>
<!-- Generator: Adobe Illustrator 24.1.0, SVG Export Plug-In . SVG Version: 6.00 Build 0)  -->
<svg version="1.1" id="GEHL" xmlns="http://www.w3.org/2000/svg" xmlns:xlink="http://www.w3.org/1999/xlink" x="0px" y="0px"
	 viewBox="0 0 400 400" style="enable-background:new 0 0 400 400;" xml:space="preserve">
<style type="text/css">
	.st0{fill:#0099FF;}
</style>
<g>
	<path class="st0" d="M71.5,269.2c-10.8-0.3-20-3-27.3-8c-7.3-4.8-12.8-10.5-16.1-17c-1-2.1-1.9-4-2.7-5.8c-0.8-2.1-1.5-4.7-2-7.6
		c-0.9-5.5-1.4-15.5-1.4-30.7c0-15.5,0.5-25.6,1.4-30.9c1-5.4,2.6-9.9,4.7-13.4c3.4-6.4,8.8-12.1,16.1-17.1
		c7.3-5.1,16.5-7.7,27.3-7.8c13.3,0.1,24.4,4.1,32.8,11.9c8.4,7.8,13.7,17.6,15.9,29l0.6,3.4H94.4l-0.6-2c-1.5-4.7-4.1-8.8-8-12.2
		c-3.9-3.1-8.6-4.7-14.4-4.8c-4.1,0.1-7.7,0.9-10.7,2.5c-3,1.6-5.5,3.6-7.3,6l-0.1,0.2c-2.2,2.4-3.7,5.6-4.4,9.5
		c-0.9,4.5-1.4,13.2-1.4,25.8c0,12.6,0.5,21.2,1.4,25.5c0.8,4.1,2.2,7.3,4.4,9.7l0.1,0.2c1.8,2.3,4.3,4.3,7.3,5.7l0.2,0.1
		c2.9,1.7,6.5,2.6,10.6,2.6c7,0,12.6-2.3,17.1-7c4.6-4.6,6.8-10.4,6.9-17.9v-4H68.9v-24.3H121V220c-0.3,13.8-5.1,25.5-14.3,34.8
		c-9.3,9.3-21.1,14.1-35.2,14.3H71.5L71.5,269.2z"/>
	<path class="st0" d="M181,269.2c-5.1,0-10.2-0.8-15.2-2.3c-2.5-0.8-5-2-7.3-3.3c-2.5-1.2-4.8-2.7-7-4.5c-4.3-3.8-7.8-9.1-10.4-15.7
		c-2.8-6.2-4.2-14.4-4.2-24.3c0-9.5,1.2-17.6,3.7-23.9c2.5-6.6,5.7-11.8,9.6-15.7c4-3.9,8.5-6.8,13.5-8.5c4.8-1.7,9.7-2.6,14.4-2.6
		c11.4,0.1,21.1,3.9,28.9,11.2c8,7.5,12.2,17.9,12.3,30.9v18.2h-58c0.5,5.3,2.2,9.2,5.4,12.1c3.6,3.5,8.1,5.2,13.9,5.2
		c6.9,0,12.9-2.7,18.4-8.2l1.9-1.9l17.8,15.2l-2,2.2c-9.9,10.6-21.7,15.9-35.2,15.9L181,269.2z M194.7,207.7
		c-0.6-5.1-2.2-9-4.8-11.6c-3-3-6.9-4.5-11.8-4.5c-4.9,0-8.8,1.5-11.9,4.5c-2.5,2.6-4.1,6.5-4.7,11.6H194.7z"/>
	<path class="st0" d="M293,268.1v-58.3c0-5.7-1.5-10-4.4-12.9c-2.9-3-6.6-4.4-11.2-4.4c-4.6,0-8.3,1.4-11.3,4.4
		c-3,2.9-4.5,7.1-4.5,12.9v58.3h-24.4V131.9h24.4v43.8c6-4.9,13.3-7.4,21.7-7.4c8.4,0,16.1,3,23,8.8c7,6,10.6,14.9,11,26.3l0,64.7
		H293z"/>
	<path class="st0" d="M366.8,268.1c-7.4,0-13.7-1.9-18.6-5.7c-5.4-4-8.1-10.6-8.1-19.6V131.9h24.4v109.5c0,2.3,0.7,3.5,4.2,3.5h9.3
		v23.2H366.8z"/>
</g>
</svg>
